SplineFontDB: 3.2
FontName: CascaFlott-Italic
FullName: CascaFlott Italic
FamilyName: CascaFlott
Weight: Book
Copyright: Copyright (c) 2014 by P. Wiegel. All rights reserved.
Version: 1.1
ItalicAngle: 2.6
UnderlinePosition: -100
UnderlineWidth: 50
Ascent: 750
Descent: 250
InvalidEm: 0
sfntRevision: 0x00020000
LayerCount: 2
Layer: 0 1 "Back" 1
Layer: 1 1 "Fore" 0
XUID: [1021 987 -1864705508 12375466]
StyleMap: 0x0001
FSType: 0
OS2Version: 3
OS2_WeightWidthSlopeOnly: 0
OS2_UseTypoMetrics: 0
CreationTime: 1405928463
ModificationTime: 1641480332
PfmFamily: 81
TTFWeight: 400
TTFWidth: 5
LineGap: 9
VLineGap: 0
Panose: 0 0 0 0 0 0 0 0 0 0
OS2TypoAscent: 750
OS2TypoAOffset: 0
OS2TypoDescent: -250
OS2TypoDOffset: 0
OS2TypoLinegap: 0
OS2WinAscent: 907
OS2WinAOffset: 0
OS2WinDescent: 329
OS2WinDOffset: 0
HheadAscent: 750
HheadAOffset: 0
HheadDescent: -250
HheadDOffset: 0
OS2SubXSize: 700
OS2SubYSize: 650
OS2SubXOff: 0
OS2SubYOff: 140
OS2SupXSize: 700
OS2SupYSize: 650
OS2SupXOff: 0
OS2SupYOff: 477
OS2StrikeYSize: 50
OS2StrikeYPos: 250
OS2CapHeight: 700
OS2XHeight: 500
OS2Vendor: 'pyrs'
OS2CodePages: 00000001.00000000
OS2UnicodeRanges: 80000027.10000000.00000000.00000000
Lookup: 258 0 0 "'kern' Horizontal Kerning lookup 0" { "'kern' Horizontal Kerning lookup 0 subtable"  } ['kern' ('DFLT' <'dflt' > ) ]
MarkAttachClasses: 1
DEI: 91125
TtTable: prep
PUSHW_1
 0
CALL
SVTCA[y-axis]
PUSHW_3
 1
 3
 2
CALL
SVTCA[x-axis]
PUSHW_3
 4
 4
 2
CALL
SVTCA[x-axis]
PUSHW_8
 4
 64
 55
 40
 29
 19
 0
 8
CALL
PUSHW_8
 5
 56
 44
 40
 29
 14
 0
 8
CALL
PUSHW_8
 6
 48
 44
 28
 20
 14
 0
 8
CALL
PUSHW_8
 7
 39
 32
 28
 20
 14
 0
 8
CALL
SVTCA[y-axis]
PUSHW_8
 1
 66
 55
 40
 29
 19
 0
 8
CALL
PUSHW_8
 2
 71
 55
 40
 29
 19
 0
 8
CALL
PUSHW_8
 3
 57
 44
 40
 29
 14
 0
 8
CALL
SVTCA[y-axis]
PUSHW_3
 8
 4
 7
CALL
PUSHW_1
 0
DUP
RCVT
RDTG
ROUND[Black]
RTG
WCVTP
EndTTInstrs
TtTable: fpgm
PUSHW_1
 0
FDEF
MPPEM
PUSHW_1
 9
LT
IF
PUSHB_2
 1
 1
INSTCTRL
EIF
PUSHW_1
 511
SCANCTRL
PUSHW_1
 68
SCVTCI
PUSHW_2
 9
 3

StartChar: b
Encoding: 98 98 1
Width: 632
VWidth: 1776
Flags: W
LayerCount: 2
Fore
SplineSet
537 1131 m 1,0,1
 509 1068 509 1068 474 986.5 c 128,-1,2
 439 905 439 905 404.5 826.5 c 128,-1,3
 370 748 370 748 341 682 c 128,-1,4
 312 616 312 616 297 581 c 0,5,6
 281 543 281 543 253 480.5 c 128,-1,7
 225 418 225 418 198 349 c 128,-1,8
 171 280 171 280 151.5 215.5 c 128,-1,9
 132 151 132 151 132 116 c 0,10,11
 132 100 132 100 149.5 90.5 c 128,-1,12
 167 81 167 81 183 81 c 0,13,14
 209 81 209 81 235.5 102.5 c 128,-1,15
 262 124 262 124 285.5 153.5 c 128,-1,16
 309 183 309 183 325.5 215.5 c 128,-1,17
 342 248 342 248 350 270 c 1,18,19
 328 275 328 275 300.5 280.5 c 128,-1,20
 273 286 273 286 268 315 c 1,21,22
 273 344 273 344 296 380.5 c 128,-1,23
 319 417 319 417 350.5 448.5 c 128,-1,24
 382 480 382 480 417.5 501.5 c 128,-1,25
 453 523 453 523 484 523 c 2,26,-1
 499 523 l 1,27,28
 504 497 504 497 512 474.5 c 128,-1,29
 520 452 520 452 527 426 c 1,30,31
 549 421 549 421 573 417 c 0,32,33
 596 413 596 413 616 403 c 1,34,35
 601 347 601 347 585 325 c 128,-1,36
 569 303 569 303 552 294 c 128,-1,37
 535 285 535 285 520.5 280.5 c 128,-1,38
 506 276 506 276 499 255 c 0,39,40
 477 196 477 196 441 136.5 c 128,-1,41
 405 77 405 77 357.5 29.5 c 128,-1,42
 310 -18 310 -18 251 -48 c 0,43,44
 191 -78 191 -78 122 -78 c 0,45,46
 33 -78 33 -78 3.5 -29 c 128,-1,47
 -26 20 -26 20 -26 99 c 0,48,49
 -26 168 -26 168 -6.5 226.5 c 0,50,51
 13 284 13 284 38 346 c 0,52,53
 105 521 105 521 173 690 c 0,54,55
 243 859 243 859 322 1027 c 0,56,57
 335 1053 335 1053 346.5 1073 c 0,58,59
 358 1092 358 1092 389 1102 c 0,60,61
 427 1114 427 1114 463 1120 c 128,-1,62
 499 1126 499 1126 537 1131 c 1,0,1
EndSplineSet
EndChar

StartChar: c
Encoding: 99 99 2
Width: 597
VWidth: 1813
Flags: W
LayerCount: 2
Fore
SplineSet
456 585 m 0,0,1
 512 585 512 585 546.5 555.5 c 128,-1,2
 581 526 581 526 581 468 c 0,3,4
 581 449 581 449 579 424 c 128,-1,5
 577 399 577 399 568 375 c 128,-1,6
 559 351 559 351 546.5 331 c 128,-1,7
 534 311 534 311 515 307 c 0,8,9
 489 298 489 298 465 290 c 128,-1,10
 441 282 441 282 413 282 c 0,11,12
 408 282 408 282 401 282 c 128,-1,13
 394 282 394 282 389 284 c 1,14,15
 408 322 408 322 420.5 359.5 c 128,-1,16
 433 397 433 397 433 440 c 1,17,18
 383 440 383 440 330 409.5 c 128,-1,19
 277 379 277 379 234 331.5 c 128,-1,20
 191 284 191 284 161 228 c 0,21,22
 131 171 131 171 128 122 c 1,23,24
 217 98 217 98 305.5 101.5 c 128,-1,25
 394 105 394 105 483 105 c 1,26,27
 471 76 471 76 460 50 c 0,28,29
 448 24 448 24 432 -5 c 0,30,31
 417 -29 417 -29 393 -32 c 128,-1,32
 369 -35 369 -35 343 -35 c 0,33,34
 292 -35 292 -35 227.5 -36.5 c 128,-1,35
 163 -38 163 -38 107 -25 c 128,-1,36
 51 -12 51 -12 14 24.5 c 128,-1,37
 -23 61 -23 61 -23 137 c 0,38,39
 -23 152 -23 152 -21 159 c 0,40,41
 -8 237 -8 237 37.5 314.5 c 128,-1,42
 83 392 83 392 148.5 451 c 128,-1,43
 214 510 214 510 293.5 547.5 c 128,-1,44
 373 585 373 585 456 585 c 0,0,1
EndSplineSet
EndChar

StartChar: d
Encoding: 100 100 3
Width: 683
VWidth: 1776
Flags: W
LayerCount: 2
Fore
SplineSet
901 1126 m 1,0,1
 889 1060 889 1060 863.5 1004 c 128,-1,2
 838 948 838 948 812 888 c 0,3,4
 761 771 761 771 706 660 c 128,-1,5
 651 549 651 549 594 436 c 0,6,7
 582 416 582 416 572 377 c 128,-1,8
 562 338 562 338 553 296.5 c 128,-1,9
 544 255 544 255 539 215.5 c 128,-1,10
 534 176 534 176 534 155 c 0,11,12
 534 135 534 135 535.5 116 c 128,-1,13
 537 97 537 97 547 81 c 1,14,15
 581 74 581 74 615 72 c 0,16,17
 648 71 648 71 682 65 c 1,18,19
 670 30 670 30 654.5 -4.5 c 128,-1,20
 639 -39 639 -39 623 -70 c 1,21,-1
 534 -70 l 2,22,23
 467 -70 467 -70 437 -62.5 c 128,-1,24
 407 -55 407 -55 396.5 -36.5 c 128,-1,25
 386 -18 386 -18 384 14.5 c 128,-1,26
 382 47 382 47 370 96 c 1,27,28
 322 53 322 53 297 22.5 c 128,-1,29
 272 -8 272 -8 245 -29.5 c 128,-1,30
 218 -51 218 -51 179 -61 c 128,-1,31
 140 -71 140 -71 67 -71 c 0,32,33
 51 -71 51 -71 17.5 -70.5 c 128,-1,34
 -16 -70 -16 -70 -32 -66 c 0,35,36
 -52 -61 -52 -61 -67 -45 c 128,-1,37
 -82 -29 -82 -29 -92 -8.5 c 128,-1,38
 -102 12 -102 12 -107.5 34 c 128,-1,39
 -113 56 -113 56 -113 75 c 0,40,41
 -113 107 -113 107 -104.5 141.5 c 128,-1,42
 -96 176 -96 176 -83 211 c 128,-1,43
 -70 246 -70 246 -52.5 278.5 c 128,-1,44
 -35 311 -35 311 -14 335 c 0,45,46
 45 409 45 409 134 459 c 128,-1,47
 223 509 223 509 312 534 c 0,48,49
 347 543 347 543 383.5 544 c 128,-1,50
 420 545 420 545 454 556 c 1,51,52
 480 614 480 614 505.5 678 c 128,-1,53
 531 742 531 742 558 805.5 c 128,-1,54
 585 869 585 869 614.5 930 c 128,-1,55
 644 991 644 991 679 1045 c 0,56,57
 692 1065 692 1065 719 1079 c 128,-1,58
 746 1093 746 1093 779 1102.5 c 128,-1,59
 812 1112 812 1112 845.5 1117 c 128,-1,60
 879 1122 879 1122 901 1126 c 1,0,1
56 112 m 0,61,62
 56 107 56 107 56 100.5 c 128,-1,63
 56 94 56 94 58 88 c 0,64,65
 82 83 82 83 106 82 c 0,66,67
 185 82 185 82 243 140 c 0,68,69
 294 194 294 194 344 256.5 c 128,-1,70
 394 319 394 319 409 393 c 1,71,72
 350 393 350 393 287.5 374.5 c 128,-1,73
 225 356 225 356 173 320 c 128,-1,74
 121 284 121 284 88.5 232.5 c 128,-1,75
 56 181 56 181 56 112 c 0,61,62
EndSplineSet
EndChar

StartChar: e
Encoding: 101 101 4
Width: 625
VWidth: 1813
Flags: W
LayerCount: 2
Fore
SplineSet
18 152 m 0,0,1
 18 235 18 235 53.5 312 c 128,-1,2
 89 389 89 389 148 448 c 128,-1,3
 207 507 207 507 284.5 542.5 c 128,-1,4
 362 578 362 578 444 578 c 0,5,6
 473 578 473 578 501.5 571.5 c 128,-1,7
 530 565 530 565 555 551 c 128,-1,8
 580 537 580 537 594 513 c 128,-1,9
 608 489 608 489 608 455 c 0,10,11
 608 388 608 388 570.5 333 c 128,-1,12
 533 278 533 278 477 235.5 c 128,-1,13
 421 193 421 193 356.5 161.5 c 128,-1,14
 292 130 292 130 238 110 c 1,15,16
 307 105 307 105 376 103 c 128,-1,17
 445 101 445 101 514 101 c 1,18,19
 509 75 509 75 504 51.5 c 128,-1,20
 499 28 499 28 489 8.5 c 128,-1,21
 479 -11 479 -11 460 -21.5 c 0,22,23
 442 -32 442 -32 410 -32 c 0,24,25
 388 -32 388 -32 352.5 -33.5 c 128,-1,26
 317 -35 317 -35 279.5 -35 c 128,-1,27
 242 -35 242 -35 209 -35 c 0,28,29
 176 -36 176 -36 157 -32 c 0,30,31
 84 -23 84 -23 51 31.5 c 128,-1,32
 18 86 18 86 18 152 c 0,0,1
143 176 m 1,33,34
 187 198 187 198 234.5 225.5 c 128,-1,35
 282 253 282 253 325.5 286 c 128,-1,36
 369 319 369 319 401.5 358.5 c 128,-1,37
 434 398 434 398 449 449 c 1,38,39
 398 449 398 449 350 422 c 128,-1,40
 302 395 302 395 262 355.5 c 128,-1,41
 222 316 222 316 192 267.5 c 128,-1,42
 162 219 162 219 143 176 c 1,33,34
EndSplineSet
EndChar

StartChar: f
Encoding: 102 102 5
Width: 632
VWidth: 1811
Flags: W
LayerCount: 2
Fore
SplineSet
675 1182 m 1,0,1
 649 1100 649 1100 616.5 1022 c 128,-1,2
 584 944 584 944 549.5 867 c 128,-1,3
 515 790 515 790 478.5 712.5 c 128,-1,4
 442 635 442 635 413 558 c 1,5,6
 486 558 486 558 558.5 554 c 128,-1,7
 631 550 631 550 703 550 c 1,8,9
 688 512 688 512 671 478.5 c 0,10,11
 654 446 654 446 636 410 c 1,12,13
 573 415 573 415 510 416.5 c 128,-1,14
 447 418 447 418 383 424 c 1,15,16
 415 386 415 386 444 350.5 c 128,-1,17
 473 315 473 315 496.5 276 c 128,-1,18
 520 237 520 237 534.5 192.5 c 128,-1,19
 549 148 549 148 549 97 c 0,20,21
 549 36 549 36 524.5 -40 c 128,-1,22
 500 -116 500 -116 459 -196 c 128,-1,23
 418 -276 418 -276 363.5 -352 c 128,-1,24
 309 -428 309 -428 246 -487.5 c 128,-1,25
 183 -547 183 -547 115 -583.5 c 128,-1,26
 47 -620 47 -620 -18 -620 c 0,27,28
 -53 -620 -53 -620 -77 -606 c 128,-1,29
 -101 -592 -101 -592 -116.5 -569.5 c 128,-1,30
 -132 -547 -132 -547 -139 -518 c 128,-1,31
 -146 -489 -146 -489 -146 -459 c 0,32,33
 -146 -339 -146 -339 -108.5 -227.5 c 128,-1,34
 -71 -116 -71 -116 -22 -11 c 128,-1,35
 27 94 27 94 77.5 198.5 c 128,-1,36
 128 303 128 303 153 410 c 1,37,38
 121 426 121 426 86.5 439 c 128,-1,39
 52 452 52 452 20 464 c 1,40,41
 35 496 35 496 56 519 c 128,-1,42
 77 542 77 542 101 567 c 1,43,44
 133 576 133 576 165.5 572.5 c 0,45,46
 198 568 198 568 230 562 c 1,47,48
 259 635 259 635 294.5 704 c 128,-1,49
 330 773 330 773 363.5 841.5 c 128,-1,50
 397 910 397 910 428.5 979 c 128,-1,51
 460 1048 460 1048 483 1120 c 0,52,53
 488 1142 488 1142 511 1151 c 0,54,55
 549 1166 549 1166 592.5 1168 c 128,-1,56
 636 1170 636 1170 675 1182 c 1,0,1
14 -450 m 0,57,58
 14 -455 14 -455 14.5 -461 c 0,59,60
 15 -466 15 -466 15 -472 c 1,61,62
 78 -450 78 -450 146 -380.5 c 128,-1,63
 214 -311 214 -311 270.5 -225.5 c 128,-1,64
 327 -140 327 -140 362.5 -48.5 c 128,-1,65
 398 43 398 43 398 109 c 0,66,67
 398 168 398 168 369 219 c 128,-1,68
 340 270 340 270 302 312 c 1,69,70
 268 236 268 236 220 132 c 128,-1,71
 172 28 172 28 125 -78 c 128,-1,72
 78 -184 78 -184 46 -283.5 c 128,-1,73
 14 -383 14 -383 14 -450 c 0,57,58
EndSplineSet
EndChar

StartChar: g
Encoding: 103 103 6
Width: 656
VWidth: 1854
Flags: W
LayerCount: 2
Fore
SplineSet
620 624 m 0,0,1
 676 624 676 624 722 609 c 1,2,3
 700 575 700 575 677.5 542.5 c 128,-1,4
 655 510 655 510 633 479 c 0,5,6
 617 467 617 467 594 468 c 0,7,8
 571 470 571 470 538 464 c 0,9,10
 434 464 434 464 337.5 413 c 128,-1,11
 241 362 241 362 187 270 c 0,12,13
 175 250 175 250 165.5 227.5 c 128,-1,14
 156 205 156 205 156 183 c 0,15,16
 156 164 156 164 163 151 c 0,17,18
 183 136 183 136 210 137 c 0,19,20
 251 137 251 137 285.5 160.5 c 128,-1,21
 320 184 320 184 350 219.5 c 128,-1,22
 380 255 380 255 402.5 295.5 c 128,-1,23
 425 336 425 336 440 367 c 0,24,25
 449 387 449 387 473 399.5 c 128,-1,26
 497 412 497 412 525.5 418.5 c 128,-1,27
 554 425 554 425 582.5 426.5 c 128,-1,28
 611 428 611 428 631 428 c 0,29,30
 640 428 640 428 646 427 c 128,-1,31
 652 426 652 426 662 425 c 1,32,33
 649 387 649 387 630 353 c 128,-1,34
 611 319 611 319 591 284.5 c 128,-1,35
 571 250 571 250 552 216 c 128,-1,36
 533 182 533 182 519 144 c 0,37,38
 495 77 495 77 463.5 -4.5 c 128,-1,39
 432 -86 432 -86 392 -170 c 128,-1,40
 352 -254 352 -254 302 -333.5 c 128,-1,41
 252 -413 252 -413 191 -475 c 128,-1,42
 130 -537 130 -537 56 -574.5 c 128,-1,43
 -18 -612 -18 -612 -104 -612 c 2,44,-1
 -122 -612 l 1,45,46
 -118 -584 -118 -584 -112 -542 c 128,-1,47
 -106 -500 -106 -500 -91 -479 c 256,48,49
 -76 -457 -76 -457 -50 -447 c 128,-1,50
 -24 -437 -24 -437 -3 -426 c 0,51,52
 38 -404 38 -404 75 -371.5 c 128,-1,53
 112 -339 112 -339 144 -300 c 128,-1,54
 176 -261 176 -261 201 -217 c 128,-1,55
 226 -173 226 -173 245 -131 c 0,56,57
 261 -89 261 -89 281 -46.5 c 128,-1,58
 301 -4 301 -4 311 40 c 1,59,60
 270 20 270 20 227 7.5 c 128,-1,61
 184 -5 184 -5 140 -5 c 0,62,63
 66 -5 66 -5 28.5 38 c 128,-1,64
 -9 81 -9 81 -9 153 c 0,65,66
 -10 227 -10 227 22 288 c 0,67,68
 54 348 54 348 98 403 c 0,69,70
 199 527 199 527 331.5 575.5 c 128,-1,71
 464 624 464 624 620 624 c 0,0,1
EndSplineSet
EndChar

StartChar: h
Encoding: 104 104 7
Width: 621
VWidth: 1776
Flags: W
LayerCount: 2
Fore
SplineSet
379 1095 m 1,0,1
 418 1117 418 1117 462.5 1118.5 c 128,-1,2
 507 1120 507 1120 550 1124 c 1,3,4
 511 1012 511 1012 460.5 905 c 128,-1,5
 410 798 410 798 363 688 c 0,6,7
 324 597 324 597 279 511 c 128,-1,8
 234 425 234 425 199 332 c 1,9,10
 234 361 234 361 269 394 c 128,-1,11
 304 427 304 427 343 454 c 128,-1,12
 382 481 382 481 426.5 498.5 c 128,-1,13
 471 516 471 516 519 516 c 0,14,15
 558 516 558 516 577.5 480 c 128,-1,16
 597 444 597 444 597 409 c 0,17,18
 597 387 597 387 579.5 342 c 128,-1,19
 562 297 562 297 540 245 c 128,-1,20
 518 193 518 193 495.5 145.5 c 128,-1,21
 473 98 473 98 464 70 c 1,22,-1
 606 70 l 1,23,24
 590 35 590 35 575.5 -0.5 c 128,-1,25
 561 -36 561 -36 546 -71 c 1,26,27
 470 -71 470 -71 421 -74.5 c 128,-1,28
 372 -78 372 -78 328 -78 c 0,29,30
 304 -78 304 -78 286.5 -55 c 128,-1,31
 269 -32 269 -32 269 -9 c 0,32,33
 269 19 269 19 286.5 63.5 c 128,-1,34
 304 108 304 108 327.5 157.5 c 128,-1,35
 351 207 351 207 374.5 255.5 c 128,-1,36
 398 304 398 304 407 337 c 1,37,38
 364 328 364 328 316.5 294 c 128,-1,39
 269 260 269 260 224.5 215.5 c 128,-1,40
 180 171 180 171 141 123.5 c 128,-1,41
 102 76 102 76 78 42 c 0,42,43
 62 20 62 20 48.5 -6 c 128,-1,44
 35 -32 35 -32 19 -54 c 1,45,46
 -18 -66 -18 -66 -58 -68 c 0,47,48
 -98 -70 -98 -70 -137 -76 c 1,49,50
 -24 161 -24 161 72.5 400 c 128,-1,51
 169 639 169 639 282 874 c 0,52,53
 308 928 308 928 326.5 986.5 c 128,-1,54
 345 1045 345 1045 379 1095 c 1,0,1
EndSplineSet
EndChar

StartChar: i
Encoding: 105 105 8
Width: 351
VWidth: 1791
Flags: W
LayerCount: 2
Fore
SplineSet
367 922 m 0,0,1
 417 918 417 918 452 878 c 0,2,3
 487 839 487 839 487 790 c 0,4,5
 487 734 487 734 448.5 697 c 128,-1,6
 410 660 410 660 355 660 c 0,7,8
 301 660 301 660 263 690.5 c 128,-1,9
 225 721 225 721 225 779 c 0,10,11
 225 813 225 813 243 853 c 0,12,13
 261 893 261 893 293 907 c 0,14,15
 309 914 309 914 328.5 915.5 c 128,-1,16
 348 917 348 917 367 922 c 0,0,1
173 515 m 1,17,18
 214 520 214 520 254.5 521.5 c 128,-1,19
 295 523 295 523 336 527 c 1,20,21
 293 417 293 417 240 307.5 c 128,-1,22
 187 198 187 198 152 85 c 1,23,24
 180 80 180 80 215 81.5 c 128,-1,25
 250 83 250 83 281 83 c 1,26,27
 269 51 269 51 250 8.5 c 128,-1,28
 231 -34 231 -34 215 -65 c 1,29,30
 195 -69 195 -69 180 -63.5 c 128,-1,31
 165 -58 165 -58 145 -58 c 0,32,33
 116 -58 116 -58 87 -58 c 128,-1,34
 58 -58 58 -58 35 -49 c 128,-1,35
 12 -40 12 -40 -2 -21.5 c 128,-1,36
 -16 -3 -16 -3 -16 34 c 0,37,38
 -16 90 -16 90 8 144.5 c 128,-1,39
 32 199 32 199 54 248 c 0,40,41
 86 315 86 315 113.5 382 c 128,-1,42
 141 449 141 449 173 515 c 1,17,18
EndSplineSet
EndChar

StartChar: j
Encoding: 106 106 9
Width: 534
VWidth: 1825
Flags: W
LayerCount: 2
Fore
SplineSet
558 986 m 0,0,1
 612 986 612 986 646.5 951.5 c 128,-1,2
 681 917 681 917 681 866 c 0,3,4
 681 844 681 844 671.5 819.5 c 128,-1,5
 662 795 662 795 646.5 775.5 c 128,-1,6
 631 756 631 756 610 743 c 128,-1,7
 589 730 589 730 564 730 c 0,8,9
 510 730 510 730 470 768 c 128,-1,10
 430 806 430 806 430 860 c 0,11,12
 430 918 430 918 466 952 c 128,-1,13
 502 986 502 986 558 986 c 0,0,1
542 598 m 1,14,15
 537 572 537 572 526.5 549 c 128,-1,16
 516 526 516 526 504 502 c 0,17,18
 434 359 434 359 366 215 c 0,19,20
 298 72 298 72 235 -76 c 0,21,22
 200 -158 200 -158 167.5 -228.5 c 128,-1,23
 135 -299 135 -299 93 -358.5 c 128,-1,24
 51 -418 51 -418 -5.5 -468.5 c 128,-1,25
 -62 -519 -62 -519 -145 -564 c 0,26,27
 -177 -580 -177 -580 -210 -587 c 128,-1,28
 -243 -594 -243 -594 -278 -594 c 1,29,30
 -254 -508 -254 -508 -212 -437 c 0,31,32
 -199 -417 -199 -417 -181.5 -403.5 c 128,-1,33
 -164 -390 -164 -390 -144.5 -378.5 c 128,-1,34
 -125 -367 -125 -367 -106.5 -356.5 c 128,-1,35
 -88 -346 -88 -346 -71 -328 c 0,36,37
 -43 -300 -43 -300 -5.5 -231.5 c 128,-1,38
 32 -163 32 -163 70.5 -84 c 128,-1,39
 109 -5 109 -5 140 69 c 128,-1,40
 171 143 171 143 184 184 c 1,41,42
 141 165 141 165 99.5 143 c 128,-1,43
 58 121 58 121 13 110 c 1,44,45
 25 148 25 148 39.5 189 c 128,-1,46
 54 230 54 230 74 266 c 0,47,48
 90 295 90 295 117 311.5 c 128,-1,49
 144 328 144 328 171 347 c 0,50,51
 230 386 230 386 275 435 c 128,-1,52
 320 484 320 484 371 534 c 0,53,54
 384 547 384 547 406 556 c 128,-1,55
 428 565 428 565 452 572.5 c 128,-1,56
 476 580 476 580 499.5 585.5 c 128,-1,57
 523 591 523 591 542 598 c 1,14,15
EndSplineSet
EndChar

StartChar: k
Encoding: 107 107 10
Width: 653
VWidth: 1776
Flags: W
LayerCount: 2
Fore
SplineSet
425 1084 m 1,0,1
 463 1113 463 1113 509.5 1116.5 c 128,-1,2
 556 1120 556 1120 603 1127 c 1,3,4
 587 1060 587 1060 555.5 996 c 128,-1,5
 524 932 524 932 499 867 c 0,6,7
 449 734 449 734 386.5 608 c 128,-1,8
 324 482 324 482 274 348 c 1,9,10
 335 387 335 387 391.5 433.5 c 128,-1,11
 448 480 448 480 511 518 c 1,12,-1
 523 519 l 2,13,14
 535 519 535 519 553 510.5 c 128,-1,15
 571 502 571 502 590 490.5 c 128,-1,16
 609 479 609 479 623 466 c 128,-1,17
 637 453 637 453 637 444 c 0,18,19
 637 431 637 431 623 421.5 c 128,-1,20
 609 412 609 412 600 406 c 0,21,22
 539 368 539 368 482.5 325 c 128,-1,23
 426 282 426 282 371 238 c 1,24,25
 371 225 371 225 370 212.5 c 128,-1,26
 369 200 369 200 369 187 c 0,27,28
 369 155 369 155 376 125.5 c 128,-1,29
 383 96 383 96 406 74 c 1,30,31
 445 61 445 61 487 63 c 128,-1,32
 529 65 529 65 570 65 c 1,33,34
 576 56 576 56 580 42 c 1,35,36
 568 10 568 10 553 -18 c 128,-1,37
 538 -46 538 -46 524 -77 c 1,38,39
 498 -73 498 -73 471.5 -75 c 0,40,41
 444 -77 444 -77 418 -77 c 0,42,43
 386 -77 386 -77 348.5 -71 c 128,-1,44
 311 -65 311 -65 286 -38 c 0,45,46
 267 -19 267 -19 254.5 10 c 128,-1,47
 242 39 242 39 234 71 c 128,-1,48
 226 103 226 103 221 134.5 c 128,-1,49
 216 166 216 166 214 192 c 1,50,51
 173 136 173 136 142.5 65.5 c 128,-1,52
 112 -5 112 -5 83 -69 c 1,53,-1
 -83 -69 l 1,54,55
 -71 -31 -71 -31 -60.5 -1 c 128,-1,56
 -50 29 -50 29 -32 67 c 0,57,58
 6 150 6 150 43.5 229.5 c 128,-1,59
 81 309 81 309 118 393 c 0,60,61
 196 568 196 568 271.5 739.5 c 128,-1,62
 347 911 347 911 425 1084 c 1,0,1
EndSplineSet
EndChar

StartChar: l
Encoding: 108 108 11
Width: 351
VWidth: 1776
Flags: W
LayerCount: 2
Fore
SplineSet
588 1126 m 1,0,1
 487 860 487 860 372.5 599.5 c 128,-1,2
 258 339 258 339 144 78 c 1,3,4
 187 73 187 73 229.5 69.5 c 128,-1,5
 272 66 272 66 315 71 c 1,6,7
 306 37 306 37 289 0.5 c 128,-1,8
 272 -36 272 -36 247 -62 c 0,9,10
 232 -78 232 -78 215.5 -74.5 c 128,-1,11
 199 -71 199 -71 180 -77 c 0,12,13
 156 -74 156 -74 130 -74.5 c 128,-1,14
 104 -75 104 -75 79 -72.5 c 128,-1,15
 54 -70 54 -70 29.5 -61 c 128,-1,16
 5 -52 5 -52 -13 -32 c 1,17,18
 -25 -4 -25 -4 -23 24 c 0,19,20
 -23 62 -23 62 -10 101 c 0,21,22
 4 140 4 140 18 176 c 0,23,24
 106 401 106 401 204.5 639.5 c 128,-1,25
 303 878 303 878 401 1096 c 0,26,27
 413 1120 413 1120 435 1125.5 c 128,-1,28
 457 1131 457 1131 484 1129.5 c 128,-1,29
 511 1128 511 1128 538.5 1124.5 c 128,-1,30
 566 1121 566 1121 588 1126 c 1,0,1
EndSplineSet
EndChar

StartChar: m
Encoding: 109 109 12
Width: 997
VWidth: 1813
Flags: W
LayerCount: 2
Fore
SplineSet
133 539 m 1,0,1
 181 551 181 551 229 561 c 128,-1,2
 277 571 277 571 327 576 c 1,3,4
 307 533 307 533 285 492.5 c 128,-1,5
 263 452 263 452 252 405 c 1,6,7
 280 427 280 427 317.5 455 c 128,-1,8
 355 483 355 483 394.5 507 c 128,-1,9
 434 531 434 531 475 548 c 128,-1,10
 516 565 516 565 553 565 c 0,11,12
 596 565 596 565 613.5 541.5 c 128,-1,13
 631 518 631 518 631 476 c 0,14,15
 631 457 631 457 626 440 c 0,16,17
 621 422 621 422 616 403 c 1,18,19
 648 427 648 427 681 453.5 c 128,-1,20
 714 480 714 480 750.5 502 c 128,-1,21
 787 524 787 524 824.5 538.5 c 128,-1,22
 862 553 862 553 905 553 c 0,23,24
 946 553 946 553 964 516.5 c 128,-1,25
 982 480 982 480 982 446 c 256,26,27
 982 412 982 412 965 368.5 c 128,-1,28
 948 325 948 325 926 279 c 128,-1,29
 904 233 904 233 882.5 187 c 128,-1,30
 861 141 861 141 850 106 c 1,31,-1
 972 106 l 1,32,33
 960 72 960 72 947 34 c 0,34,35
 933 -4 933 -4 918 -35 c 1,36,-1
 718 -35 l 2,37,38
 696 -35 696 -35 673 -10 c 128,-1,39
 650 15 650 15 650 38 c 0,40,41
 650 54 650 54 669 99 c 128,-1,42
 688 144 688 144 712 198 c 128,-1,43
 736 252 736 252 758.5 305.5 c 128,-1,44
 781 359 781 359 787 395 c 1,45,46
 721 361 721 361 667.5 313.5 c 128,-1,47
 614 266 614 266 567 208.5 c 128,-1,48
 520 151 520 151 480.5 89.5 c 128,-1,49
 441 28 441 28 406 -32 c 1,50,-1
 242 -32 l 1,51,52
 292 73 292 73 342.5 178.5 c 128,-1,53
 393 284 393 284 422 395 c 1,54,55
 312 341 312 341 229 244.5 c 128,-1,56
 146 148 146 148 86 41 c 0,57,58
 79 28 79 28 67 1 c 128,-1,59
 55 -26 55 -26 40 -32 c 0,60,61
 31 -36 31 -36 11 -36 c 128,-1,62
 -9 -36 -9 -36 -32 -35.5 c 128,-1,63
 -55 -35 -55 -35 -74.5 -33.5 c 128,-1,64
 -94 -32 -94 -32 -106 -32 c 1,65,66
 -101 -6 -101 -6 -85 38 c 128,-1,67
 -69 82 -69 82 -46.5 137.5 c 128,-1,68
 -24 193 -24 193 1.5 252.5 c 128,-1,69
 27 312 27 312 52 368 c 128,-1,70
 77 424 77 424 98.5 468.5 c 128,-1,71
 120 513 120 513 133 539 c 1,0,1
EndSplineSet
EndChar

StartChar: n
Encoding: 110 110 13
Width: 663
VWidth: 1814
Flags: W
LayerCount: 2
Fore
SplineSet
164 544 m 1,0,-1
 343 566 l 1,1,2
 327 516 327 516 299.5 470.5 c 0,3,4
 272 426 272 426 261 374 c 1,5,6
 285 394 285 394 322 425 c 128,-1,7
 359 456 359 456 400.5 485 c 128,-1,8
 442 514 442 514 483 535.5 c 128,-1,9
 524 557 524 557 558 557 c 0,10,11
 596 557 596 557 621.5 528.5 c 128,-1,12
 647 500 647 500 647 464 c 0,13,14
 647 425 647 425 630.5 378.5 c 128,-1,15
 614 332 614 332 591.5 285 c 128,-1,16
 569 238 569 238 546 192 c 128,-1,17
 523 146 523 146 510 108 c 1,18,-1
 637 108 l 1,19,20
 632 73 632 73 618.5 34 c 128,-1,21
 605 -5 605 -5 586 -38 c 1,22,23
 564 -35 564 -35 518.5 -37.5 c 128,-1,24
 473 -40 473 -40 429 -36 c 128,-1,25
 385 -32 385 -32 352 -16 c 128,-1,26
 319 0 319 0 319 36 c 0,27,28
 319 60 319 60 336.5 106 c 128,-1,29
 354 152 354 152 378 203 c 128,-1,30
 402 254 402 254 423.5 303 c 128,-1,31
 445 352 445 352 454 386 c 1,32,33
 413 381 413 381 362.5 338.5 c 128,-1,34
 312 296 312 296 265 241.5 c 128,-1,35
 218 187 218 187 178 130.5 c 128,-1,36
 138 74 138 74 118 39 c 0,37,38
 114 34 114 34 111.5 22.5 c 128,-1,39
 109 11 109 11 106 -0.5 c 128,-1,40
 103 -12 103 -12 98.5 -20 c 128,-1,41
 94 -28 94 -28 86 -31 c 0,42,43
 71 -36 71 -36 47.5 -37 c 128,-1,44
 24 -38 24 -38 0 -38 c 128,-1,45
 -24 -38 -24 -38 -49 -37 c 128,-1,46
 -74 -36 -74 -36 -90 -36 c 1,47,48
 -47 78 -47 78 7.5 186.5 c 0,49,50
 62 296 62 296 105 410 c 0,51,52
 118 445 118 445 133 477.5 c 128,-1,53
 148 510 148 510 164 544 c 1,0,-1
EndSplineSet
EndChar

StartChar: o
Encoding: 111 111 14
Width: 589
VWidth: 1814
Flags: W
LayerCount: 2
Fore
SplineSet
325 578 m 0,0,1
 407 578 407 578 453.5 541 c 128,-1,2
 500 504 500 504 527 427 c 1,3,4
 551 422 551 422 575 421 c 128,-1,5
 599 420 599 420 624 420 c 1,6,7
 619 388 619 388 612 359.5 c 0,8,9
 605 332 605 332 594 302 c 1,10,11
 575 289 575 289 552 280.5 c 128,-1,12
 529 272 529 272 519 249 c 0,13,14
 493 193 493 193 470 139 c 128,-1,15
 447 85 447 85 399 41 c 0,16,17
 361 9 361 9 307.5 -15.5 c 128,-1,18
 254 -40 254 -40 206 -40 c 0,19,20
 101 -40 101 -40 37.5 11 c 128,-1,21
 -26 62 -26 62 -26 173 c 0,22,23
 -26 242 -26 242 1 314.5 c 128,-1,24
 28 387 28 387 75 445.5 c 128,-1,25
 122 504 122 504 186.5 541 c 128,-1,26
 251 578 251 578 325 578 c 0,0,1
203 104 m 0,27,28
 238 104 238 104 265 120 c 128,-1,29
 292 136 292 136 312.5 161 c 128,-1,30
 333 186 333 186 349 214.5 c 128,-1,31
 365 243 365 243 379 272 c 1,32,33
 347 288 347 288 330 303.5 c 128,-1,34
 313 319 313 319 306 337.5 c 128,-1,35
 299 356 299 356 298 379.5 c 128,-1,36
 297 403 297 403 297 436 c 1,37,38
 223 414 223 414 174 348 c 0,39,40
 124 284 124 284 124 205 c 0,41,42
 124 162 124 162 139.5 133 c 128,-1,43
 155 104 155 104 203 104 c 0,27,28
EndSplineSet
EndChar

StartChar: p
Encoding: 112 112 15
Width: 820
VWidth: 1850
Flags: W
LayerCount: 2
Fore
SplineSet
600 626 m 0,0,1
 676 626 676 626 725.5 576 c 128,-1,2
 775 526 775 526 775 452 c 0,3,4
 775 408 775 408 758.5 364 c 128,-1,5
 742 320 742 320 715 279.5 c 128,-1,6
 688 239 688 239 655.5 205 c 128,-1,7
 623 171 623 171 590 143 c 1,8,9
 625 140 625 140 668 147.5 c 0,10,11
 711 154 711 154 746 148 c 1,12,13
 731 110 731 110 716 75 c 0,14,15
 701 38 701 38 679 5 c 1,16,17
 557 1 557 1 434.5 -2 c 128,-1,18
 312 -5 312 -5 190 -5 c 1,19,20
 199 17 199 17 208.5 39 c 128,-1,21
 218 61 218 61 228.5 81 c 128,-1,22
 239 101 239 101 257 115.5 c 128,-1,23
 275 130 275 130 301 136 c 0,24,25
 360 149 360 149 416.5 180.5 c 128,-1,26
 473 212 473 212 517.5 256.5 c 128,-1,27
 562 301 562 301 590.5 356.5 c 128,-1,28
 619 412 619 412 623 477 c 1,29,-1
 609 477 l 2,30,31
 550 477 550 477 495 441 c 128,-1,32
 440 405 440 405 400 366 c 0,33,34
 306 277 306 277 245 201.5 c 128,-1,35
 184 126 184 126 141 49 c 128,-1,36
 98 -28 98 -28 60 -115 c 128,-1,37
 22 -202 22 -202 -27 -316 c 0,38,39
 -49 -367 -49 -367 -69 -420 c 128,-1,40
 -89 -473 -89 -473 -117 -524 c 1,41,42
 -160 -540 -160 -540 -206 -549.5 c 128,-1,43
 -252 -559 -252 -559 -295 -576 c 1,44,45
 -295 -571 -295 -571 -301 -567 c 0,46,47
 -306 -564 -306 -564 -310 -561 c 0,48,49
 -278 -472 -278 -472 -240.5 -388 c 0,50,51
 -202 -304 -202 -304 -166 -219 c 0,52,53
 -128 -136 -128 -136 -87 -58.5 c 128,-1,54
 -46 19 -46 19 -19 108 c 0,55,56
 19 228 19 228 38.5 342 c 128,-1,57
 58 456 58 456 58 582 c 1,58,-1
 75 582 l 2,59,60
 109 582 109 582 141 585.5 c 128,-1,61
 173 589 173 589 207 589 c 1,62,63
 212 574 212 574 213.5 557.5 c 128,-1,64
 215 541 215 541 215 524 c 0,65,66
 215 486 215 486 208.5 452 c 128,-1,67
 202 418 202 418 199 380 c 1,68,69
 234 419 234 419 281 462.5 c 128,-1,70
 328 506 328 506 380 542 c 128,-1,71
 432 578 432 578 488 602 c 128,-1,72
 544 626 544 626 600 626 c 0,0,1
EndSplineSet
EndChar

StartChar: q
Encoding: 113 113 16
Width: 711
VWidth: 1850
Flags: W
LayerCount: 2
Fore
SplineSet
608 629 m 0,0,1
 627 629 627 629 657 623 c 0,2,3
 688 617 688 617 697 600 c 1,4,5
 685 565 685 565 663 536 c 128,-1,6
 641 507 641 507 616 481 c 1,7,8
 562 469 562 469 510.5 469 c 128,-1,9
 459 469 459 469 407 452 c 0,10,11
 366 436 366 436 317.5 408 c 128,-1,12
 269 380 269 380 227.5 344 c 128,-1,13
 186 308 186 308 158 263.5 c 128,-1,14
 130 219 130 219 130 171 c 0,15,16
 130 156 130 156 144 149.5 c 128,-1,17
 158 143 158 143 169 143 c 0,18,19
 208 143 208 143 237 165 c 128,-1,20
 266 187 266 187 289 217 c 128,-1,21
 312 247 312 247 331.5 277.5 c 128,-1,22
 351 308 351 308 370 325 c 0,23,24
 383 337 383 337 406 344.5 c 128,-1,25
 429 352 429 352 455 358 c 128,-1,26
 481 364 481 364 506 369 c 128,-1,27
 531 374 531 374 547 377 c 1,28,29
 525 316 525 316 493 257.5 c 0,30,31
 461 200 461 200 436 140 c 0,32,33
 427 120 427 120 406 77 c 128,-1,34
 385 34 385 34 358.5 -22 c 128,-1,35
 332 -78 332 -78 304.5 -137 c 128,-1,36
 277 -196 277 -196 253 -249.5 c 128,-1,37
 229 -303 229 -303 214 -341.5 c 128,-1,38
 199 -380 199 -380 199 -392 c 256,39,40
 199 -404 199 -404 202.5 -415.5 c 128,-1,41
 206 -427 206 -427 211 -439 c 1,42,43
 262 -415 262 -415 302 -375.5 c 128,-1,44
 342 -336 342 -336 370 -287 c 128,-1,45
 398 -238 398 -238 412 -183.5 c 128,-1,46
 426 -129 426 -129 426 -73 c 0,47,48
 426 -49 426 -49 422 -27 c 128,-1,49
 418 -5 418 -5 418 16 c 0,50,51
 418 54 418 54 445.5 85.5 c 128,-1,52
 473 117 473 117 494 146 c 1,53,-1
 687 146 l 1,54,55
 675 108 675 108 657 74.5 c 128,-1,56
 639 41 639 41 620 5 c 1,57,-1
 554 5 l 1,58,59
 558 -26 558 -26 559 -58 c 0,60,61
 561 -90 561 -90 561 -122 c 0,62,63
 561 -200 561 -200 526.5 -282 c 128,-1,64
 492 -364 492 -364 433.5 -430 c 128,-1,65
 375 -496 375 -496 299 -538 c 128,-1,66
 223 -580 223 -580 141 -580 c 0,67,68
 115 -580 115 -580 95.5 -568 c 128,-1,69
 76 -556 76 -556 63 -537 c 128,-1,70
 50 -518 50 -518 44 -494.5 c 128,-1,71
 38 -471 38 -471 38 -448 c 0,72,73
 38 -405 38 -405 60 -339 c 128,-1,74
 82 -273 82 -273 112.5 -203 c 128,-1,75
 143 -133 143 -133 174.5 -68.5 c 128,-1,76
 206 -4 206 -4 227 38 c 1,77,78
 198 25 198 25 168 12.5 c 128,-1,79
 138 0 138 0 106 0 c 0,80,81
 36 0 36 0 2 46 c 0,82,83
 -32 93 -32 93 -32 158 c 0,84,85
 -32 201 -32 201 -18 245.5 c 128,-1,86
 -4 290 -4 290 21 327 c 0,87,88
 68 400 68 400 133.5 455 c 128,-1,89
 199 510 199 510 276.5 549.5 c 128,-1,90
 354 589 354 589 439.5 609 c 128,-1,91
 525 629 525 629 608 629 c 0,0,1
EndSplineSet
EndChar

StartChar: r
Encoding: 114 114 17
Width: 543
VWidth: 1810
Flags: W
LayerCount: 2
Fore
SplineSet
143 639 m 2,0,-1
 262 639 l 1,1,2
 257 607 257 607 244 580.5 c 128,-1,3
 231 554 231 554 223 526 c 1,4,5
 309 526 309 526 395 527.5 c 128,-1,6
 481 529 481 529 566 535 c 1,7,8
 557 503 557 503 548 473 c 0,9,10
 539 444 539 444 522 416 c 1,11,12
 490 397 490 397 457.5 383.5 c 128,-1,13
 425 370 425 370 402 342 c 0,14,15
 367 299 367 299 333.5 249.5 c 128,-1,16
 300 200 300 200 297 140 c 0,17,18
 292 121 292 121 319 114.5 c 128,-1,19
 346 108 346 108 383 105 c 128,-1,20
 420 102 420 102 457 103 c 128,-1,21
 494 104 494 104 506 104 c 1,22,23
 494 66 494 66 475 32 c 0,24,25
 457 -3 457 -3 439 -38 c 1,26,27
 405 -34 405 -34 370.5 -37 c 128,-1,28
 336 -40 336 -40 301 -40 c 0,29,30
 204 -40 204 -40 165 -2.5 c 128,-1,31
 126 35 126 35 126 133 c 0,32,33
 126 159 126 159 145.5 198.5 c 128,-1,34
 165 238 165 238 192 276.5 c 128,-1,35
 219 315 219 315 247 351 c 128,-1,36
 275 387 275 387 292 409 c 1,37,38
 277 409 277 409 262 409.5 c 128,-1,39
 247 410 247 410 231 410 c 0,40,41
 202 410 202 410 186.5 404.5 c 128,-1,42
 171 399 171 399 161.5 386.5 c 128,-1,43
 152 374 152 374 146 358 c 128,-1,44
 140 342 140 342 129 320 c 1,45,46
 97 323 97 323 65.5 321.5 c 128,-1,47
 34 320 34 320 3 320 c 1,48,49
 8 336 8 336 27.5 386 c 128,-1,50
 47 436 47 436 69 490 c 128,-1,51
 91 544 91 544 112.5 589 c 128,-1,52
 134 634 134 634 143 639 c 2,0,-1
EndSplineSet
EndChar

StartChar: s
Encoding: 115 115 18
Width: 484
VWidth: 1808
Flags: W
LayerCount: 2
Fore
SplineSet
433 652 m 0,0,1
 442 652 442 652 449.5 652 c 128,-1,2
 457 652 457 652 467 651 c 1,3,4
 445 612 445 612 412 578.5 c 128,-1,5
 379 545 379 545 363 502 c 1,6,7
 376 436 376 436 395 372 c 128,-1,8
 414 308 414 308 414 238 c 0,9,10
 414 223 414 223 412 199.5 c 128,-1,11
 410 176 410 176 405 160 c 0,12,13
 393 132 393 132 374.5 100.5 c 128,-1,14
 356 69 356 69 332.5 41.5 c 128,-1,15
 309 14 309 14 279 -6.5 c 128,-1,16
 249 -27 249 -27 220 -32 c 0,17,18
 150 -47 150 -47 73 -43.5 c 128,-1,19
 -4 -40 -4 -40 -77 -46 c 1,20,21
 -73 -34 -73 -34 -67 -11.5 c 128,-1,22
 -61 11 -61 11 -51.5 33.5 c 128,-1,23
 -42 56 -42 56 -32 74.5 c 128,-1,24
 -22 93 -22 93 -11 96 c 0,25,26
 -2 99 -2 99 22 100 c 128,-1,27
 46 101 46 101 73.5 102 c 128,-1,28
 101 103 101 103 129 104 c 0,29,30
 158 105 158 105 176 109 c 0,31,32
 210 114 210 114 222 131.5 c 0,33,34
 234 150 234 150 249 176 c 0,35,36
 261 196 261 196 266.5 213 c 128,-1,37
 272 230 272 230 272 254 c 0,38,39
 272 283 272 283 265 311 c 0,40,41
 259 340 259 340 252 369 c 1,42,43
 224 347 224 347 200 319.5 c 128,-1,44
 176 292 176 292 155 265 c 1,45,46
 120 270 120 270 86 280 c 128,-1,47
 52 290 52 290 21 303 c 1,48,49
 68 359 68 359 112.5 412 c 128,-1,50
 157 465 157 465 199 524 c 0,51,52
 206 536 206 536 219.5 553.5 c 128,-1,53
 233 571 233 571 247.5 588 c 128,-1,54
 262 605 262 605 277 618.5 c 128,-1,55
 292 632 292 632 303 636 c 0,56,57
 329 645 329 645 368 648.5 c 128,-1,58
 407 652 407 652 433 652 c 0,0,1
EndSplineSet
EndChar

StartChar: t
Encoding: 116 116 19
Width: 487
VWidth: 1801
Flags: W
LayerCount: 2
Fore
SplineSet
277 745 m 1,0,1
 318 757 318 757 359 755.5 c 128,-1,2
 400 754 400 754 444 760 c 1,3,4
 425 701 425 701 397 645.5 c 128,-1,5
 369 590 369 590 346 530 c 1,6,7
 378 525 378 525 408.5 522.5 c 128,-1,8
 439 520 439 520 471 515 c 1,9,10
 459 480 459 480 445.5 446.5 c 128,-1,11
 432 413 432 413 412 382 c 1,12,13
 392 377 392 377 372 378 c 0,14,15
 351 380 351 380 333 380 c 0,16,17
 309 380 309 380 294.5 373.5 c 128,-1,18
 280 367 280 367 270 344 c 0,19,20
 242 285 242 285 215 224 c 0,21,22
 188 162 188 162 165 99 c 1,23,24
 209 94 209 94 254 92 c 128,-1,25
 299 90 299 90 343 85 c 1,26,27
 338 46 338 46 318.5 11 c 128,-1,28
 299 -24 299 -24 276 -56 c 1,29,30
 225 -56 225 -56 168.5 -53.5 c 128,-1,31
 112 -51 112 -51 61 -42 c 0,32,33
 29 -37 29 -37 7 -9.5 c 128,-1,34
 -15 18 -15 18 -15 51 c 0,35,36
 -15 77 -15 77 -0.5 120 c 128,-1,37
 14 163 14 163 34.5 210 c 128,-1,38
 55 257 55 257 75.5 300.5 c 128,-1,39
 96 344 96 344 106 374 c 1,40,41
 80 379 80 379 54.5 381 c 128,-1,42
 29 383 29 383 4 383 c 1,43,44
 24 452 24 452 62 523 c 1,45,-1
 175 523 l 1,46,47
 210 574 210 574 226 634 c 128,-1,48
 242 694 242 694 277 745 c 1,0,1
EndSplineSet
EndChar

StartChar: u
Encoding: 117 117 20
Width: 660
VWidth: 1815
Flags: W
LayerCount: 2
Fore
SplineSet
644 558 m 1,0,1
 632 510 632 510 612 463 c 128,-1,2
 592 416 592 416 570 372 c 0,3,4
 555 344 555 344 537 320 c 128,-1,5
 519 296 519 296 504 271 c 128,-1,6
 489 246 489 246 478.5 217 c 128,-1,7
 468 188 468 188 468 153 c 0,8,9
 468 129 468 129 487 119 c 128,-1,10
 506 109 506 109 531.5 106 c 128,-1,11
 557 103 557 103 584 104 c 128,-1,12
 611 105 611 105 628 105 c 1,13,14
 619 67 619 67 605.5 32 c 128,-1,15
 592 -3 592 -3 576 -36 c 1,16,17
 532 -36 532 -36 482 -37 c 0,18,19
 432 -37 432 -37 390 -29 c 0,20,21
 362 -24 362 -24 344.5 1.5 c 128,-1,22
 327 27 327 27 309 46 c 1,23,24
 281 33 281 33 255.5 17 c 128,-1,25
 230 1 230 1 205 -14 c 128,-1,26
 180 -29 180 -29 152 -39.5 c 128,-1,27
 124 -50 124 -50 93 -50 c 0,28,29
 74 -50 74 -50 53 -41 c 128,-1,30
 32 -32 32 -32 14 -18 c 128,-1,31
 -4 -4 -4 -4 -16 14 c 128,-1,32
 -28 32 -28 32 -28 52 c 0,33,34
 -28 68 -28 68 -16.5 106 c 128,-1,35
 -5 144 -5 144 11.5 190.5 c 128,-1,36
 28 237 28 237 48.5 288.5 c 128,-1,37
 69 340 69 340 89.5 388 c 128,-1,38
 110 436 110 436 127.5 473 c 128,-1,39
 145 510 145 510 155 527 c 1,40,41
 193 547 193 547 234 550 c 128,-1,42
 275 553 275 553 319 558 c 1,43,44
 303 499 303 499 278 441 c 128,-1,45
 253 383 253 383 229.5 325.5 c 128,-1,46
 206 268 206 268 185 209.5 c 128,-1,47
 164 151 164 151 152 90 c 1,48,49
 194 109 194 109 228 131 c 128,-1,50
 262 153 262 153 293 186 c 0,51,52
 309 202 309 202 317 220 c 128,-1,53
 325 238 325 238 330.5 256 c 128,-1,54
 336 274 336 274 341 291.5 c 128,-1,55
 346 309 346 309 355 328 c 0,56,57
 362 344 362 344 376 370.5 c 128,-1,58
 390 397 390 397 404 424.5 c 128,-1,59
 418 452 418 452 433 477 c 128,-1,60
 448 502 448 502 459 514 c 0,61,62
 474 530 474 530 496.5 537.5 c 128,-1,63
 519 545 519 545 545.5 549 c 128,-1,64
 572 553 572 553 598 553.5 c 128,-1,65
 624 554 624 554 644 558 c 1,0,1
EndSplineSet
EndChar

StartChar: v
Encoding: 118 118 21
Width: 535
VWidth: 1815
Flags: W
LayerCount: 2
Fore
SplineSet
54 527 m 1,0,1
 95 539 95 539 135 545 c 0,2,3
 174 551 174 551 216 557 c 1,4,5
 201 514 201 514 184 467 c 128,-1,6
 167 420 167 420 151.5 370 c 128,-1,7
 136 320 136 320 125 272.5 c 128,-1,8
 114 225 114 225 114 178 c 0,9,10
 114 150 114 150 126 126 c 1,11,12
 169 158 169 158 215 204 c 128,-1,13
 261 250 261 250 276 304 c 0,14,15
 280 319 280 319 277.5 332.5 c 128,-1,16
 275 346 275 346 275 360 c 0,17,18
 275 382 275 382 301.5 415.5 c 128,-1,19
 328 449 328 449 366.5 480.5 c 128,-1,20
 405 512 405 512 443 534.5 c 128,-1,21
 481 557 481 557 503 557 c 0,22,23
 523 557 523 557 528 543 c 128,-1,24
 533 529 533 529 540 512.5 c 128,-1,25
 547 496 547 496 564 481 c 0,26,27
 582 466 582 466 626 465 c 1,28,29
 614 431 614 431 602 397.5 c 128,-1,30
 590 364 590 364 573 332 c 1,31,32
 558 328 558 328 542 330 c 128,-1,33
 526 332 526 332 512 332 c 0,34,35
 503 332 503 332 493.5 330 c 128,-1,36
 484 328 484 328 477 325 c 0,37,38
 461 316 461 316 442.5 292.5 c 128,-1,39
 424 269 424 269 403 243.5 c 128,-1,40
 382 218 382 218 362.5 191.5 c 0,41,42
 343 164 343 164 327 148 c 0,43,44
 292 114 292 114 258.5 82 c 128,-1,45
 225 50 225 50 188.5 22.5 c 128,-1,46
 152 -5 152 -5 111 -26.5 c 128,-1,47
 70 -48 70 -48 22 -59 c 1,48,49
 3 -37 3 -37 -6 -7.5 c 128,-1,50
 -15 22 -15 22 -19.5 54 c 128,-1,51
 -24 86 -24 86 -25.5 117.5 c 128,-1,52
 -27 149 -27 149 -27 178 c 0,53,54
 -25 359 -25 359 54 527 c 1,0,1
EndSplineSet
EndChar

StartChar: w
Encoding: 119 119 22
Width: 831
VWidth: 1815
Flags: W
LayerCount: 2
Fore
SplineSet
342 523 m 1,0,1
 380 543 380 543 421.5 548.5 c 128,-1,2
 463 554 463 554 506 561 c 1,3,4
 471 467 471 467 438 370.5 c 128,-1,5
 405 274 405 274 405 172 c 0,6,7
 405 160 405 160 405 150 c 128,-1,8
 405 140 405 140 407 129 c 1,9,10
 458 163 458 163 501 207.5 c 128,-1,11
 544 252 544 252 572 308 c 1,12,13
 568 324 568 324 562.5 340 c 128,-1,14
 557 356 557 356 557 372 c 0,15,16
 557 385 557 385 560.5 393.5 c 128,-1,17
 564 402 564 402 572 412 c 0,18,19
 594 438 594 438 621 463.5 c 128,-1,20
 648 489 648 489 680.5 511 c 128,-1,21
 713 533 713 533 747 547 c 128,-1,22
 781 561 781 561 816 561 c 1,23,24
 816 541 816 541 820 520 c 128,-1,25
 824 499 824 499 824 479 c 1,26,27
 846 474 846 474 869 467 c 128,-1,28
 892 460 892 460 914 454 c 1,29,30
 898 426 898 426 885.5 395.5 c 128,-1,31
 873 365 873 365 854 337 c 1,32,33
 838 333 838 333 821 333 c 128,-1,34
 804 333 804 333 789.5 332 c 128,-1,35
 775 331 775 331 760.5 324 c 128,-1,36
 746 317 746 317 734 300 c 0,37,38
 712 266 712 266 664 207 c 128,-1,39
 616 148 616 148 558 90 c 128,-1,40
 500 32 500 32 441 -10 c 128,-1,41
 382 -52 382 -52 342 -52 c 0,42,43
 314 -52 314 -52 299 -36.5 c 128,-1,44
 284 -21 284 -21 275 1 c 128,-1,45
 266 23 266 23 261 48.5 c 128,-1,46
 256 74 256 74 250 94 c 1,47,48
 224 79 224 79 200 55.5 c 128,-1,49
 176 32 176 32 151 10 c 128,-1,50
 126 -12 126 -12 99.5 -27.5 c 128,-1,51
 73 -43 73 -43 39 -43 c 0,52,53
 7 -43 7 -43 -10.5 -20 c 128,-1,54
 -28 3 -28 3 -36 36.5 c 128,-1,55
 -44 70 -44 70 -45.5 105 c 128,-1,56
 -47 140 -47 140 -47 163 c 0,57,58
 -47 257 -47 257 -21 351 c 0,59,60
 5 445 5 445 38 533 c 1,61,-1
 200 554 l 1,62,63
 188 525 188 525 171.5 475 c 128,-1,64
 155 425 155 425 138.5 371 c 128,-1,65
 122 317 122 317 110 266.5 c 128,-1,66
 98 216 98 216 98 188 c 0,67,68
 98 159 98 159 110 131 c 1,69,70
 138 155 138 155 164 177.5 c 128,-1,71
 190 200 190 200 212 224.5 c 128,-1,72
 234 249 234 249 250 279 c 0,73,74
 267 308 267 308 275 346 c 0,75,76
 284 390 284 390 301 437 c 128,-1,77
 318 484 318 484 342 523 c 1,0,1
EndSplineSet
EndChar

StartChar: x
Encoding: 120 120 23
Width: 727
VWidth: 1814
Flags: W
LayerCount: 2
Fore
SplineSet
176 557 m 1,0,1
 214 552 214 552 249 548 c 128,-1,2
 284 544 284 544 316 527 c 0,3,4
 321 527 321 527 322.5 521.5 c 128,-1,5
 324 516 324 516 324 512 c 0,6,7
 339 470 339 470 347.5 427.5 c 128,-1,8
 356 385 356 385 369 342 c 1,9,10
 420 381 420 381 458 426.5 c 128,-1,11
 496 472 496 472 539 519 c 0,12,13
 555 539 555 539 579 546.5 c 128,-1,14
 603 554 603 554 628 554 c 0,15,16
 657 554 657 554 687 549 c 128,-1,17
 717 544 717 544 746 547 c 1,18,19
 685 449 685 449 601.5 370.5 c 128,-1,20
 518 292 518 292 440 208 c 0,21,22
 426 192 426 192 427 178 c 0,23,24
 427 159 427 159 439.5 140.5 c 128,-1,25
 452 122 452 122 471 120 c 0,26,27
 512 111 512 111 560 110.5 c 128,-1,28
 608 110 608 110 648 110 c 1,29,30
 639 69 639 69 618.5 32.5 c 128,-1,31
 598 -4 598 -4 574 -39 c 1,32,33
 559 -39 559 -39 533.5 -38.5 c 128,-1,34
 508 -38 508 -38 478.5 -38 c 128,-1,35
 449 -38 449 -38 424.5 -35 c 128,-1,36
 400 -32 400 -32 389 -29 c 0,37,38
 376 -25 376 -25 365.5 -13 c 128,-1,39
 355 -1 355 -1 345 13.5 c 128,-1,40
 335 28 335 28 323.5 41 c 128,-1,41
 312 54 312 54 300 59 c 1,42,43
 268 43 268 43 245.5 14 c 128,-1,44
 223 -15 223 -15 195 -38 c 1,45,46
 179 -35 179 -35 161.5 -33.5 c 128,-1,47
 144 -32 144 -32 126 -32 c 0,48,49
 85 -32 85 -32 45 -29 c 0,50,51
 5 -25 5 -25 -35 -29 c 1,52,53
 -3 5 -3 5 34 35.5 c 128,-1,54
 71 66 71 66 108 94 c 128,-1,55
 145 122 145 122 181.5 154 c 128,-1,56
 218 186 218 186 249 223 c 1,57,58
 233 306 233 306 210.5 388.5 c 128,-1,59
 188 471 188 471 176 557 c 1,0,1
EndSplineSet
EndChar

StartChar: y
Encoding: 121 121 24
Width: 657
VWidth: 1854
Flags: W
LayerCount: 2
Fore
SplineSet
153 527 m 1,0,1
 200 549 200 549 246.5 569 c 0,2,3
 292 589 292 589 346 594 c 1,4,5
 302 482 302 482 252.5 374 c 128,-1,6
 203 266 203 266 173 148 c 1,7,8
 221 160 221 160 261.5 195 c 128,-1,9
 302 230 302 230 338 260 c 0,10,11
 370 284 370 284 388.5 327 c 128,-1,12
 407 370 407 370 422 412.5 c 128,-1,13
 437 455 437 455 454 491 c 128,-1,14
 471 527 471 527 502 541 c 0,15,16
 550 561 550 561 601 571 c 128,-1,17
 652 581 652 581 703 592 c 1,18,19
 684 544 684 544 659 502.5 c 128,-1,20
 634 461 634 461 607.5 420.5 c 128,-1,21
 581 380 581 380 557.5 342 c 128,-1,22
 534 304 534 304 518 266 c 0,23,24
 502 225 502 225 489.5 179 c 0,25,26
 478 133 478 133 464 91 c 0,27,28
 449 40 449 40 429.5 -10.5 c 128,-1,29
 410 -61 410 -61 397 -113 c 0,30,31
 373 -195 373 -195 340 -262.5 c 128,-1,32
 307 -330 307 -330 261 -401 c 0,33,34
 223 -457 223 -457 171.5 -493 c 128,-1,35
 120 -529 120 -529 59 -557 c 0,36,37
 16 -577 16 -577 -27 -585.5 c 128,-1,38
 -70 -594 -70 -594 -118 -594 c 1,39,40
 -111 -578 -111 -578 -98.5 -555.5 c 128,-1,41
 -86 -533 -86 -533 -73.5 -508.5 c 128,-1,42
 -61 -484 -61 -484 -46.5 -463 c 128,-1,43
 -32 -442 -32 -442 -21 -430 c 0,44,45
 -5 -415 -5 -415 13.5 -404 c 128,-1,46
 32 -393 32 -393 53 -384 c 128,-1,47
 74 -375 74 -375 92 -363 c 128,-1,48
 110 -351 110 -351 128 -335 c 0,49,50
 167 -292 167 -292 193.5 -242.5 c 128,-1,51
 220 -193 220 -193 239 -141 c 128,-1,52
 258 -89 258 -89 274 -34.5 c 128,-1,53
 290 20 290 20 307 74 c 1,54,55
 287 65 287 65 262.5 51.5 c 128,-1,56
 238 38 238 38 212 25 c 128,-1,57
 186 12 186 12 161 2.5 c 128,-1,58
 136 -7 136 -7 113 -7 c 0,59,60
 101 -7 101 -7 87.5 -1 c 128,-1,61
 74 5 74 5 58.5 14.5 c 128,-1,62
 43 24 43 24 32 36 c 0,63,64
 22 48 22 48 18 59 c 0,65,66
 14 68 14 68 13 86.5 c 128,-1,67
 12 105 12 105 12 114 c 0,68,69
 12 152 12 152 26 210.5 c 128,-1,70
 40 269 40 269 60.5 329.5 c 128,-1,71
 81 390 81 390 106 444 c 128,-1,72
 131 498 131 498 153 527 c 1,0,1
EndSplineSet
EndChar

StartChar: z
Encoding: 122 122 25
Width: 473
VWidth: 1853
Flags: W
LayerCount: 2
Fore
SplineSet
301 598 m 0,0,1
 384 598 384 598 420 560 c 128,-1,2
 456 522 456 522 456 440 c 0,3,4
 456 401 456 401 445 365.5 c 128,-1,5
 434 330 434 330 418 296.5 c 128,-1,6
 402 263 402 263 384 231 c 128,-1,7
 366 199 366 199 351 165 c 1,8,9
 379 131 379 131 409.5 95 c 128,-1,10
 440 59 440 59 440 13 c 0,11,12
 440 -75 440 -75 409.5 -148 c 128,-1,13
 379 -221 379 -221 331.5 -284.5 c 128,-1,14
 284 -348 284 -348 227.5 -406.5 c 128,-1,15
 171 -465 171 -465 120 -524 c 0,16,17
 94 -553 94 -553 68.5 -562.5 c 128,-1,18
 43 -572 43 -572 4 -572 c 0,19,20
 -24 -572 -24 -572 -53 -569 c 0,21,22
 -83 -565 -83 -565 -112 -569 c 1,23,24
 -69 -511 -69 -511 -20 -459 c 128,-1,25
 29 -407 29 -407 79 -357 c 128,-1,26
 129 -307 129 -307 174 -253.5 c 128,-1,27
 219 -200 219 -200 254 -140 c 0,28,29
 266 -120 266 -120 275 -82 c 128,-1,30
 284 -44 284 -44 284 -22 c 0,31,32
 284 -2 284 -2 276.5 15 c 128,-1,33
 269 32 269 32 254 47 c 1,34,35
 239 40 239 40 225.5 28 c 128,-1,36
 212 16 212 16 196 7 c 0,37,38
 153 2 153 2 111 -0.5 c 128,-1,39
 69 -3 69 -3 24 4 c 1,40,41
 50 36 50 36 98 90.5 c 128,-1,42
 146 145 146 145 192.5 205.5 c 128,-1,43
 239 266 239 266 274 324.5 c 128,-1,44
 309 383 309 383 309 425 c 0,45,46
 309 440 309 440 297 448 c 0,47,48
 285 457 285 457 272 463 c 0,49,50
 205 459 205 459 140 443 c 128,-1,51
 75 427 75 427 12 405 c 1,52,53
 17 452 17 452 38 491.5 c 0,54,55
 60 531 60 531 86 569 c 0,56,57
 98 576 98 576 127 581 c 128,-1,58
 156 586 156 586 189.5 590 c 128,-1,59
 223 594 223 594 254 596 c 128,-1,60
 285 598 285 598 301 598 c 0,0,1
EndSplineSet
EndChar

StartChar: adieresis
Encoding: 228 228 26
Width: 737
VWidth: 1791
Flags: W
LayerCount: 2
Fore
SplineSet
325 913 m 0,0,1
 366 913 366 913 397.5 883 c 128,-1,2
 429 853 429 853 429 811 c 0,3,4
 429 772 429 772 400.5 733.5 c 128,-1,5
 372 695 372 695 328 695 c 0,6,7
 278 695 278 695 250 723 c 0,8,9
 222 750 222 750 221 801 c 0,10,11
 221 849 221 849 249 881 c 128,-1,12
 277 913 277 913 325 913 c 0,0,1
609 920 m 0,13,14
 657 920 657 920 689 883 c 128,-1,15
 721 846 721 846 721 799 c 0,16,17
 721 756 721 756 692 727 c 128,-1,18
 663 698 663 698 620 698 c 0,19,20
 598 698 598 698 577 706 c 128,-1,21
 556 714 556 714 539 728 c 128,-1,22
 522 742 522 742 512.5 762.5 c 128,-1,23
 503 783 503 783 508 806 c 0,24,25
 505 811 505 811 506 824 c 0,26,27
 506 863 506 863 538.5 891.5 c 128,-1,28
 571 920 571 920 609 920 c 0,13,14
632 539 m 1,29,30
 627 496 627 496 606 458 c 128,-1,31
 585 420 585 420 565 383 c 1,32,33
 556 386 556 386 548.5 385.5 c 128,-1,34
 541 385 541 385 531 385 c 0,35,36
 465 385 465 385 403.5 366 c 128,-1,37
 342 347 342 347 289.5 313.5 c 128,-1,38
 237 280 237 280 194 231 c 0,39,40
 151 181 151 181 125 122 c 0,41,42
 122 110 122 110 122 105 c 0,43,44
 122 96 122 96 129 91 c 128,-1,45
 136 86 136 86 147 83.5 c 128,-1,46
 158 81 158 81 169 79.5 c 128,-1,47
 180 78 180 78 188 78 c 0,48,49
 223 78 223 78 248.5 92 c 128,-1,50
 274 106 274 106 288 138 c 0,51,52
 308 181 308 181 324 225.5 c 128,-1,53
 340 270 340 270 356 316 c 1,54,55
 399 316 399 316 440 320 c 0,56,57
 479 324 479 324 520 331 c 1,58,59
 504 272 504 272 474.5 208 c 128,-1,60
 445 144 445 144 433 83 c 1,61,-1
 600 83 l 1,62,63
 588 49 588 49 575 11 c 128,-1,64
 562 -27 562 -27 541 -55 c 1,65,66
 513 -59 513 -59 486 -62 c 128,-1,67
 459 -65 459 -65 432 -65 c 0,68,69
 398 -65 398 -65 365 -55 c 0,70,71
 331 -46 331 -46 310 -18 c 1,72,73
 267 -44 267 -44 220 -53 c 128,-1,74
 173 -62 173 -62 125 -62 c 0,75,76
 93 -62 93 -62 64 -56.5 c 128,-1,77
 35 -51 35 -51 14 -36 c 128,-1,78
 -7 -21 -7 -21 -19.5 3 c 128,-1,79
 -32 27 -32 27 -32 65 c 0,80,81
 -32 108 -32 108 -23 148 c 0,82,83
 -18 168 -18 168 -1.5 200.5 c 128,-1,84
 15 233 15 233 37 267.5 c 128,-1,85
 59 302 59 302 81.5 332 c 128,-1,86
 104 362 104 362 120 375 c 0,87,88
 168 419 168 419 230 449.5 c 128,-1,89
 292 480 292 480 360.5 499 c 128,-1,90
 429 518 429 518 499 526.5 c 128,-1,91
 569 535 569 535 632 539 c 1,29,30
EndSplineSet
EndChar

StartChar: odieresis
Encoding: 246 246 27
Width: 636
VWidth: 1791
Flags: W
LayerCount: 2
Fore
SplineSet
324 894 m 256,0,1
 374 894 374 894 403 862 c 128,-1,2
 432 830 432 830 432 781 c 0,3,4
 432 730 432 730 399 702.5 c 128,-1,5
 366 675 366 675 316 675 c 0,6,7
 268 675 268 675 243 706 c 128,-1,8
 218 737 218 737 218 785 c 256,9,10
 218 833 218 833 246 863.5 c 128,-1,11
 274 894 274 894 324 894 c 256,0,1
612 894 m 0,12,13
 662 894 662 894 691 860 c 128,-1,14
 720 826 720 826 720 777 c 256,15,16
 720 729 720 729 689 702 c 128,-1,17
 658 675 658 675 609 675 c 0,18,19
 565 675 565 675 535.5 708.5 c 128,-1,20
 506 742 506 742 506 787 c 0,21,22
 506 830 506 830 538 862 c 128,-1,23
 570 894 570 894 612 894 c 0,12,13
340 547 m 0,24,25
 388 547 388 547 432 522 c 128,-1,26
 476 497 476 497 502 456 c 0,27,28
 511 440 511 440 519 421.5 c 128,-1,29
 527 403 527 403 539 390 c 1,30,31
 561 385 561 385 583.5 386 c 128,-1,32
 606 387 606 387 628 382 c 1,33,34
 601 316 601 316 590 255 c 1,35,36
 566 250 566 250 551 246 c 128,-1,37
 536 242 536 242 524 219 c 0,38,39
 502 165 502 165 471.5 113 c 128,-1,40
 441 61 441 61 400 20 c 128,-1,41
 359 -21 359 -21 307 -45 c 128,-1,42
 255 -69 255 -69 190 -69 c 0,43,44
 85 -69 85 -69 26.5 -9 c 128,-1,45
 -32 51 -32 51 -32 157 c 0,46,47
 -32 226 -32 226 -0.5 295.5 c 128,-1,48
 31 365 31 365 83 420.5 c 128,-1,49
 135 476 135 476 202.5 511.5 c 128,-1,50
 270 547 270 547 340 547 c 0,24,25
113 179 m 0,51,52
 113 140 113 140 135.5 108.5 c 128,-1,53
 158 77 158 77 202 77 c 0,54,55
 241 77 241 77 267 92.5 c 128,-1,56
 293 108 293 108 313 130.5 c 128,-1,57
 333 153 333 153 346.5 183 c 128,-1,58
 360 213 360 213 375 242 c 1,59,60
 341 276 341 276 328.5 289 c 128,-1,61
 316 302 316 302 310.5 314.5 c 128,-1,62
 305 327 305 327 303.5 345.5 c 128,-1,63
 302 364 302 364 293 406 c 1,64,65
 261 401 261 401 230 375.5 c 128,-1,66
 199 350 199 350 173.5 317.5 c 128,-1,67
 148 285 148 285 130.5 248 c 128,-1,68
 113 211 113 211 113 179 c 0,51,52
EndSplineSet
EndChar

StartChar: udieresis
Encoding: 252 252 28
Width: 711
VWidth: 1791
Flags: W
LayerCount: 2
Fore
SplineSet
584 910 m 0,0,1
 631 910 631 910 664 872.5 c 128,-1,2
 697 835 697 835 697 791 c 256,3,4
 697 747 697 747 660 715 c 128,-1,5
 623 683 623 683 580 683 c 256,6,7
 537 683 537 683 508.5 720.5 c 128,-1,8
 480 758 480 758 480 799 c 0,9,10
 480 818 480 818 488 837.5 c 128,-1,11
 496 857 496 857 511 873 c 128,-1,12
 526 889 526 889 545 899.5 c 128,-1,13
 564 910 564 910 584 910 c 0,0,1
312 895 m 0,14,15
 355 895 355 895 382 864.5 c 128,-1,16
 409 834 409 834 409 791 c 0,17,18
 409 735 409 735 377.5 708.5 c 128,-1,19
 346 682 346 682 292 682 c 0,20,21
 254 682 254 682 225 711 c 128,-1,22
 196 740 196 740 196 777 c 0,23,24
 196 836 196 836 227 865.5 c 128,-1,25
 258 895 258 895 312 895 c 0,14,15
130 500 m 1,26,27
 174 512 174 512 218 521.5 c 128,-1,28
 262 531 262 531 309 535 c 1,29,30
 289 476 289 476 263.5 418 c 128,-1,31
 238 360 238 360 214 303.5 c 128,-1,32
 190 247 190 247 169 188.5 c 128,-1,33
 148 130 148 130 136 69 c 1,34,35
 156 72 156 72 180.5 81.5 c 128,-1,36
 205 91 205 91 227 105.5 c 128,-1,37
 249 120 249 120 268.5 137.5 c 128,-1,38
 288 155 288 155 300 171 c 0,39,40
 315 193 315 193 323.5 224 c 128,-1,41
 332 255 332 255 342 281 c 0,42,43
 364 339 364 339 387 395.5 c 128,-1,44
 410 452 410 452 442 506 c 1,45,46
 486 522 486 522 533.5 526 c 128,-1,47
 581 530 581 530 628 535 c 1,48,49
 604 442 604 442 559.5 367 c 128,-1,50
 515 292 515 292 472 208 c 0,51,52
 465 193 465 193 460 175 c 128,-1,53
 455 157 455 157 455 141 c 0,54,55
 455 106 455 106 477 89 c 1,56,-1
 616 85 l 1,57,58
 611 51 611 51 600 14 c 128,-1,59
 589 -23 589 -23 566 -51 c 1,60,61
 519 -63 519 -63 472.5 -62 c 128,-1,62
 426 -61 426 -61 382 -51 c 0,63,64
 354 -46 354 -46 337 -20.5 c 0,65,66
 320 4 320 4 300 22 c 1,67,68
 249 -10 249 -10 198.5 -41.5 c 128,-1,69
 148 -73 148 -73 85 -73 c 0,70,71
 42 -73 42 -73 5 -47.5 c 128,-1,72
 -32 -22 -32 -22 -32 26 c 0,73,74
 -32 61 -32 61 -11.5 125.5 c 128,-1,75
 9 190 9 190 35.5 259 c 128,-1,76
 62 328 62 328 88.5 394.5 c 128,-1,77
 115 461 115 461 130 500 c 1,26,27
EndSplineSet
EndChar

StartChar: germandbls
Encoding: 223 223 30
Width: 726
VWidth: 1811
Flags: W
LayerCount: 2
Fore
SplineSet
722 1175 m 0,0,1
 795 1175 795 1175 847.5 1149 c 128,-1,2
 900 1123 900 1123 931 1053 c 0,3,4
 944 1024 944 1024 950.5 997.5 c 128,-1,5
 957 971 957 971 957 939 c 0,6,7
 957 869 957 869 926 801.5 c 128,-1,8
 895 734 895 734 846.5 673.5 c 128,-1,9
 798 613 798 613 740.5 561 c 128,-1,10
 683 509 683 509 631 468 c 1,11,12
 651 418 651 418 665 365 c 128,-1,13
 679 312 679 312 679 258 c 0,14,15
 679 195 679 195 661 141 c 0,16,17
 629 55 629 55 585.5 16.5 c 128,-1,18
 542 -22 542 -22 487 -36.5 c 128,-1,19
 432 -51 432 -51 367 -52.5 c 128,-1,20
 302 -54 302 -54 230 -59 c 1,21,22
 235 -16 235 -16 254 21.5 c 128,-1,23
 273 59 273 59 289 97 c 1,24,25
 309 97 309 97 332 95.5 c 128,-1,26
 355 94 355 94 374 94 c 0,27,28
 396 94 396 94 418 97.5 c 128,-1,29
 440 101 440 101 460 112 c 0,30,31
 472 125 472 125 481.5 144.5 c 128,-1,32
 491 164 491 164 499.5 186 c 128,-1,33
 508 208 508 208 513.5 229 c 128,-1,34
 519 250 519 250 519 268 c 0,35,36
 519 327 519 327 484 377 c 128,-1,37
 449 427 449 427 409 468 c 1,38,39
 453 503 453 503 519.5 558 c 128,-1,40
 586 613 586 613 649.5 677 c 128,-1,41
 713 741 713 741 757 808 c 128,-1,42
 801 875 801 875 801 936 c 0,43,44
 801 987 801 987 767 1018 c 0,45,46
 750 1025 750 1025 724 1025 c 0,47,48
 666 1025 666 1025 612 978 c 128,-1,49
 558 931 558 931 513.5 863.5 c 128,-1,50
 469 796 469 796 434 726 c 0,51,52
 398 655 398 655 380 609 c 0,53,54
 304 434 304 434 237.5 260 c 128,-1,55
 171 86 171 86 96 -89 c 0,56,57
 46 -209 46 -209 -5 -328 c 128,-1,58
 -56 -447 -56 -447 -112 -564 c 1,59,-1
 -141 -564 l 1,60,61
 -173 -584 -173 -584 -209.5 -591.5 c 128,-1,62
 -246 -599 -246 -599 -284 -608 c 1,63,64
 -284 -589 -284 -589 -268 -544.5 c 128,-1,65
 -252 -500 -252 -500 -232 -449.5 c 128,-1,66
 -212 -399 -212 -399 -192.5 -351.5 c 128,-1,67
 -173 -304 -173 -304 -164 -282 c 0,68,69
 -101 -124 -101 -124 -34.5 31.5 c 128,-1,70
 32 187 32 187 98 346 c 0,71,72
 120 402 120 402 145.5 455.5 c 128,-1,73
 171 509 171 509 193 565 c 0,74,75
 222 639 222 639 255.5 715 c 128,-1,76
 289 791 289 791 330 862 c 128,-1,77
 371 933 371 933 423 995.5 c 128,-1,78
 475 1058 475 1058 544 1107 c 0,79,80
 586 1136 586 1136 627 1155.5 c 128,-1,81
 668 1175 668 1175 722 1175 c 0,0,1
EndSplineSet
EndChar

StartChar: t_z
Encoding: 57914 57914 31
AltUni2: 00eedc.ffffffff.0
Width: 748
VWidth: 1841
Flags: W
LayerCount: 2
Fore
SplineSet
418 784 m 1,0,1
 396 725 396 725 367.5 667 c 128,-1,2
 339 609 339 609 320 546 c 1,3,4
 368 546 368 546 414 550 c 128,-1,5
 460 554 460 554 507 554 c 0,6,7
 546 554 546 554 586.5 550 c 128,-1,8
 627 546 627 546 660 530.5 c 128,-1,9
 693 515 693 515 713 485 c 128,-1,10
 733 455 733 455 733 406 c 0,11,12
 733 372 733 372 721 338.5 c 128,-1,13
 709 305 709 305 692 271.5 c 128,-1,14
 675 238 675 238 657 205.5 c 128,-1,15
 639 173 639 173 625 145 c 1,16,17
 641 125 641 125 658 107.5 c 128,-1,18
 675 90 675 90 687 70 c 128,-1,19
 699 50 699 50 707.5 27.5 c 128,-1,20
 716 5 716 5 716 -23 c 0,21,22
 716 -96 716 -96 681 -175 c 128,-1,23
 646 -254 646 -254 595 -328.5 c 128,-1,24
 544 -403 544 -403 483 -469.5 c 128,-1,25
 422 -536 422 -536 374 -582 c 1,26,27
 320 -595 320 -595 256 -596 c 0,28,29
 213 -596 213 -596 172 -590 c 1,30,31
 198 -542 198 -542 238 -508.5 c 128,-1,32
 278 -475 278 -475 313 -434 c 0,33,34
 341 -400 341 -400 383 -352 c 128,-1,35
 425 -304 425 -304 462.5 -250 c 128,-1,36
 500 -196 500 -196 527 -142.5 c 128,-1,37
 554 -89 554 -89 554 -44 c 0,38,39
 554 -9 554 -9 536 19 c 1,40,41
 510 -1 510 -1 489.5 -11 c 128,-1,42
 469 -21 469 -21 449.5 -25 c 128,-1,43
 430 -29 430 -29 406.5 -29 c 128,-1,44
 383 -29 383 -29 352 -29 c 0,45,46
 340 -29 340 -29 328.5 -28 c 128,-1,47
 317 -27 317 -27 305 -26 c 1,48,49
 333 21 333 21 374.5 68.5 c 128,-1,50
 416 116 416 116 455.5 166 c 128,-1,51
 495 216 495 216 526 269 c 128,-1,52
 557 322 557 322 566 375 c 1,53,54
 544 390 544 390 514 396.5 c 128,-1,55
 484 403 484 403 451 405 c 128,-1,56
 418 407 418 407 386.5 406.5 c 0,57,58
 354 406 354 406 328 406 c 0,59,60
 304 406 304 406 286.5 401.5 c 128,-1,61
 269 397 269 397 254 375 c 0,62,63
 220 321 220 321 194 260 c 0,64,65
 169 199 169 199 158 138 c 1,66,67
 199 133 199 133 239.5 134 c 128,-1,68
 280 135 280 135 320 122 c 1,69,70
 305 87 305 87 291.5 52.5 c 128,-1,71
 278 18 278 18 261 -18 c 1,72,73
 205 -23 205 -23 149 -23 c 0,74,75
 115 -23 115 -23 83 -23 c 128,-1,76
 51 -23 51 -23 24 -13.5 c 128,-1,77
 -3 -4 -3 -4 -18.5 17 c 128,-1,78
 -34 38 -34 38 -34 82 c 0,79,80
 -34 116 -34 116 -21 160.5 c 128,-1,81
 -8 205 -8 205 9.5 250.5 c 128,-1,82
 27 296 27 296 46 337 c 128,-1,83
 65 378 65 378 76 406 c 1,84,-1
 -21 406 l 1,85,86
 -16 425 -16 425 -7.5 450.5 c 128,-1,87
 1 476 1 476 13.5 498 c 128,-1,88
 26 520 26 520 43.5 536.5 c 128,-1,89
 61 553 61 553 86 553 c 0,90,91
 102 553 102 553 118.5 549.5 c 128,-1,92
 135 546 135 546 149 546 c 1,93,94
 153 558 153 558 168.5 593 c 128,-1,95
 184 628 184 628 200 666.5 c 128,-1,96
 216 705 216 705 232 735 c 0,97,98
 248 766 248 766 256 770 c 0,99,100
 294 783 294 783 337 783.5 c 128,-1,101
 380 784 380 784 418 784 c 1,0,1
EndSplineSet
EndChar

StartChar: ampersand
Encoding: 38 38 32
Width: 885
VWidth: 1787
Flags: W
LayerCount: 2
Fore
SplineSet
566 978 m 0,0,1
 645 978 645 978 696.5 923 c 128,-1,2
 748 868 748 868 748 791 c 0,3,4
 748 740 748 740 719 693 c 128,-1,5
 690 646 690 646 647.5 606 c 128,-1,6
 605 566 605 566 557.5 531.5 c 128,-1,7
 510 497 510 497 475 469 c 1,8,9
 480 460 480 460 491.5 436 c 128,-1,10
 503 412 503 412 516 385.5 c 128,-1,11
 529 359 529 359 541.5 339.5 c 128,-1,12
 554 320 554 320 564 320 c 0,13,14
 576 320 576 320 602 341 c 128,-1,15
 628 362 628 362 659 389 c 128,-1,16
 690 416 690 416 717.5 442 c 128,-1,17
 745 468 745 468 757 476 c 1,18,19
 772 438 772 438 785 401.5 c 128,-1,20
 798 365 798 365 816 328 c 1,21,22
 769 293 769 293 723.5 257.5 c 128,-1,23
 678 222 678 222 631 187 c 1,24,25
 647 159 647 159 660.5 129 c 128,-1,26
 674 99 674 99 698 76 c 0,27,28
 711 63 711 63 712.5 65.5 c 128,-1,29
 714 68 714 68 728 61 c 1,30,31
 763 61 763 61 798 64.5 c 0,32,33
 832 68 832 68 868 68 c 1,34,35
 861 52 861 52 854.5 28 c 128,-1,36
 848 4 848 4 837.5 -18.5 c 128,-1,37
 827 -41 827 -41 811.5 -57 c 128,-1,38
 796 -73 796 -73 772 -73 c 2,39,-1
 593 -73 l 1,40,41
 571 -32 571 -32 547 7 c 0,42,43
 522 46 522 46 497 83 c 1,44,45
 456 57 456 57 419.5 28.5 c 128,-1,46
 383 0 383 0 345.5 -25 c 128,-1,47
 308 -50 308 -50 266.5 -65.5 c 128,-1,48
 225 -81 225 -81 172 -81 c 0,49,50
 125 -81 125 -81 85.5 -63.5 c 128,-1,51
 46 -46 46 -46 17 -16 c 128,-1,52
 -12 14 -12 14 -27.5 54 c 128,-1,53
 -43 94 -43 94 -43 140 c 0,54,55
 -43 203 -43 203 -10.5 256.5 c 128,-1,56
 22 310 22 310 69 354.5 c 128,-1,57
 116 399 116 399 172.5 434 c 128,-1,58
 229 469 229 469 274 499 c 1,59,60
 265 542 265 542 245 583.5 c 128,-1,61
 225 625 225 625 225 671 c 0,62,63
 225 732 225 732 255.5 787 c 128,-1,64
 286 842 286 842 336.5 885 c 128,-1,65
 387 928 387 928 447.5 953 c 128,-1,66
 508 978 508 978 566 978 c 0,0,1
382 693 m 0,67,68
 382 673 382 673 391 652 c 128,-1,69
 400 631 400 631 410 611 c 1,70,71
 426 623 426 623 460 644.5 c 128,-1,72
 494 666 494 666 527.5 691 c 128,-1,73
 561 716 561 716 584.5 743 c 128,-1,74
 608 770 608 770 608 792 c 0,75,76
 608 804 608 804 597 818.5 c 128,-1,77
 586 833 586 833 573 833 c 0,78,79
 547 833 547 833 514.5 822 c 128,-1,80
 482 811 482 811 452 791.5 c 128,-1,81
 422 772 422 772 402 746.5 c 128,-1,82
 382 721 382 721 382 693 c 0,67,68
103 114 m 1,83,84
 119 105 119 105 137.5 91 c 128,-1,85
 156 77 156 77 176 77 c 0,86,87
 202 77 202 77 237.5 94.5 c 128,-1,88
 273 112 273 112 309.5 135.5 c 128,-1,89
 346 159 346 159 378 183 c 128,-1,90
 410 207 410 207 430 225 c 1,91,92
 408 257 408 257 387.5 290 c 128,-1,93
 367 323 367 323 348 358 c 1,94,95
 309 339 309 339 267.5 318 c 128,-1,96
 226 297 226 297 189.5 267.5 c 128,-1,97
 153 238 153 238 129.5 201 c 128,-1,98
 106 164 106 164 103 114 c 1,83,84
EndSplineSet
EndChar

StartChar: period
Encoding: 46 46 33
Width: 282
VWidth: 1835
Flags: W
LayerCount: 2
Fore
SplineSet
136 261 m 0,0,1
 190 261 190 261 228 218.5 c 128,-1,2
 266 176 266 176 266 125 c 0,3,4
 266 99 266 99 252.5 73 c 128,-1,5
 239 47 239 47 218.5 26 c 128,-1,6
 198 5 198 5 171.5 -8 c 0,7,8
 146 -21 146 -21 122 -21 c 0,9,10
 93 -21 93 -21 70 -6.5 c 128,-1,11
 47 8 47 8 31 31.5 c 128,-1,12
 15 55 15 55 7 83.5 c 128,-1,13
 -1 112 -1 112 -1 138 c 0,14,15
 -1 194 -1 194 42 227.5 c 128,-1,16
 85 261 85 261 136 261 c 0,0,1
EndSplineSet
EndChar

StartChar: comma
Encoding: 44 44 34
Width: 318
VWidth: 1848
Flags: W
LayerCount: 2
Fore
SplineSet
152 263 m 0,0,1
 218 263 218 263 261 228.5 c 128,-1,2
 304 194 304 194 304 125 c 0,3,4
 304 93 304 93 290 56.5 c 128,-1,5
 276 20 276 20 255.5 -17.5 c 128,-1,6
 235 -55 235 -55 211 -88 c 0,7,8
 187 -120 187 -120 167 -146 c 0,9,10
 152 -165 152 -165 132 -170.5 c 128,-1,11
 112 -176 112 -176 89 -176 c 0,12,13
 74 -176 74 -176 58 -176 c 128,-1,14
 42 -176 42 -176 28 -172 c 128,-1,15
 14 -168 14 -168 5 -158.5 c 128,-1,16
 -4 -149 -4 -149 -4 -131 c 1,17,18
 18 -96 18 -96 47 -66 c 128,-1,19
 76 -36 76 -36 93 3 c 1,20,21
 84 25 84 25 74.5 37.5 c 128,-1,22
 65 50 65 50 56.5 62 c 128,-1,23
 48 74 48 74 43.5 89.5 c 128,-1,24
 39 105 39 105 39 137 c 0,25,26
 39 157 39 157 49 179.5 c 128,-1,27
 59 202 59 202 75 220 c 128,-1,28
 91 238 91 238 111.5 250.5 c 128,-1,29
 132 263 132 263 152 263 c 0,0,1
EndSplineSet
EndChar

StartChar: colon
Encoding: 58 58 35
Width: 406
VWidth: 1815
Flags: W
LayerCount: 2
Fore
SplineSet
255 553 m 0,0,1
 331 553 331 553 360 506 c 0,2,3
 390 461 390 461 391 392 c 0,4,5
 391 342 391 342 353 311 c 128,-1,6
 315 280 315 280 266 280 c 0,7,8
 200 280 200 280 164 315.5 c 128,-1,9
 128 351 128 351 128 417 c 0,10,11
 128 473 128 473 162.5 513 c 128,-1,12
 197 553 197 553 255 553 c 0,0,1
114 239 m 0,13,14
 180 239 180 239 221.5 198 c 128,-1,15
 263 157 263 157 263 91 c 256,16,17
 263 25 263 25 219.5 -7.5 c 128,-1,18
 176 -40 176 -40 116 -40 c 0,19,20
 65 -40 65 -40 27 1.5 c 128,-1,21
 -11 43 -11 43 -11 94 c 0,22,23
 -11 118 -11 118 -1.5 145 c 128,-1,24
 8 172 8 172 25 192 c 128,-1,25
 42 212 42 212 64 225.5 c 128,-1,26
 86 239 86 239 114 239 c 0,13,14
EndSplineSet
EndChar

StartChar: semicolon
Encoding: 59 59 36
Width: 469
VWidth: 1827
Flags: W
LayerCount: 2
Fore
SplineSet
310 549 m 0,0,1
 338 549 338 549 364.5 536 c 128,-1,2
 391 523 391 523 410 502.5 c 128,-1,3
 429 482 429 482 441.5 455 c 128,-1,4
 454 428 454 428 454 400 c 0,5,6
 454 341 454 341 408 306 c 0,7,8
 362 271 362 271 310 272 c 0,9,10
 256 272 256 272 216 312 c 128,-1,11
 176 352 176 352 176 406 c 0,12,13
 176 464 176 464 213.5 506.5 c 128,-1,14
 251 549 251 549 310 549 c 0,0,1
38 96 m 0,15,16
 38 124 38 124 48 150 c 128,-1,17
 58 176 58 176 76 197 c 128,-1,18
 94 218 94 218 119.5 231.5 c 128,-1,19
 145 245 145 245 173 245 c 0,20,21
 227 245 227 245 267 204 c 128,-1,22
 307 163 307 163 307 109 c 0,23,24
 307 71 307 71 292 37 c 128,-1,25
 277 3 277 3 255 -31 c 128,-1,26
 233 -65 233 -65 208 -95 c 128,-1,27
 183 -125 183 -125 164 -153 c 0,28,29
 142 -187 142 -187 94 -187 c 0,30,31
 66 -187 66 -187 40 -179.5 c 128,-1,32
 14 -172 14 -172 -14 -168 c 1,33,34
 10 -127 10 -127 41.5 -94 c 128,-1,35
 73 -61 73 -61 97 -20 c 1,36,37
 82 6 82 6 60 35 c 128,-1,38
 38 64 38 64 38 96 c 0,15,16
EndSplineSet
EndChar

StartChar: exclam
Encoding: 33 33 37
Width: 435
VWidth: 1778
Flags: W
LayerCount: 2
Fore
SplineSet
635 1109 m 1,0,1
 601 1036 601 1036 575 961 c 0,2,3
 550 886 550 886 518 812 c 0,4,5
 492 753 492 753 467 695 c 0,6,7
 442 636 442 636 417 580 c 0,8,9
 405 556 405 556 390 533 c 0,10,11
 375 511 375 511 366 486 c 0,12,13
 359 470 359 470 354.5 452 c 128,-1,14
 350 434 350 434 343 417 c 0,15,16
 328 378 328 378 310 340 c 0,17,18
 292 301 292 301 277 263 c 1,19,-1
 99 241 l 1,20,21
 131 327 131 327 172 409 c 128,-1,22
 213 491 213 491 249 574 c 0,23,24
 287 660 287 660 324.5 745.5 c 128,-1,25
 362 831 362 831 398 916 c 0,26,27
 403 931 403 931 411.5 955 c 128,-1,28
 420 979 420 979 429.5 1004.5 c 128,-1,29
 439 1030 439 1030 449.5 1051.5 c 128,-1,30
 460 1073 460 1073 472 1080 c 128,-1,31
 484 1087 484 1087 505.5 1091.5 c 128,-1,32
 527 1096 527 1096 550.5 1099 c 128,-1,33
 574 1102 574 1102 597 1104 c 128,-1,34
 620 1106 620 1106 635 1109 c 1,0,1
88 182 m 0,35,36
 112 182 112 182 137.5 172.5 c 128,-1,37
 163 163 163 163 183 146 c 128,-1,38
 203 129 203 129 215 107 c 0,39,40
 227 84 227 84 227 58 c 0,41,42
 227 4 227 4 193 -39.5 c 128,-1,43
 159 -83 159 -83 101 -83 c 0,44,45
 42 -80 42 -80 7 -42 c 0,46,47
 -27 -5 -27 -5 -27 52 c 0,48,49
 -27 102 -27 102 3.5 143.5 c 128,-1,50
 34 185 34 185 88 182 c 0,35,36
EndSplineSet
EndChar

StartChar: question
Encoding: 63 63 38
Width: 522
VWidth: 1772
Flags: W
LayerCount: 2
Fore
SplineSet
627 1159 m 2,0,1
 671 1159 671 1159 706 1140.5 c 128,-1,2
 741 1122 741 1122 764.5 1093.5 c 128,-1,3
 788 1065 788 1065 801 1026.5 c 128,-1,4
 814 988 814 988 814 948 c 0,5,6
 814 905 814 905 787 860 c 128,-1,7
 760 815 760 815 722 775.5 c 128,-1,8
 684 736 684 736 642.5 701.5 c 128,-1,9
 601 667 601 667 570 644 c 0,10,11
 523 609 523 609 475 572 c 128,-1,12
 427 535 427 535 383 493.5 c 128,-1,13
 339 452 339 452 302 404 c 128,-1,14
 265 356 265 356 241 303 c 0,15,16
 232 291 232 291 219.5 278.5 c 128,-1,17
 207 266 207 266 188 274 c 1,18,19
 162 265 162 265 135 257 c 128,-1,20
 108 249 108 249 79 249 c 0,21,22
 74 249 74 249 68 249 c 0,23,24
 62 250 62 250 55 252 c 0,25,26
 64 294 64 294 76.5 328.5 c 128,-1,27
 89 363 89 363 105.5 392.5 c 128,-1,28
 122 422 122 422 144 451 c 128,-1,29
 166 480 166 480 196 511 c 0,30,31
 244 561 244 561 293 607.5 c 128,-1,32
 342 654 342 654 395 698 c 0,33,34
 438 732 438 732 484 766 c 128,-1,35
 530 800 530 800 570 838 c 0,36,37
 577 845 577 845 587.5 857 c 128,-1,38
 598 869 598 869 607 882 c 128,-1,39
 616 895 616 895 622.5 909 c 128,-1,40
 629 923 629 923 629 935 c 0,41,42
 629 963 629 963 607.5 983 c 128,-1,43
 586 1003 586 1003 558 1003 c 0,44,45
 508 1003 508 1003 449 979 c 128,-1,46
 390 955 390 955 329.5 920.5 c 128,-1,47
 269 886 269 886 211 850.5 c 128,-1,48
 153 815 153 815 109 793 c 1,49,50
 121 841 121 841 127 890 c 128,-1,51
 133 939 133 939 146 986 c 1,52,53
 168 1015 168 1015 225 1046 c 128,-1,54
 282 1077 282 1077 349 1102.5 c 128,-1,55
 416 1128 416 1128 480.5 1142.5 c 128,-1,56
 545 1157 545 1157 584 1157 c 2,57,-1
 627 1159 l 2,0,1
81 193 m 0,58,59
 109 193 109 193 135 184.5 c 128,-1,60
 161 176 161 176 181.5 158 c 128,-1,61
 202 140 202 140 215.5 115.5 c 128,-1,62
 229 91 229 91 229 62 c 0,63,64
 229 36 229 36 216 11 c 128,-1,65
 203 -14 203 -14 184 -34 c 128,-1,66
 165 -54 165 -54 139.5 -65 c 128,-1,67
 114 -76 114 -76 89 -76 c 0,68,69
 31 -76 31 -76 -4.5 -40 c 128,-1,70
 -40 -4 -40 -4 -40 52 c 0,71,72
 -40 100 -40 100 -19 148 c 1,73,74
 -4 163 -4 163 28.5 178 c 128,-1,75
 61 193 61 193 81 193 c 0,58,59
EndSplineSet
EndChar

StartChar: quoteright
Encoding: 8217 8217 39
Width: 257
VWidth: 1712
Flags: W
LayerCount: 2
Fore
SplineSet
417 1127 m 0,0,1
 445 1127 445 1127 473.5 1126.5 c 128,-1,2
 502 1126 502 1126 525.5 1116.5 c 128,-1,3
 549 1107 549 1107 563.5 1087 c 0,4,5
 578 1066 578 1066 578 1030 c 0,6,7
 578 1014 578 1014 562 979.5 c 128,-1,8
 546 945 546 945 525 907.5 c 128,-1,9
 504 870 504 870 482 837 c 128,-1,10
 460 804 460 804 447 788 c 1,11,12
 408 788 408 788 369 788 c 128,-1,13
 330 788 330 788 290 781 c 0,14,15
 286 786 286 786 283 792 c 128,-1,16
 280 798 280 798 276 804 c 0,17,18
 330 877 330 877 372 952 c 1,19,20
 350 952 350 952 327.5 953.5 c 0,21,22
 306 955 306 955 284 959 c 1,23,24
 296 998 296 998 319.5 1032.5 c 128,-1,25
 343 1067 343 1067 365 1101 c 0,26,27
 374 1116 374 1116 387.5 1121.5 c 128,-1,28
 401 1127 401 1127 417 1127 c 0,0,1
EndSplineSet
EndChar

StartChar: parenleft
Encoding: 40 40 40
Width: 372
VWidth: 1800
Flags: W
LayerCount: 2
Fore
SplineSet
775 1338 m 0,0,1
 780 1341 780 1341 793 1339 c 0,2,3
 822 1339 822 1339 851.5 1327.5 c 128,-1,4
 881 1316 881 1316 908 1307 c 1,5,6
 857 1234 857 1234 801 1163.5 c 128,-1,7
 745 1093 745 1093 693 1019 c 0,8,9
 664 976 664 976 627 923 c 128,-1,10
 590 870 590 870 555 813.5 c 128,-1,11
 520 757 520 757 488 702 c 0,12,13
 456 648 456 648 433 603 c 0,14,15
 359 451 359 451 299 313 c 128,-1,16
 239 175 239 175 198.5 35.5 c 128,-1,17
 158 -104 158 -104 135.5 -252.5 c 128,-1,18
 113 -401 113 -401 113 -574 c 0,19,20
 113 -586 113 -586 109.5 -597 c 128,-1,21
 106 -608 106 -608 97 -616 c 1,22,23
 59 -611 59 -611 24 -602.5 c 128,-1,24
 -11 -594 -11 -594 -44 -578 c 1,25,26
 -47 -563 -47 -563 -46.5 -550 c 128,-1,27
 -46 -537 -46 -537 -46 -524 c 0,28,29
 -46 -319 -46 -319 2 -115 c 128,-1,30
 50 89 50 89 129 285.5 c 128,-1,31
 208 482 208 482 312.5 668 c 128,-1,32
 417 854 417 854 530 1019 c 0,33,34
 588 1102 588 1102 645 1183.5 c 128,-1,35
 702 1265 702 1265 775 1338 c 0,0,1
EndSplineSet
EndChar

StartChar: quotedblbase
Encoding: 8222 8222 41
Width: 733
VWidth: 1845
Flags: W
LayerCount: 2
Fore
SplineSet
138 226 m 1,0,-1
 391 223 l 1,1,2
 353 164 353 164 305.5 109.5 c 128,-1,3
 258 55 258 55 212 1 c 0,4,5
 203 -11 203 -11 189.5 -27.5 c 128,-1,6
 176 -44 176 -44 162 -60.5 c 128,-1,7
 148 -77 148 -77 132 -89.5 c 128,-1,8
 116 -102 116 -102 101 -102 c 0,9,10
 66 -102 66 -102 32.5 -98 c 128,-1,11
 -1 -94 -1 -94 -32 -79 c 1,12,-1
 56 32 l 2,13,14
 68 47 68 47 66.5 75.5 c 128,-1,15
 65 104 65 104 71 122 c 0,16,17
 80 148 80 148 101.5 174 c 128,-1,18
 123 200 123 200 138 226 c 1,0,-1
487 216 m 0,19,20
 545 221 545 221 602.5 219.5 c 128,-1,21
 660 218 660 218 717 223 c 1,22,23
 705 175 705 175 669.5 139.5 c 128,-1,24
 634 104 634 104 606 68 c 0,25,26
 574 25 574 25 544 -18 c 128,-1,27
 514 -61 514 -61 472 -96 c 1,28,29
 448 -101 448 -101 424.5 -106.5 c 128,-1,30
 401 -112 401 -112 378 -112 c 0,31,32
 337 -112 337 -112 309 -96 c 1,33,34
 314 -87 314 -87 330.5 -65.5 c 128,-1,35
 347 -44 347 -44 364.5 -20 c 128,-1,36
 382 4 382 4 396 25 c 0,37,38
 410 45 410 45 410 52 c 0,39,40
 410 61 410 61 406.5 71.5 c 128,-1,41
 403 82 403 82 403 91 c 0,42,43
 403 98 403 98 413.5 116.5 c 128,-1,44
 424 135 424 135 438 154 c 128,-1,45
 452 173 452 173 466 191 c 128,-1,46
 480 209 480 209 487 216 c 0,19,20
EndSplineSet
EndChar

StartChar: quotedblright
Encoding: 8221 8221 42
Width: 681
VWidth: 1710
Flags: W
LayerCount: 2
Fore
SplineSet
444 1128 m 1,0,1
 464 1131 464 1131 483.5 1131 c 128,-1,2
 503 1131 503 1131 523 1131 c 0,3,4
 562 1131 562 1131 602.5 1129.5 c 128,-1,5
 643 1128 643 1128 681 1128 c 1,6,7
 622 1046 622 1046 564 966 c 128,-1,8
 506 886 506 886 444 808 c 1,9,10
 401 796 401 796 358 796 c 0,11,12
 314 796 314 796 273 808 c 1,13,14
 289 847 289 847 315.5 881.5 c 128,-1,15
 342 916 342 916 370 949 c 1,16,17
 365 958 365 958 360 969 c 128,-1,18
 355 980 355 980 355 994 c 0,19,20
 374 1026 374 1026 394.5 1065 c 128,-1,21
 415 1104 415 1104 444 1128 c 1,0,1
793 1128 m 1,22,23
 812 1128 812 1128 830 1128.5 c 128,-1,24
 848 1129 848 1129 867 1129 c 0,25,26
 905 1129 905 1129 941.5 1127.5 c 128,-1,27
 978 1126 978 1126 1015 1126 c 1,28,29
 971 1052 971 1052 916 982.5 c 128,-1,30
 861 913 861 913 807 843 c 0,31,32
 791 821 791 821 767 813 c 128,-1,33
 743 805 743 805 716.5 802 c 128,-1,34
 690 799 690 799 664.5 799 c 128,-1,35
 639 799 639 799 614 793 c 1,36,37
 630 841 630 841 661.5 883 c 128,-1,38
 693 925 693 925 725 964 c 1,39,40
 716 969 716 969 707 974.5 c 128,-1,41
 698 980 698 980 689 986 c 1,42,43
 717 1020 717 1020 737.5 1059.5 c 128,-1,44
 758 1099 758 1099 793 1128 c 1,22,23
EndSplineSet
EndChar

StartChar: guillemotleft
Encoding: 171 171 43
Width: 720
VWidth: 1813
Flags: W
LayerCount: 2
Fore
SplineSet
302 551 m 1,0,-1
 383 469 l 1,1,2
 316 419 316 419 253.5 365.5 c 128,-1,3
 191 312 191 312 124 262 c 1,4,5
 148 230 148 230 180.5 206 c 128,-1,6
 213 182 213 182 244 157 c 128,-1,7
 275 132 275 132 302.5 104 c 128,-1,8
 330 76 330 76 347 39 c 1,9,10
 331 26 331 26 309.5 14.5 c 128,-1,11
 288 3 288 3 266 3 c 0,12,13
 247 3 247 3 229 16 c 0,14,15
 163 74 163 74 101 133.5 c 0,16,17
 38 193 38 193 -32 247 c 1,18,19
 -27 276 -27 276 4 300.5 c 128,-1,20
 35 325 35 325 58 344 c 0,21,22
 124 395 124 395 181.5 447.5 c 128,-1,23
 239 500 239 500 302 551 c 1,0,-1
273 276 m 1,24,25
 362 337 362 337 448 403 c 0,26,27
 534 468 534 468 614 544 c 1,28,29
 634 529 634 529 658.5 514.5 c 128,-1,30
 683 500 683 500 703 484 c 1,31,32
 644 418 644 418 577 365.5 c 128,-1,33
 510 313 510 313 436 269 c 1,34,35
 486 213 486 213 547 167.5 c 128,-1,36
 608 122 608 122 652 61 c 1,37,38
 637 41 637 41 617.5 20.5 c 128,-1,39
 598 0 598 0 570 -5 c 1,40,41
 544 7 544 7 522 31.5 c 128,-1,42
 500 56 500 56 481 76 c 0,43,44
 433 130 433 130 382.5 171.5 c 128,-1,45
 332 213 332 213 273 254 c 1,46,-1
 273 276 l 1,24,25
EndSplineSet
EndChar

StartChar: guillemotright
Encoding: 187 187 44
Width: 725
VWidth: 1814
Flags: W
LayerCount: 2
Fore
SplineSet
11 472 m 1,0,1
 53 515 53 515 108 546 c 1,2,3
 175 468 175 468 251 400 c 0,4,5
 326 332 326 332 403 265 c 1,6,7
 365 241 365 241 319 205 c 128,-1,8
 273 169 273 169 224 131.5 c 128,-1,9
 175 94 175 94 130 56.5 c 128,-1,10
 85 19 85 19 55 -11 c 0,11,12
 50 -8 50 -8 35 0 c 128,-1,13
 20 8 20 8 5.5 17.5 c 128,-1,14
 -9 27 -9 27 -20 36 c 0,15,16
 -32 45 -32 45 -32 52 c 0,17,18
 -32 61 -32 61 -27.5 69.5 c 128,-1,19
 -23 78 -23 78 -19 86 c 0,20,21
 39 136 39 136 102 178 c 128,-1,22
 165 220 165 220 226 265 c 1,23,24
 170 315 170 315 115.5 365.5 c 128,-1,25
 61 416 61 416 11 472 c 1,0,1
323 464 m 1,26,27
 326 479 326 479 336 489.5 c 128,-1,28
 346 500 346 500 357.5 507.5 c 128,-1,29
 369 515 369 515 382 522 c 0,30,31
 394 530 394 530 403 539 c 1,32,33
 444 504 444 504 481.5 466 c 128,-1,34
 519 428 519 428 561 391 c 0,35,36
 599 357 599 357 638.5 327 c 128,-1,37
 678 297 678 297 709 257 c 1,38,39
 662 229 662 229 621 196.5 c 128,-1,40
 580 164 580 164 538 131 c 256,41,42
 495 97 495 97 458 57.5 c 128,-1,43
 421 18 421 18 374 -11 c 1,44,45
 346 -11 346 -11 322.5 10.5 c 128,-1,46
 299 32 299 32 278 50 c 1,47,48
 334 117 334 117 403 165.5 c 128,-1,49
 472 214 472 214 538 272 c 1,50,51
 487 323 487 323 429 366.5 c 128,-1,52
 371 410 371 410 323 464 c 1,26,27
EndSplineSet
EndChar

StartChar: quoteleft
Encoding: 8216 8216 45
Width: 257
VWidth: 1712
Flags: W
LayerCount: 2
Fore
SplineSet
437 783 m 0,0,1
 409 783 409 783 380.5 784 c 128,-1,2
 352 785 352 785 328.5 794.5 c 128,-1,3
 305 804 305 804 290.5 823 c 128,-1,4
 276 842 276 842 276 880 c 0,5,6
 276 896 276 896 292 930.5 c 128,-1,7
 308 965 308 965 329 1002 c 128,-1,8
 350 1039 350 1039 372 1073 c 0,9,10
 394 1106 394 1106 407 1120 c 1,11,12
 446 1120 446 1120 485 1121.5 c 128,-1,13
 524 1123 524 1123 564 1129 c 0,14,15
 568 1124 568 1124 571 1118 c 128,-1,16
 574 1112 574 1112 578 1107 c 0,17,18
 524 1034 524 1034 482 958 c 1,19,20
 504 958 504 958 526.5 957 c 128,-1,21
 549 956 549 956 571 950 c 1,22,23
 559 911 559 911 535 876.5 c 128,-1,24
 511 842 511 842 489 810 c 0,25,26
 480 795 480 795 466.5 789 c 128,-1,27
 453 783 453 783 437 783 c 0,0,1
EndSplineSet
EndChar

StartChar: quotedblleft
Encoding: 8220 8220 46
Width: 681
VWidth: 1710
Flags: W
LayerCount: 2
Fore
SplineSet
845 796 m 1,0,1
 825 793 825 793 805 793 c 128,-1,2
 785 793 785 793 765 793 c 0,3,4
 726 793 726 793 686 794.5 c 128,-1,5
 646 796 646 796 608 796 c 1,6,7
 667 878 667 878 725.5 958.5 c 128,-1,8
 784 1039 784 1039 845 1116 c 1,9,10
 887 1128 887 1128 931 1128 c 0,11,12
 974 1128 974 1128 1015 1116 c 1,13,14
 999 1077 999 1077 973 1043 c 128,-1,15
 947 1009 947 1009 918 976 c 1,16,17
 923 967 923 967 928 955.5 c 128,-1,18
 933 944 933 944 933 932 c 0,19,20
 914 900 914 900 894 860 c 128,-1,21
 874 820 874 820 845 796 c 1,0,1
496 796 m 1,22,23
 477 796 477 796 458.5 796 c 128,-1,24
 440 796 440 796 421 796 c 0,25,26
 383 796 383 796 346.5 797.5 c 128,-1,27
 310 799 310 799 273 799 c 1,28,29
 317 873 317 873 372 942.5 c 128,-1,30
 427 1012 427 1012 481 1081 c 0,31,32
 497 1103 497 1103 521.5 1111.5 c 128,-1,33
 546 1120 546 1120 572 1123 c 128,-1,34
 598 1126 598 1126 624 1126 c 128,-1,35
 650 1126 650 1126 674 1131 c 1,36,37
 658 1083 658 1083 627 1041 c 128,-1,38
 596 999 596 999 562 960 c 1,39,40
 571 955 571 955 580.5 949.5 c 128,-1,41
 590 944 590 944 600 939 c 1,42,43
 572 905 572 905 551.5 865 c 128,-1,44
 531 825 531 825 496 796 c 1,22,23
EndSplineSet
EndChar

StartChar: A
Encoding: 65 65 47
Width: 1116
VWidth: 1780
Flags: W
LayerCount: 2
Fore
SplineSet
1073 1196 m 0,0,1
 1108 1196 1108 1196 1130 1187 c 128,-1,2
 1152 1178 1152 1178 1178 1155 c 0,3,4
 1212 1123 1212 1123 1230.5 1090 c 128,-1,5
 1249 1057 1249 1057 1257.5 1019.5 c 128,-1,6
 1266 982 1266 982 1266.5 941 c 128,-1,7
 1267 900 1267 900 1267 858 c 0,8,9
 1267 811 1267 811 1249 736.5 c 128,-1,10
 1231 662 1231 662 1202 574 c 128,-1,11
 1173 486 1173 486 1136 391.5 c 128,-1,12
 1099 297 1099 297 1060.5 210.5 c 128,-1,13
 1022 124 1022 124 986 52.5 c 128,-1,14
 950 -19 950 -19 922 -62 c 1,15,16
 872 -62 872 -62 822 -60.5 c 128,-1,17
 772 -59 772 -59 722 -54 c 1,18,19
 766 24 766 24 808 104 c 128,-1,20
 850 184 850 184 880 273 c 1,21,22
 751 268 751 268 625.5 268.5 c 128,-1,23
 500 269 500 269 374 260 c 1,24,25
 371 212 371 212 368 166.5 c 128,-1,26
 365 121 365 121 365 71 c 0,27,28
 365 -7 365 -7 387 -77.5 c 128,-1,29
 409 -148 409 -148 418 -223 c 1,30,31
 310 -211 310 -211 210 -179 c 1,32,33
 181 -36 181 -36 179 118 c 0,34,35
 179 156 179 156 181.5 193 c 128,-1,36
 184 230 184 230 188 266 c 1,37,38
 122 266 122 266 58.5 266 c 128,-1,39
 -5 266 -5 266 -71 261 c 1,40,41
 -55 309 -55 309 -28 350 c 0,42,43
 0 391 0 391 18 437 c 1,44,-1
 226 437 l 1,45,46
 248 476 248 476 263 519 c 128,-1,47
 278 562 278 562 301 601 c 0,48,49
 336 660 336 660 386 727.5 c 128,-1,50
 436 795 436 795 497 861.5 c 128,-1,51
 558 928 558 928 628 988 c 128,-1,52
 698 1048 698 1048 772 1095 c 128,-1,53
 846 1142 846 1142 922.5 1169 c 128,-1,54
 999 1196 999 1196 1073 1196 c 0,0,1
434 445 m 1,55,56
 454 445 454 445 474.5 441 c 0,57,58
 495 436 495 436 516 436 c 0,59,60
 628 436 628 436 735 440 c 128,-1,61
 842 444 842 444 954 444 c 1,62,63
 973 487 973 487 992 520.5 c 128,-1,64
 1011 554 1011 554 1021 598 c 0,65,66
 1037 668 1037 668 1060.5 734 c 128,-1,67
 1084 800 1084 800 1084 874 c 0,68,69
 1084 890 1084 890 1083 913.5 c 128,-1,70
 1082 937 1082 937 1076.5 957.5 c 128,-1,71
 1071 978 1071 978 1059.5 992 c 128,-1,72
 1048 1006 1048 1006 1022 1006 c 0,73,74
 974 1009 974 1009 935 984 c 128,-1,75
 896 959 896 959 859 933 c 0,76,77
 722 839 722 839 612.5 718 c 128,-1,78
 503 597 503 597 434 445 c 1,55,56
EndSplineSet
EndChar

StartChar: B
Encoding: 66 66 48
Width: 1166
VWidth: 1771
Flags: W
LayerCount: 2
Fore
SplineSet
1220 1211 m 0,0,1
 1271 1211 1271 1211 1312 1189 c 128,-1,2
 1353 1167 1353 1167 1380 1132 c 128,-1,3
 1407 1097 1407 1097 1419.5 1053 c 128,-1,4
 1432 1009 1432 1009 1432 959 c 0,5,6
 1432 847 1432 847 1382.5 759 c 128,-1,7
 1333 671 1333 671 1256 596 c 0,8,9
 1213 554 1213 554 1166 525.5 c 128,-1,10
 1119 497 1119 497 1064 472 c 1,11,12
 1079 438 1079 438 1089.5 412 c 128,-1,13
 1100 386 1100 386 1106 360.5 c 128,-1,14
 1112 335 1112 335 1116 306 c 0,15,16
 1120 276 1120 276 1120 239 c 0,17,18
 1120 192 1120 192 1107.5 139 c 128,-1,19
 1095 86 1095 86 1067.5 38.5 c 128,-1,20
 1040 -9 1040 -9 1000 -41.5 c 128,-1,21
 960 -74 960 -74 905 -78 c 0,22,23
 871 -82 871 -82 836 -80 c 128,-1,24
 801 -78 801 -78 767 -78 c 0,25,26
 621 -74 621 -74 473 -83 c 1,27,-1
 467 -61 l 1,28,29
 501 -18 501 -18 517 10 c 128,-1,30
 533 38 533 38 542 55.5 c 128,-1,31
 551 73 551 73 559 80.5 c 128,-1,32
 567 88 567 88 586.5 89.5 c 128,-1,33
 606 91 606 91 643.5 90 c 128,-1,34
 681 89 681 89 748 89 c 0,35,36
 795 89 795 89 831.5 95.5 c 128,-1,37
 868 102 868 102 893 121 c 128,-1,38
 918 140 918 140 932.5 172.5 c 128,-1,39
 947 205 947 205 947 254 c 0,40,41
 947 302 947 302 928 346 c 128,-1,42
 909 390 909 390 869 420 c 0,43,44
 857 424 857 424 845.5 424 c 128,-1,45
 834 424 834 424 824 424 c 0,46,47
 790 424 790 424 758 420 c 128,-1,48
 726 416 726 416 694 418 c 0,49,50
 682 418 682 418 670.5 418 c 128,-1,51
 659 418 659 418 647 421 c 1,52,53
 681 471 681 471 725.5 511 c 128,-1,54
 770 551 770 551 811 598 c 1,55,56
 843 594 843 594 874 587.5 c 128,-1,57
 905 581 905 581 937 581 c 0,58,59
 942 581 942 581 951 581 c 128,-1,60
 960 581 960 581 967 582 c 0,61,62
 1021 597 1021 597 1074.5 636.5 c 128,-1,63
 1128 676 1128 676 1172 728.5 c 128,-1,64
 1216 781 1216 781 1242.5 842.5 c 128,-1,65
 1269 904 1269 904 1269 959 c 0,66,67
 1269 991 1269 991 1256 1014 c 128,-1,68
 1243 1037 1243 1037 1206 1038 c 0,69,70
 1202 1038 1202 1038 1198 1037.5 c 128,-1,71
 1194 1037 1194 1037 1191 1037 c 0,72,73
 1167 1034 1167 1034 1151 1028 c 128,-1,74
 1135 1022 1135 1022 1121.5 1013.5 c 128,-1,75
 1108 1005 1108 1005 1094.5 994 c 128,-1,76
 1081 983 1081 983 1065 968 c 0,77,78
 991 912 991 912 912.5 841.5 c 128,-1,79
 834 771 834 771 757.5 692.5 c 128,-1,80
 681 614 681 614 609 535 c 128,-1,81
 537 456 537 456 476 385 c 0,82,83
 433 335 433 335 398 280 c 128,-1,84
 363 225 363 225 329.5 169 c 128,-1,85
 296 113 296 113 261 59 c 128,-1,86
 226 5 226 5 184 -44 c 1,87,88
 121 -72 121 -72 53.5 -81.5 c 128,-1,89
 -14 -91 -14 -91 -83 -97 c 1,90,91
 -78 -78 -78 -78 -56 -43.5 c 128,-1,92
 -34 -9 -34 -9 -3.5 33.5 c 128,-1,93
 27 76 27 76 62 121.5 c 128,-1,94
 97 167 97 167 131.5 210 c 128,-1,95
 166 253 166 253 194 287.5 c 128,-1,96
 222 322 222 322 238 339 c 0,97,98
 262 368 262 368 292 419.5 c 128,-1,99
 322 471 322 471 352 531.5 c 128,-1,100
 382 592 382 592 412 660 c 128,-1,101
 442 728 442 728 468.5 792.5 c 128,-1,102
 495 857 495 857 516 912.5 c 128,-1,103
 537 968 537 968 553 1009 c 0,104,105
 560 1028 560 1028 566.5 1046 c 0,106,107
 574 1064 574 1064 590 1076 c 256,108,109
 606 1088 606 1088 631 1098 c 128,-1,110
 656 1108 656 1108 683 1118.5 c 128,-1,111
 710 1129 710 1129 737 1136.5 c 128,-1,112
 764 1144 764 1144 783 1148 c 1,113,114
 736 1040 736 1040 688 934 c 128,-1,115
 640 828 640 828 597 718 c 1,116,117
 658 781 658 781 723 858.5 c 128,-1,118
 788 936 788 936 860 1006 c 128,-1,119
 932 1076 932 1076 1013.5 1131 c 128,-1,120
 1095 1186 1095 1186 1185 1208 c 0,121,122
 1194 1211 1194 1211 1202.5 1211 c 128,-1,123
 1211 1211 1211 1211 1220 1211 c 0,0,1
EndSplineSet
EndChar

StartChar: C
Encoding: 67 67 49
Width: 878
VWidth: 1769
Flags: W
LayerCount: 2
Fore
SplineSet
1007 1217 m 0,0,1
 1096 1217 1096 1217 1153 1164 c 128,-1,2
 1210 1111 1210 1111 1210 1021 c 0,3,4
 1210 958 1210 958 1180.5 892.5 c 128,-1,5
 1151 827 1151 827 1104 764 c 128,-1,6
 1057 701 1057 701 994.5 640.5 c 128,-1,7
 932 580 932 580 868 528 c 128,-1,8
 804 476 804 476 742.5 431 c 128,-1,9
 681 386 681 386 633 355 c 0,10,11
 618 346 618 346 602 338 c 0,12,13
 585 331 585 331 567 331 c 0,14,15
 517 331 517 331 456 347.5 c 128,-1,16
 395 364 395 364 351 385 c 1,17,18
 399 417 399 417 453 442.5 c 128,-1,19
 507 468 507 468 551 503 c 0,20,21
 573 522 573 522 594.5 540.5 c 128,-1,22
 616 559 616 559 640 578 c 0,23,24
 681 612 681 612 730 650 c 128,-1,25
 779 688 779 688 828 728.5 c 128,-1,26
 877 769 877 769 920 814 c 128,-1,27
 963 859 963 859 991 904 c 0,28,29
 1006 930 1006 930 1009.5 958 c 128,-1,30
 1013 986 1013 986 1013 1014 c 1,31,32
 998 1019 998 1019 983 1023 c 128,-1,33
 968 1027 968 1027 954 1027 c 0,34,35
 911 1026 911 1026 876 1012 c 128,-1,36
 841 998 841 998 805 977 c 0,37,38
 703 921 703 921 600 847 c 128,-1,39
 497 773 497 773 407 683.5 c 128,-1,40
 317 594 317 594 246 491.5 c 128,-1,41
 175 389 175 389 135 275 c 0,42,43
 126 251 126 251 126 230 c 0,44,45
 123 176 123 176 157 140 c 128,-1,46
 191 104 191 104 245 103 c 0,47,48
 292 103 292 103 337.5 98.5 c 128,-1,49
 383 94 383 94 432 94 c 0,50,51
 526 94 526 94 620.5 98.5 c 128,-1,52
 715 103 715 103 810 101 c 1,53,54
 798 50 798 50 761.5 9 c 0,55,56
 726 -32 726 -32 698 -76 c 1,57,58
 594 -81 594 -81 490 -82 c 128,-1,59
 386 -83 386 -83 282 -83 c 0,60,61
 203 -83 203 -83 138 -68.5 c 128,-1,62
 73 -54 73 -54 27.5 -18 c 128,-1,63
 -18 18 -18 18 -42 76.5 c 128,-1,64
 -66 135 -66 135 -66 223 c 0,65,66
 -66 262 -66 262 -51 311 c 128,-1,67
 -36 360 -36 360 -13.5 408.5 c 128,-1,68
 9 457 9 457 35 503 c 128,-1,69
 61 549 61 549 83 580 c 0,70,71
 191 731 191 731 312.5 850.5 c 128,-1,72
 434 970 434 970 590 1068 c 0,73,74
 688 1129 688 1129 787.5 1173 c 128,-1,75
 887 1217 887 1217 1007 1217 c 0,0,1
EndSplineSet
EndChar

StartChar: D
Encoding: 68 68 50
Width: 996
VWidth: 1772
Flags: W
LayerCount: 2
Fore
SplineSet
1017 1190 m 2,0,1
 1129 1190 1129 1190 1198 1121.5 c 0,2,3
 1267 1052 1267 1052 1267 940 c 0,4,5
 1267 886 1267 886 1247.5 825.5 c 128,-1,6
 1228 765 1228 765 1198.5 705.5 c 128,-1,7
 1169 646 1169 646 1132 592 c 128,-1,8
 1095 538 1095 538 1060 500 c 0,9,10
 1006 439 1006 439 954 375 c 128,-1,11
 902 311 902 311 837 263 c 0,12,13
 783 222 783 222 707 171.5 c 128,-1,14
 631 121 631 121 548 72 c 128,-1,15
 465 23 465 23 384.5 -14.5 c 128,-1,16
 304 -52 304 -52 241 -69 c 0,17,18
 185 -84 185 -84 120 -91 c 0,19,20
 56 -98 56 -98 -4 -98 c 0,21,22
 -8 -98 -8 -98 -18 -94.5 c 128,-1,23
 -28 -91 -28 -91 -39 -85 c 128,-1,24
 -50 -79 -50 -79 -59 -74.5 c 128,-1,25
 -68 -70 -68 -70 -71 -69 c 0,26,27
 -55 53 -55 53 -12 171 c 128,-1,28
 31 289 31 289 71 406 c 0,29,30
 97 484 97 484 123 566 c 128,-1,31
 149 648 149 648 193 718 c 0,32,33
 205 737 205 737 235.5 752 c 128,-1,34
 266 767 266 767 303 776 c 128,-1,35
 340 785 340 785 378 790.5 c 128,-1,36
 416 796 416 796 437 798 c 1,37,38
 403 739 403 739 361.5 649 c 128,-1,39
 320 559 320 559 281 461.5 c 128,-1,40
 242 364 242 364 210.5 270 c 0,41,42
 178 176 178 176 166 109 c 1,43,44
 276 135 276 135 379 192.5 c 128,-1,45
 482 250 482 250 577 308 c 0,46,47
 646 351 646 351 732 421 c 128,-1,48
 818 491 818 491 895 577.5 c 128,-1,49
 972 664 972 664 1024 757 c 128,-1,50
 1076 850 1076 850 1076 937 c 0,51,52
 1076 961 1076 961 1062 975.5 c 128,-1,53
 1048 990 1048 990 1029 997 c 128,-1,54
 1010 1004 1010 1004 987.5 1006.5 c 128,-1,55
 965 1009 965 1009 948 1009 c 0,56,57
 892 1012 892 1012 840 997 c 128,-1,58
 788 982 788 982 734 968 c 0,59,60
 591 934 591 934 454 896 c 128,-1,61
 317 858 317 858 178 807 c 0,62,63
 130 788 130 788 82.5 765.5 c 128,-1,64
 35 743 35 743 -15 725 c 1,65,66
 -16 838 -16 838 29 940 c 1,67,68
 49 960 49 960 78.5 972 c 128,-1,69
 108 984 108 984 133 994 c 0,70,71
 237 1028 237 1028 343.5 1061 c 128,-1,72
 450 1094 450 1094 559 1121.5 c 128,-1,73
 668 1149 668 1149 777 1167.5 c 128,-1,74
 886 1186 886 1186 997 1190 c 2,75,-1
 1017 1190 l 2,0,1
EndSplineSet
EndChar

StartChar: E
Encoding: 69 69 51
Width: 1008
VWidth: 1771
Flags: W
LayerCount: 2
Fore
SplineSet
1002 1205 m 0,0,1
 1041 1205 1041 1205 1080 1194.5 c 128,-1,2
 1119 1184 1119 1184 1150 1161.5 c 128,-1,3
 1181 1139 1181 1139 1199 1107.5 c 128,-1,4
 1217 1076 1217 1076 1217 1030 c 0,5,6
 1217 969 1217 969 1196 908.5 c 128,-1,7
 1175 848 1175 848 1134 805 c 0,8,9
 1075 746 1075 746 1006 694.5 c 128,-1,10
 937 643 937 643 865 598 c 1,11,12
 822 622 822 622 779 640.5 c 0,13,14
 736 660 736 660 695 680 c 1,15,16
 736 715 736 715 791 751.5 c 128,-1,17
 846 788 846 788 898 828 c 128,-1,18
 950 868 950 868 992.5 913.5 c 128,-1,19
 1035 959 1035 959 1052 1013 c 1,20,21
 1020 1025 1020 1025 987 1025 c 0,22,23
 944 1025 944 1025 895 1013 c 128,-1,24
 846 1001 846 1001 799 981.5 c 128,-1,25
 752 962 752 962 707 937.5 c 128,-1,26
 662 913 662 913 628 889 c 0,27,28
 612 876 612 876 591.5 855.5 c 128,-1,29
 571 835 571 835 552.5 810 c 128,-1,30
 534 785 534 785 522 759.5 c 128,-1,31
 510 734 510 734 510 711 c 0,32,33
 510 672 510 672 528 640 c 128,-1,34
 546 608 546 608 569 581 c 128,-1,35
 592 554 592 554 611.5 530.5 c 128,-1,36
 631 507 631 507 631 482 c 0,37,38
 631 462 631 462 618 440 c 0,39,40
 606 418 606 418 590 406 c 0,41,42
 558 380 558 380 520 356 c 0,43,44
 482 331 482 331 447 310 c 0,45,46
 369 259 369 259 292.5 208.5 c 128,-1,47
 216 158 216 158 143 104 c 1,48,49
 339 101 339 101 536 102.5 c 128,-1,50
 733 104 733 104 929 108 c 1,51,52
 917 60 917 60 889.5 16.5 c 128,-1,53
 862 -27 862 -27 833 -63 c 0,54,55
 818 -82 818 -82 792.5 -84 c 128,-1,56
 767 -86 767 -86 744 -86 c 2,57,-1
 149 -82 l 2,58,59
 110 -82 110 -82 72 -75.5 c 128,-1,60
 34 -69 34 -69 3 -52 c 128,-1,61
 -28 -35 -28 -35 -48 -6 c 128,-1,62
 -68 23 -68 23 -68 70 c 0,63,64
 -68 94 -68 94 -61.5 121.5 c 128,-1,65
 -55 149 -55 149 -43 171 c 0,66,67
 -27 200 -27 200 30.5 248.5 c 128,-1,68
 88 297 88 297 155.5 348 c 128,-1,69
 223 399 223 399 289.5 443.5 c 128,-1,70
 356 488 356 488 390 510 c 1,71,72
 377 544 377 544 363.5 566.5 c 128,-1,73
 350 589 350 589 340.5 609 c 128,-1,74
 331 629 331 629 325.5 655 c 0,75,76
 320 680 320 680 320 724 c 0,77,78
 320 797 320 797 353.5 862 c 128,-1,79
 387 927 387 927 442 979.5 c 128,-1,80
 497 1032 497 1032 567 1073.5 c 128,-1,81
 637 1115 637 1115 713.5 1144.5 c 128,-1,82
 790 1174 790 1174 864.5 1189.5 c 128,-1,83
 939 1205 939 1205 1002 1205 c 0,0,1
EndSplineSet
EndChar

StartChar: F
Encoding: 70 70 52
Width: 1053
VWidth: 1772
Flags: W
LayerCount: 2
Fore
SplineSet
277 1178 m 2,0,-1
 1331 1173 l 1,1,2
 1318 1125 1318 1125 1300.5 1079 c 0,3,4
 1284 1033 1284 1033 1256 995 c 1,5,6
 1183 995 1183 995 1111 999 c 128,-1,7
 1039 1003 1039 1003 967 1003 c 1,8,9
 948 962 948 962 934 921.5 c 128,-1,10
 920 881 920 881 900 840 c 0,11,12
 862 764 862 764 833.5 685 c 128,-1,13
 805 606 805 606 771 530 c 1,14,-1
 986 527 l 1,15,16
 974 479 974 479 954.5 432.5 c 128,-1,17
 935 386 935 386 913 342 c 1,18,19
 857 342 857 342 801 346.5 c 128,-1,20
 745 351 745 351 689 351 c 1,21,22
 645 257 645 257 603.5 163 c 128,-1,23
 562 69 562 69 524 -27 c 0,24,25
 520 -36 520 -36 516 -47 c 0,26,27
 512 -59 512 -59 502 -65 c 0,28,29
 495 -69 495 -69 465.5 -73 c 128,-1,30
 436 -77 436 -77 402.5 -81.5 c 128,-1,31
 369 -86 369 -86 337 -89.5 c 0,32,33
 305 -92 305 -92 293 -94 c 1,34,35
 331 20 331 20 383.5 129.5 c 128,-1,36
 436 239 436 239 481 351 c 1,37,38
 433 356 433 356 385 357.5 c 128,-1,39
 337 359 337 359 288 359 c 1,40,41
 304 403 304 403 325 447.5 c 128,-1,42
 346 492 346 492 363 537 c 1,43,44
 395 537 395 537 425 535.5 c 128,-1,45
 455 534 455 534 487 534 c 0,46,47
 494 534 494 534 518.5 534.5 c 128,-1,48
 543 535 543 535 549 537 c 0,49,50
 568 544 568 544 580.5 573.5 c 128,-1,51
 593 603 593 603 600 619 c 0,52,53
 643 716 643 716 688 810 c 128,-1,54
 733 904 733 904 765 1005 c 1,55,56
 635 1010 635 1010 505 1011 c 128,-1,57
 375 1012 375 1012 246 1014 c 0,58,59
 233 1014 233 1014 215.5 1010.5 c 128,-1,60
 198 1007 198 1007 181 1000.5 c 128,-1,61
 164 994 164 994 152.5 982.5 c 128,-1,62
 141 971 141 971 141 955 c 0,63,64
 141 926 141 926 158.5 899.5 c 128,-1,65
 176 873 176 873 198.5 848.5 c 128,-1,66
 221 824 221 824 245.5 800.5 c 128,-1,67
 270 777 270 777 284 752 c 1,68,69
 236 736 236 736 187 725 c 128,-1,70
 138 714 138 714 90 702 c 1,71,72
 62 731 62 731 33 763.5 c 128,-1,73
 4 796 4 796 -20 832.5 c 128,-1,74
 -44 869 -44 869 -60 908.5 c 128,-1,75
 -76 948 -76 948 -76 990 c 0,76,77
 -76 1022 -76 1022 -61 1045 c 128,-1,78
 -46 1068 -46 1068 -22 1088 c 0,79,80
 37 1144 37 1144 118 1161 c 128,-1,81
 199 1178 199 1178 277 1178 c 2,0,-1
EndSplineSet
EndChar

StartChar: G
Encoding: 71 71 53
Width: 871
VWidth: 1794
Flags: W
LayerCount: 2
Fore
SplineSet
1048 1322 m 0,0,1
 1082 1322 1082 1322 1112.5 1310.5 c 128,-1,2
 1143 1299 1143 1299 1166.5 1278.5 c 128,-1,3
 1190 1258 1190 1258 1203 1228 c 128,-1,4
 1216 1198 1216 1198 1216 1163 c 0,5,6
 1216 1096 1216 1096 1178.5 1024 c 128,-1,7
 1141 952 1141 952 1088 885 c 128,-1,8
 1035 818 1035 818 976.5 757.5 c 128,-1,9
 918 697 918 697 874 651 c 1,10,11
 826 663 826 663 778.5 673 c 128,-1,12
 731 683 731 683 682 695 c 1,13,14
 723 746 723 746 769.5 794.5 c 128,-1,15
 816 843 816 843 860.5 892 c 128,-1,16
 905 941 905 941 944 995 c 128,-1,17
 983 1049 983 1049 1010 1111 c 0,18,19
 1006 1115 1006 1115 1000 1120.5 c 128,-1,20
 994 1126 994 1126 994 1132 c 1,21,22
 880 1120 880 1120 773 1062.5 c 128,-1,23
 666 1005 666 1005 578 932 c 0,24,25
 527 890 527 890 474 846.5 c 128,-1,26
 421 803 421 803 378 749 c 0,27,28
 343 705 343 705 297.5 645 c 128,-1,29
 252 585 252 585 212 519.5 c 128,-1,30
 172 454 172 454 144 388 c 128,-1,31
 116 322 116 322 116 265 c 0,32,33
 113 206 113 206 144.5 172 c 128,-1,34
 176 138 176 138 237 138 c 0,35,36
 293 138 293 138 343 162 c 128,-1,37
 393 186 393 186 444 207 c 0,38,39
 476 220 476 220 502.5 231 c 128,-1,40
 529 242 529 242 551.5 255.5 c 128,-1,41
 574 269 574 269 594 290.5 c 128,-1,42
 614 312 614 312 628 346 c 0,43,44
 635 361 635 361 640.5 379.5 c 128,-1,45
 646 398 646 398 651 415 c 128,-1,46
 656 432 656 432 667 445.5 c 128,-1,47
 678 459 678 459 695 464 c 0,48,49
 765 490 765 490 845 508 c 0,50,51
 926 526 926 526 1001 531 c 1,52,53
 962 453 962 453 912 387.5 c 128,-1,54
 862 322 862 322 807 256 c 0,55,56
 779 222 779 222 762 181.5 c 128,-1,57
 745 141 745 141 731 101 c 0,58,59
 693 0 693 0 646 -89 c 128,-1,60
 599 -178 599 -178 545 -270 c 0,61,62
 523 -305 523 -305 497.5 -330.5 c 128,-1,63
 472 -356 472 -356 447 -387 c 0,64,65
 419 -422 419 -422 402 -464.5 c 0,66,67
 385 -508 385 -508 350 -536 c 1,68,69
 299 -531 299 -531 246.5 -523.5 c 128,-1,70
 194 -516 194 -516 143 -522 c 1,71,-1
 135 -507 l 1,72,73
 229 -413 229 -413 309.5 -306.5 c 128,-1,74
 390 -200 390 -200 456 -83 c 0,75,76
 480 -42 480 -42 504.5 -3 c 128,-1,77
 529 36 529 36 545 78 c 1,78,79
 497 62 497 62 456.5 35.5 c 128,-1,80
 416 9 416 9 367 -9 c 0,81,82
 323 -25 323 -25 276 -37 c 0,83,84
 230 -50 230 -50 182 -50 c 0,85,86
 116 -50 116 -50 69.5 -25.5 c 128,-1,87
 23 -1 23 -1 -7.5 40 c 128,-1,88
 -38 81 -38 81 -52 132.5 c 128,-1,89
 -66 184 -66 184 -66 243 c 0,90,91
 -66 344 -66 344 -23 453 c 128,-1,92
 20 562 20 562 84.5 663 c 128,-1,93
 149 764 149 764 227 854 c 128,-1,94
 305 944 305 944 378 1009 c 0,95,96
 429 1056 429 1056 495.5 1103 c 128,-1,97
 562 1150 562 1150 633.5 1189.5 c 128,-1,98
 705 1229 705 1229 779 1260 c 128,-1,99
 853 1291 853 1291 922 1303 c 0,100,101
 954 1308 954 1308 985 1316.5 c 128,-1,102
 1016 1325 1016 1325 1048 1322 c 0,0,1
EndSplineSet
EndChar

StartChar: H
Encoding: 72 72 54
Width: 980
VWidth: 1775
Flags: W
LayerCount: 2
Fore
SplineSet
1353 1349 m 1,0,1
 1314 1239 1314 1239 1265 1134.5 c 128,-1,2
 1216 1030 1216 1030 1173 921 c 0,3,4
 1125 797 1125 797 1071 675.5 c 128,-1,5
 1017 554 1017 554 963 430 c 0,6,7
 929 354 929 354 899 278 c 128,-1,8
 869 202 869 202 834 128 c 0,9,10
 799 49 799 49 768.5 -32 c 128,-1,11
 738 -113 738 -113 701 -192 c 0,12,13
 696 -204 696 -204 689 -213.5 c 128,-1,14
 682 -223 682 -223 671 -229 c 256,15,16
 659 -234 659 -234 629.5 -243 c 128,-1,17
 600 -252 600 -252 567 -259 c 128,-1,18
 534 -266 534 -266 502.5 -272 c 128,-1,19
 471 -278 471 -278 456 -281 c 1,20,21
 514 -144 514 -144 571 -10 c 128,-1,22
 628 124 628 124 688 261 c 1,23,24
 610 266 610 266 532 267.5 c 128,-1,25
 454 269 454 269 375 269 c 1,26,27
 351 206 351 206 320.5 142.5 c 128,-1,28
 290 79 290 79 270 19 c 0,29,30
 261 -3 261 -3 256.5 -21.5 c 128,-1,31
 252 -40 252 -40 222 -43 c 0,32,33
 218 -43 218 -43 216 -42 c 128,-1,34
 214 -41 214 -41 211 -41 c 0,35,36
 163 -60 163 -60 114 -75 c 0,37,38
 66 -89 66 -89 18 -101 c 1,39,40
 23 -86 23 -86 25 -71 c 128,-1,41
 27 -56 27 -56 32 -41 c 0,42,43
 58 35 58 35 99.5 114.5 c 0,44,45
 142 194 142 194 176 270 c 1,46,47
 113 270 113 270 49 270 c 0,48,49
 -14 269 -14 269 -77 263 c 1,50,51
 -72 275 -72 275 -53 304 c 128,-1,52
 -34 333 -34 333 -11.5 365 c 128,-1,53
 11 397 11 397 31.5 421.5 c 128,-1,54
 52 446 52 446 65 449 c 0,55,56
 81 454 81 454 114.5 452 c 128,-1,57
 148 450 148 450 181 451.5 c 128,-1,58
 214 453 214 453 239.5 461 c 128,-1,59
 265 469 265 469 265 494 c 1,60,61
 297 567 297 567 328 637 c 0,62,63
 360 706 360 706 391 778 c 0,64,65
 406 813 406 813 417.5 847.5 c 128,-1,66
 429 882 429 882 445 915 c 0,67,68
 467 963 467 963 486.5 1019.5 c 128,-1,69
 506 1076 506 1076 542 1116 c 1,70,71
 592 1138 592 1138 645 1148 c 128,-1,72
 698 1158 698 1158 752 1174 c 1,73,74
 752 1169 752 1169 756 1167 c 128,-1,75
 760 1165 760 1165 764 1161 c 0,76,77
 703 1039 703 1039 651.5 913.5 c 128,-1,78
 600 788 600 788 546 662 c 0,79,80
 524 608 524 608 500 556 c 128,-1,81
 476 504 476 504 465 447 c 1,82,-1
 733 447 l 2,83,84
 745 447 745 447 756 448 c 128,-1,85
 767 449 767 449 777 455 c 0,86,87
 799 496 799 496 810.5 540.5 c 128,-1,88
 822 585 822 585 843 624 c 0,89,90
 867 667 867 667 884 709.5 c 128,-1,91
 901 752 901 752 920 795 c 2,92,-1
 1100 1240 l 2,93,94
 1107 1256 1107 1256 1121 1277 c 0,95,96
 1134 1298 1134 1298 1152 1307 c 0,97,98
 1167 1314 1167 1314 1193.5 1320.5 c 128,-1,99
 1220 1327 1220 1327 1249.5 1332.5 c 128,-1,100
 1279 1338 1279 1338 1306.5 1341.5 c 128,-1,101
 1334 1345 1334 1345 1353 1349 c 1,0,1
EndSplineSet
EndChar

StartChar: I
Encoding: 73 73 55
Width: 1094
VWidth: 1768
Flags: W
LayerCount: 2
Fore
SplineSet
1150 1224 m 0,0,1
 1217 1224 1217 1224 1259 1175.5 c 128,-1,2
 1301 1127 1301 1127 1301 1061 c 0,3,4
 1301 1029 1301 1029 1281 965.5 c 128,-1,5
 1261 902 1261 902 1234.5 829.5 c 128,-1,6
 1208 757 1208 757 1181 691.5 c 128,-1,7
 1154 626 1154 626 1139 592 c 0,8,9
 1096 490 1096 490 1051.5 385 c 128,-1,10
 1007 280 1007 280 944 189.5 c 128,-1,11
 881 99 881 99 795.5 34 c 128,-1,12
 710 -31 710 -31 588 -52 c 0,13,14
 527 -64 527 -64 462.5 -67.5 c 128,-1,15
 398 -71 398 -71 335 -75 c 0,16,17
 130 -80 130 -80 -74 -81 c 1,18,19
 -58 -25 -58 -25 -20 19 c 128,-1,20
 18 63 18 63 46 113 c 1,21,22
 140 113 140 113 234 115 c 128,-1,23
 328 117 328 117 422 117 c 0,24,25
 505 117 505 117 569.5 133 c 128,-1,26
 634 149 634 149 701 200 c 0,27,28
 749 235 749 235 780 273 c 128,-1,29
 811 311 811 311 834 353 c 128,-1,30
 857 395 857 395 875.5 441.5 c 128,-1,31
 894 488 894 488 916 541 c 0,32,33
 960 639 960 639 1001 736 c 128,-1,34
 1042 833 1042 833 1081 933 c 0,35,36
 1084 949 1084 949 1088 967 c 128,-1,37
 1092 985 1092 985 1093 1001 c 0,38,39
 1093 1022 1093 1022 1074 1030 c 1,40,41
 1033 1030 1033 1030 991.5 1014.5 c 128,-1,42
 950 999 950 999 910.5 974.5 c 128,-1,43
 871 950 871 950 835 921.5 c 0,44,45
 800 892 800 892 770 868 c 0,46,47
 754 853 754 853 719 820.5 c 128,-1,48
 684 788 684 788 648.5 749.5 c 128,-1,49
 613 711 613 711 586 673.5 c 128,-1,50
 559 636 559 636 559 616 c 0,51,52
 559 562 559 562 588 513.5 c 128,-1,53
 617 465 617 465 650 424 c 1,54,55
 615 383 615 383 579 345.5 c 128,-1,56
 543 308 543 308 508 266 c 1,57,58
 460 344 460 344 419.5 430 c 128,-1,59
 379 516 379 516 379 611 c 0,60,61
 379 635 379 635 384 662.5 c 128,-1,62
 389 690 389 690 398 713 c 0,63,64
 418 764 418 764 461 820.5 c 128,-1,65
 504 877 504 877 560 930.5 c 128,-1,66
 616 984 616 984 682 1032 c 128,-1,67
 748 1080 748 1080 816 1118 c 128,-1,68
 884 1156 884 1156 948.5 1182.5 c 128,-1,69
 1013 1209 1013 1209 1068 1216 c 0,70,71
 1088 1220 1088 1220 1109 1222 c 128,-1,72
 1130 1224 1130 1224 1150 1224 c 0,0,1
EndSplineSet
EndChar

StartChar: J
Encoding: 74 74 56
Width: 982
VWidth: 1804
Flags: W
LayerCount: 2
Fore
SplineSet
1030 1255 m 0,0,1
 1096 1252 1096 1252 1135 1211 c 128,-1,2
 1174 1170 1174 1170 1173 1105 c 0,3,4
 1173 1071 1173 1071 1149.5 1001.5 c 128,-1,5
 1126 932 1126 932 1089.5 839 c 128,-1,6
 1053 746 1053 746 1010 643.5 c 128,-1,7
 967 541 967 541 924.5 447.5 c 128,-1,8
 882 354 882 354 848 276 c 128,-1,9
 814 198 814 198 799 157 c 1,10,11
 821 152 821 152 843.5 150 c 128,-1,12
 866 148 866 148 888 148 c 1,13,14
 908 100 908 100 929.5 52.5 c 128,-1,15
 951 5 951 5 962 -44 c 1,16,17
 868 -22 868 -22 769 -22 c 0,18,19
 754 -22 754 -22 737 -27 c 128,-1,20
 720 -32 720 -32 710 -44 c 256,21,22
 701 -56 701 -56 691.5 -77.5 c 128,-1,23
 682 -99 682 -99 672.5 -124 c 128,-1,24
 663 -149 663 -149 653.5 -173.5 c 128,-1,25
 644 -198 644 -198 635 -215 c 0,26,27
 591 -297 591 -297 548.5 -366.5 c 128,-1,28
 506 -436 506 -436 450 -486 c 128,-1,29
 394 -536 394 -536 320.5 -564.5 c 128,-1,30
 247 -593 247 -593 141 -593 c 0,31,32
 103 -593 103 -593 67 -580 c 128,-1,33
 31 -567 31 -567 2 -545 c 128,-1,34
 -27 -523 -27 -523 -46 -490 c 128,-1,35
 -65 -457 -65 -457 -65 -418 c 0,36,37
 -65 -339 -65 -339 -7.5 -266 c 128,-1,38
 50 -193 50 -193 131 -132 c 128,-1,39
 212 -71 212 -71 299.5 -24 c 128,-1,40
 387 23 387 23 449 55 c 0,41,42
 471 67 471 67 494.5 74 c 128,-1,43
 518 81 518 81 538.5 90 c 128,-1,44
 559 99 559 99 574.5 114 c 128,-1,45
 590 129 590 129 598 157 c 0,46,47
 618 223 618 223 649 280.5 c 128,-1,48
 680 338 680 338 705 401 c 0,49,50
 718 435 718 435 741 489 c 128,-1,51
 764 543 764 543 791.5 605 c 128,-1,52
 819 667 819 667 848 734 c 128,-1,53
 877 801 877 801 901 861.5 c 128,-1,54
 925 922 925 922 941 971.5 c 0,55,56
 956 1020 956 1020 958 1048 c 1,57,58
 924 1045 924 1045 874 1028.5 c 128,-1,59
 824 1012 824 1012 767.5 986 c 128,-1,60
 711 960 711 960 652.5 927.5 c 128,-1,61
 594 895 594 895 545 859.5 c 128,-1,62
 496 824 496 824 461 786.5 c 128,-1,63
 426 749 426 749 417 716 c 0,64,65
 410 700 410 700 408 678 c 0,66,67
 407 655 407 655 407 637 c 0,68,69
 407 586 407 586 417 536 c 128,-1,70
 427 486 427 486 441 436.5 c 128,-1,71
 455 387 455 387 472 338 c 0,72,73
 489 288 489 288 503 239 c 1,74,75
 455 255 455 255 407 272 c 0,76,77
 358 289 358 289 310 307 c 0,78,79
 284 316 284 316 279 340.5 c 128,-1,80
 274 365 274 365 266 389 c 0,81,82
 246 455 246 455 236.5 529.5 c 128,-1,83
 227 604 227 604 227 670 c 0,84,85
 230 771 230 771 277 844 c 128,-1,86
 324 917 324 917 401 976 c 0,87,88
 474 1027 474 1027 541.5 1069.5 c 128,-1,89
 609 1112 609 1112 680.5 1145.5 c 128,-1,90
 752 1179 752 1179 826.5 1204 c 128,-1,91
 901 1229 901 1229 990 1248 c 0,92,93
 1011 1255 1011 1255 1030 1255 c 0,0,1
113 -406 m 1,94,95
 152 -421 152 -421 188 -421 c 0,96,97
 246 -421 246 -421 294 -389.5 c 128,-1,98
 342 -358 342 -358 381 -310.5 c 128,-1,99
 420 -263 420 -263 446.5 -206 c 128,-1,100
 473 -149 473 -149 487 -102 c 1,101,102
 448 -118 448 -118 390 -153 c 128,-1,103
 332 -188 332 -188 276 -231 c 128,-1,104
 220 -274 220 -274 174 -319.5 c 128,-1,105
 128 -365 128 -365 113 -406 c 1,94,95
EndSplineSet
EndChar

StartChar: K
Encoding: 75 75 57
Width: 957
VWidth: 1769
Flags: W
LayerCount: 2
Fore
SplineSet
625 1205 m 0,0,1
 637 1206 637 1206 654 1202 c 1,2,3
 581 1059 581 1059 526 909.5 c 128,-1,4
 471 760 471 760 406 616 c 0,5,6
 330 445 330 445 259 273 c 128,-1,7
 188 101 188 101 122 -74 c 1,8,-1
 -71 -74 l 1,9,10
 -59 -15 -59 -15 -36.5 36.5 c 128,-1,11
 -14 88 -14 88 9 141 c 0,12,13
 85 316 85 316 157.5 489.5 c 128,-1,14
 230 663 230 663 303 838 c 0,15,16
 335 908 335 908 362 980.5 c 128,-1,17
 389 1053 389 1053 422 1120 c 0,18,19
 431 1136 431 1136 438 1145 c 128,-1,20
 445 1154 445 1154 452.5 1158.5 c 128,-1,21
 460 1163 460 1163 471 1164.5 c 128,-1,22
 482 1166 482 1166 499 1173 c 0,23,24
 531 1182 531 1182 562 1193.5 c 128,-1,25
 593 1205 593 1205 625 1205 c 0,0,1
1105 1088 m 0,26,27
 1146 1088 1146 1088 1186 1081 c 128,-1,28
 1226 1074 1226 1074 1268 1074 c 1,29,30
 1275 1067 1275 1067 1276 1052 c 1,31,32
 1090 884 1090 884 911.5 715 c 128,-1,33
 733 546 733 546 546 378 c 1,34,35
 632 265 632 265 721 156 c 128,-1,36
 810 47 810 47 894 -70 c 1,37,38
 856 -67 856 -67 818 -69 c 0,39,40
 781 -71 781 -71 743 -71 c 0,41,42
 723 -71 723 -71 703.5 -70.5 c 128,-1,43
 684 -70 684 -70 663 -68 c 1,44,45
 594 18 594 18 525.5 100.5 c 128,-1,46
 457 183 457 183 391 268 c 0,47,48
 372 292 372 292 358 319 c 128,-1,49
 344 346 344 346 344 378 c 0,50,51
 344 394 344 394 347.5 405.5 c 128,-1,52
 351 417 351 417 360 432 c 0,53,54
 382 471 382 471 413.5 502.5 c 128,-1,55
 445 534 445 534 478 562 c 128,-1,56
 511 590 511 590 546 617 c 128,-1,57
 581 644 581 644 616 675 c 0,58,59
 677 734 677 734 736.5 793.5 c 128,-1,60
 796 853 796 853 859 913 c 0,61,62
 902 951 902 951 945 986 c 0,63,64
 988 1021 988 1021 1030 1058 c 0,65,66
 1050 1074 1050 1074 1064.5 1081 c 128,-1,67
 1079 1088 1079 1088 1105 1088 c 0,26,27
EndSplineSet
EndChar

StartChar: L
Encoding: 76 76 58
Width: 1172
VWidth: 1787
Flags: W
LayerCount: 2
Fore
SplineSet
1185 1214 m 0,0,1
 1261 1214 1261 1214 1308.5 1173 c 128,-1,2
 1356 1132 1356 1132 1356 1056 c 0,3,4
 1356 1000 1356 1000 1327.5 924 c 128,-1,5
 1299 848 1299 848 1256.5 773 c 128,-1,6
 1214 698 1214 698 1166.5 633.5 c 128,-1,7
 1119 569 1119 569 1077 531 c 1,8,9
 1033 522 1033 522 987 514.5 c 128,-1,10
 941 507 941 507 895 507 c 0,11,12
 886 507 886 507 875.5 507 c 128,-1,13
 865 507 865 507 855 511 c 1,14,15
 913 584 913 584 969.5 656 c 128,-1,16
 1026 728 1026 728 1080 806 c 0,17,18
 1114 854 1114 854 1132.5 906 c 128,-1,19
 1151 958 1151 958 1169 1014 c 1,20,21
 1157 1018 1157 1018 1145.5 1021.5 c 128,-1,22
 1134 1025 1134 1025 1122 1025 c 0,23,24
 1112 1026 1112 1026 1102 1022 c 0,25,26
 1013 990 1013 990 945.5 920 c 128,-1,27
 878 850 878 850 825.5 763 c 128,-1,28
 773 676 773 676 735.5 582.5 c 128,-1,29
 698 489 698 489 670 407 c 0,30,31
 644 331 644 331 607.5 261.5 c 128,-1,32
 571 192 571 192 541 117 c 1,33,34
 642 121 642 121 742 125 c 128,-1,35
 842 129 842 129 944 126 c 0,36,37
 1002 126 1002 126 1064 127.5 c 128,-1,38
 1126 129 1126 129 1179 108 c 1,39,40
 1151 64 1151 64 1120 22.5 c 128,-1,41
 1089 -19 1089 -19 1061 -63 c 1,42,43
 982 -59 982 -59 902 -57 c 128,-1,44
 822 -55 822 -55 742 -55 c 0,45,46
 581 -55 581 -55 422 -61 c 1,47,48
 321 -165 321 -165 195 -237.5 c 128,-1,49
 69 -310 69 -310 -77 -327 c 1,50,51
 -72 -284 -72 -284 -50.5 -234 c 128,-1,52
 -29 -184 -29 -184 -8 -148 c 0,53,54
 20 -97 20 -97 52.5 -67.5 c 128,-1,55
 85 -38 85 -38 122.5 -17.5 c 128,-1,56
 160 3 160 3 204 17 c 0,57,58
 248 31 248 31 296 52 c 0,59,60
 318 61 318 61 324.5 73 c 128,-1,61
 331 85 331 85 340 104 c 0,62,63
 375 170 375 170 408 233.5 c 128,-1,64
 441 297 441 297 468 366 c 0,65,66
 518 488 518 488 567 614 c 128,-1,67
 616 740 616 740 686 853 c 0,68,69
 724 912 724 912 771.5 968.5 c 128,-1,70
 819 1025 819 1025 875.5 1072.5 c 128,-1,71
 932 1120 932 1120 997 1155 c 128,-1,72
 1062 1190 1062 1190 1134 1208 c 0,73,74
 1147 1212 1147 1212 1158.5 1213 c 128,-1,75
 1170 1214 1170 1214 1185 1214 c 0,0,1
EndSplineSet
EndChar

StartChar: M
Encoding: 77 77 59
Width: 1393
VWidth: 1771
Flags: W
LayerCount: 2
Fore
SplineSet
1112 1214 m 1,0,1
 1078 1128 1078 1128 1045.5 1042.5 c 128,-1,2
 1013 957 1013 957 983 867 c 0,3,4
 971 833 971 833 962.5 799 c 128,-1,5
 954 765 954 765 940 733 c 0,6,7
 911 657 911 657 882 582.5 c 128,-1,8
 853 508 853 508 833 429 c 1,9,10
 919 526 919 526 998 625 c 128,-1,11
 1077 724 1077 724 1162 822 c 0,12,13
 1228 900 1228 900 1292 978 c 0,14,15
 1357 1056 1357 1056 1422 1132 c 0,16,17
 1444 1156 1444 1156 1471 1169.5 c 128,-1,18
 1498 1183 1498 1183 1526.5 1189.5 c 128,-1,19
 1555 1196 1555 1196 1585.5 1198.5 c 128,-1,20
 1616 1201 1616 1201 1646 1205 c 1,21,22
 1622 1138 1622 1138 1588.5 1078 c 0,23,24
 1556 1018 1556 1018 1526 955 c 0,25,26
 1478 853 1478 853 1429.5 750.5 c 128,-1,27
 1381 648 1381 648 1336.5 544 c 128,-1,28
 1292 440 1292 440 1254.5 333.5 c 128,-1,29
 1217 227 1217 227 1194 116 c 1,30,31
 1237 111 1237 111 1280 108.5 c 128,-1,32
 1323 106 1323 106 1365 101 c 1,33,34
 1349 60 1349 60 1330 20.5 c 0,35,36
 1312 -19 1312 -19 1292 -55 c 1,37,38
 1277 -67 1277 -67 1259 -70 c 0,39,40
 1241 -74 1241 -74 1222 -74 c 0,41,42
 1175 -74 1175 -74 1137 -69.5 c 128,-1,43
 1099 -65 1099 -65 1069.5 -48.5 c 128,-1,44
 1040 -32 1040 -32 1023.5 1 c 128,-1,45
 1007 34 1007 34 1007 89 c 0,46,47
 1007 148 1007 148 1031.5 224.5 c 128,-1,48
 1056 301 1056 301 1087.5 381 c 128,-1,49
 1119 461 1119 461 1152 537 c 0,50,51
 1185 614 1185 614 1206 673 c 1,52,53
 1167 641 1167 641 1141 601.5 c 128,-1,54
 1115 562 1115 562 1085 524 c 2,55,-1
 682 13 l 2,56,57
 663 -11 663 -11 650 -37 c 128,-1,58
 637 -63 637 -63 608 -76 c 1,59,60
 574 -73 574 -73 541 -73 c 128,-1,61
 508 -73 508 -73 473 -67 c 1,62,63
 489 -11 489 -11 516 41.5 c 128,-1,64
 543 94 543 94 564 148 c 0,65,66
 596 237 596 237 635.5 322 c 0,67,68
 674 407 674 407 706 496 c 0,69,70
 725 550 725 550 750.5 603 c 128,-1,71
 776 656 776 656 783 711 c 1,72,73
 748 670 748 670 696 600.5 c 128,-1,74
 644 531 644 531 581 450 c 128,-1,75
 518 369 518 369 451.5 282 c 128,-1,76
 385 195 385 195 323 119 c 128,-1,77
 261 43 261 43 207 -15 c 128,-1,78
 153 -73 153 -73 118 -96 c 1,79,80
 80 -100 80 -100 42 -102.5 c 128,-1,81
 4 -105 4 -105 -32 -105 c 0,82,83
 -48 -105 -48 -105 -64.5 -104.5 c 128,-1,84
 -81 -104 -81 -104 -97 -102 c 1,85,86
 -69 -59 -69 -59 -35 -20.5 c 128,-1,87
 -1 18 -1 18 32 56 c 0,88,89
 47 72 47 72 60.5 91 c 128,-1,90
 74 110 74 110 88 126 c 0,91,92
 120 161 120 161 151.5 195.5 c 128,-1,93
 183 230 183 230 214 262 c 0,94,95
 302 363 302 363 386.5 467 c 128,-1,96
 471 571 471 571 553 676 c 0,97,98
 629 777 629 777 699.5 878.5 c 128,-1,99
 770 980 770 980 842 1084 c 0,100,101
 855 1103 855 1103 864.5 1117.5 c 128,-1,102
 874 1132 874 1132 884 1146.5 c 128,-1,103
 894 1161 894 1161 908.5 1171.5 c 128,-1,104
 923 1182 923 1182 948 1186 c 0,105,106
 989 1198 989 1198 1029.5 1204 c 128,-1,107
 1070 1210 1070 1210 1112 1214 c 1,0,1
EndSplineSet
EndChar

StartChar: N
Encoding: 78 78 60
Width: 1221
VWidth: 1769
Flags: W
LayerCount: 2
Fore
SplineSet
1396 1229 m 1,0,1
 1403 1217 1403 1217 1421.5 1191.5 c 128,-1,2
 1440 1166 1440 1166 1459.5 1137.5 c 128,-1,3
 1479 1109 1479 1109 1493 1083 c 128,-1,4
 1507 1057 1507 1057 1507 1046 c 0,5,6
 1507 1026 1507 1026 1499.5 1009 c 128,-1,7
 1492 992 1492 992 1482 977 c 0,8,9
 1428 864 1428 864 1371 753.5 c 128,-1,10
 1314 643 1314 643 1249 538 c 128,-1,11
 1184 433 1184 433 1111 333 c 0,12,13
 1038 234 1038 234 952 140 c 0,14,15
 930 114 930 114 894.5 74.5 c 128,-1,16
 859 35 859 35 818 -3 c 128,-1,17
 777 -41 777 -41 735.5 -67.5 c 128,-1,18
 694 -94 694 -94 660 -94 c 0,19,20
 634 -94 634 -94 619.5 -76 c 128,-1,21
 605 -58 605 -58 598.5 -32.5 c 128,-1,22
 592 -7 592 -7 591 21.5 c 128,-1,23
 590 50 590 50 590 69 c 0,24,25
 590 145 590 145 602 220.5 c 128,-1,26
 614 296 614 296 630 370.5 c 128,-1,27
 646 445 646 445 662 517.5 c 128,-1,28
 678 590 678 590 688 667 c 1,29,30
 649 619 649 619 617.5 565 c 128,-1,31
 586 511 586 511 553 461 c 0,32,33
 424 256 424 256 273 69 c 0,34,35
 254 43 254 43 234.5 18 c 128,-1,36
 215 -7 215 -7 194 -29 c 0,37,38
 178 -48 178 -48 160.5 -63.5 c 128,-1,39
 143 -79 143 -79 116 -83 c 256,40,41
 90 -87 90 -87 62.5 -84.5 c 128,-1,42
 35 -82 35 -82 8 -82 c 0,43,44
 -16 -82 -16 -82 -39.5 -79.5 c 128,-1,45
 -63 -77 -63 -77 -88 -73 c 1,46,47
 73 75 73 75 206 248 c 0,48,49
 340 421 340 421 464 601 c 0,50,51
 558 733 558 733 636 873 c 0,52,53
 713 1012 713 1012 801 1150 c 1,54,55
 859 1166 859 1166 915.5 1178.5 c 0,56,57
 972 1192 972 1192 1032 1202 c 1,58,59
 984 1090 984 1090 937 964 c 128,-1,60
 890 838 890 838 854 707 c 128,-1,61
 818 576 818 576 795 444 c 128,-1,62
 772 312 772 312 768 192 c 1,63,64
 837 240 837 240 886 308.5 c 128,-1,65
 935 377 935 377 984 445 c 0,66,67
 1040 521 1040 521 1089 600.5 c 128,-1,68
 1138 680 1138 680 1181 765 c 0,69,70
 1197 797 1197 797 1211 830 c 0,71,72
 1225 862 1225 862 1245 895 c 0,73,74
 1292 978 1292 978 1329.5 1058 c 128,-1,75
 1367 1138 1367 1138 1396 1229 c 1,0,1
EndSplineSet
EndChar

StartChar: O
Encoding: 79 79 61
Width: 1105
VWidth: 1772
Flags: W
LayerCount: 2
Fore
SplineSet
731 1186 m 0,0,1
 804 1186 804 1186 873.5 1159 c 128,-1,2
 943 1132 943 1132 1000.5 1086 c 128,-1,3
 1058 1040 1058 1040 1097 977 c 128,-1,4
 1136 914 1136 914 1149 842 c 1,5,-1
 1260 842 l 1,6,7
 1272 794 1272 794 1278 745.5 c 128,-1,8
 1284 697 1284 697 1288 648 c 1,9,10
 1262 648 1262 648 1237 650 c 128,-1,11
 1212 652 1212 652 1186 652 c 0,12,13
 1173 652 1173 652 1159.5 651 c 128,-1,14
 1146 650 1146 650 1132 648 c 1,15,16
 1112 562 1112 562 1073 475.5 c 128,-1,17
 1034 389 1034 389 977.5 305 c 128,-1,18
 921 221 921 221 851 147.5 c 128,-1,19
 781 74 781 74 700.5 20 c 128,-1,20
 620 -34 620 -34 530 -65.5 c 128,-1,21
 440 -97 440 -97 346 -97 c 0,22,23
 248 -97 248 -97 171 -60.5 c 128,-1,24
 94 -24 94 -24 39.5 37 c 128,-1,25
 -15 98 -15 98 -43 180.5 c 128,-1,26
 -71 263 -71 263 -71 356 c 0,27,28
 -71 406 -71 406 -63.5 449 c 128,-1,29
 -56 492 -56 492 -42 532.5 c 128,-1,30
 -28 573 -28 573 -10 614 c 0,31,32
 8 655 8 655 28 697 c 0,33,34
 82 819 82 819 171.5 907 c 128,-1,35
 261 995 261 995 370 1067 c 0,36,37
 431 1110 431 1110 502 1134 c 128,-1,38
 573 1158 573 1158 646 1177 c 0,39,40
 666 1182 666 1182 688.5 1184 c 128,-1,41
 711 1186 711 1186 731 1186 c 0,0,1
105 362 m 0,42,43
 105 308 105 308 121 260.5 c 128,-1,44
 137 213 137 213 168 178 c 128,-1,45
 199 143 199 143 242 122.5 c 128,-1,46
 285 102 285 102 343 102 c 0,47,48
 445 102 445 102 542.5 151 c 128,-1,49
 640 200 640 200 720.5 279 c 128,-1,50
 801 358 801 358 859 454 c 128,-1,51
 917 550 917 550 940 643 c 1,52,53
 908 647 908 647 879 652.5 c 128,-1,54
 850 658 850 658 827.5 669.5 c 128,-1,55
 805 681 805 681 791.5 705.5 c 128,-1,56
 778 730 778 730 778 771 c 0,57,58
 778 825 778 825 807 877 c 0,59,60
 837 929 837 929 860 977 c 1,61,62
 802 1003 802 1003 741 1003 c 0,63,64
 655 1003 655 1003 569.5 965 c 128,-1,65
 484 927 484 927 408 866.5 c 128,-1,66
 332 806 332 806 271 732 c 128,-1,67
 210 658 210 658 175 585 c 0,68,69
 149 531 149 531 127 477 c 128,-1,70
 105 423 105 423 105 362 c 0,42,43
EndSplineSet
EndChar

StartChar: P
Encoding: 80 80 62
Width: 1199
VWidth: 1772
Flags: W
LayerCount: 2
Fore
SplineSet
1186 1196 m 0,0,1
 1240 1196 1240 1196 1276.5 1172.5 c 128,-1,2
 1313 1149 1313 1149 1333.5 1112.5 c 128,-1,3
 1354 1076 1354 1076 1363.5 1031 c 128,-1,4
 1373 986 1373 986 1373 940 c 0,5,6
 1373 854 1373 854 1339 746.5 c 128,-1,7
 1305 639 1305 639 1247.5 536.5 c 128,-1,8
 1190 434 1190 434 1114.5 351.5 c 128,-1,9
 1039 269 1039 269 956 235 c 0,10,11
 918 220 918 220 874.5 211.5 c 128,-1,12
 831 203 831 203 784.5 198.5 c 128,-1,13
 738 194 738 194 692.5 192.5 c 128,-1,14
 647 191 647 191 608 191 c 0,15,16
 588 191 588 191 570.5 213 c 128,-1,17
 553 235 553 235 536.5 265 c 128,-1,18
 520 295 520 295 508.5 325 c 128,-1,19
 497 355 497 355 488 371 c 1,20,21
 440 332 440 332 411 272.5 c 128,-1,22
 382 213 382 213 346 163 c 0,23,24
 303 107 303 107 272.5 46 c 128,-1,25
 242 -15 242 -15 196 -66 c 1,26,27
 181 -70 181 -70 148.5 -74.5 c 128,-1,28
 116 -79 116 -79 82 -86.5 c 128,-1,29
 48 -94 48 -94 17 -98.5 c 128,-1,30
 -14 -103 -14 -103 -27 -103 c 0,31,32
 -42 -103 -42 -103 -54 -102 c 0,33,34
 -66 -100 -66 -100 -78 -94 c 1,35,36
 -31 -20 -31 -20 15.5 49 c 128,-1,37
 62 118 62 118 116 187 c 0,38,39
 164 248 164 248 210 307.5 c 128,-1,40
 256 367 256 367 288 437 c 0,41,42
 317 506 317 506 349.5 574.5 c 128,-1,43
 382 643 382 643 411 710.5 c 128,-1,44
 440 778 440 778 463 848 c 128,-1,45
 486 918 486 918 497 994 c 1,46,-1
 342 994 l 1,47,48
 327 1037 327 1037 311 1080 c 0,49,50
 296 1124 296 1124 284 1166 c 1,51,52
 370 1185 370 1185 463 1184 c 0,53,54
 504 1184 504 1184 542 1180.5 c 128,-1,55
 580 1177 580 1177 610 1163 c 128,-1,56
 640 1149 640 1149 657 1119 c 0,57,58
 674 1087 674 1087 674 1035 c 0,59,60
 674 994 674 994 663 955.5 c 128,-1,61
 652 917 652 917 638 879.5 c 128,-1,62
 624 842 624 842 608.5 804.5 c 128,-1,63
 593 767 593 767 586 728 c 1,64,65
 618 762 618 762 662 810 c 128,-1,66
 706 858 706 858 755.5 910 c 128,-1,67
 805 962 805 962 860 1013 c 128,-1,68
 915 1064 915 1064 972 1105 c 128,-1,69
 1029 1146 1029 1146 1082.5 1171 c 128,-1,70
 1136 1196 1136 1196 1186 1196 c 0,0,1
503 379 m 1,71,72
 591 379 591 379 664 384.5 c 128,-1,73
 737 390 737 390 823 399 c 0,74,75
 866 404 866 404 903 419 c 128,-1,76
 940 434 940 434 971 465 c 0,77,78
 1005 499 1005 499 1042 553.5 c 128,-1,79
 1079 608 1079 608 1108.5 668 c 128,-1,80
 1138 728 1138 728 1157.5 788 c 128,-1,81
 1177 848 1177 848 1177 896 c 0,82,83
 1177 924 1177 924 1167.5 949.5 c 128,-1,84
 1158 975 1158 975 1136 994 c 1,85,86
 1088 981 1088 981 1031.5 942.5 c 128,-1,87
 975 904 975 904 913 849.5 c 128,-1,88
 851 795 851 795 791 729.5 c 128,-1,89
 731 664 731 664 676 600 c 128,-1,90
 621 536 621 536 576 478 c 128,-1,91
 531 420 531 420 503 379 c 1,71,72
EndSplineSet
EndChar

StartChar: Q
Encoding: 81 81 63
Width: 1144
VWidth: 1775
Flags: W
LayerCount: 2
Fore
SplineSet
877 1264 m 0,0,1
 968 1264 968 1264 1043.5 1234 c 128,-1,2
 1119 1204 1119 1204 1171.5 1151.5 c 128,-1,3
 1224 1099 1224 1099 1253.5 1023.5 c 128,-1,4
 1283 948 1283 948 1283 858 c 0,5,6
 1283 746 1283 746 1239.5 640 c 128,-1,7
 1196 534 1196 534 1126.5 441 c 128,-1,8
 1057 348 1057 348 967 274 c 128,-1,9
 877 200 877 200 784 151 c 0,10,11
 746 132 746 132 710 119 c 128,-1,12
 674 106 674 106 641 85 c 1,13,14
 656 82 656 82 671 82.5 c 128,-1,15
 686 83 686 83 699 83 c 0,16,17
 790 83 790 83 882 94 c 128,-1,18
 974 105 974 105 1064 105 c 0,19,20
 1079 105 1079 105 1093 81.5 c 128,-1,21
 1107 58 1107 58 1118 27.5 c 128,-1,22
 1129 -3 1129 -3 1136.5 -31 c 128,-1,23
 1144 -59 1144 -59 1146 -74 c 1,24,25
 962 -69 962 -69 781.5 -67 c 128,-1,26
 601 -65 601 -65 418 -65 c 0,27,28
 352 -65 352 -65 293 -82 c 128,-1,29
 234 -99 234 -99 173.5 -121.5 c 128,-1,30
 113 -144 113 -144 53 -164 c 128,-1,31
 -7 -184 -7 -184 -73 -188 c 1,32,33
 -68 -175 -68 -175 -50 -150 c 128,-1,34
 -32 -125 -32 -125 -8.5 -95 c 128,-1,35
 15 -65 15 -65 42 -32 c 128,-1,36
 69 1 69 1 94.5 28 c 128,-1,37
 120 55 120 55 140 72.5 c 128,-1,38
 160 90 160 90 173 94 c 0,39,40
 192 98 192 98 227 97 c 128,-1,41
 262 96 262 96 282 96 c 0,42,43
 308 96 308 96 335.5 97.5 c 128,-1,44
 363 99 363 99 389 106 c 0,45,46
 575 169 575 169 721 284.5 c 128,-1,47
 867 400 867 400 984 551 c 0,48,49
 1034 617 1034 617 1069 703.5 c 128,-1,50
 1104 790 1104 790 1104 874 c 0,51,52
 1104 937 1104 937 1080.5 979 c 128,-1,53
 1057 1021 1057 1021 1017 1047 c 128,-1,54
 977 1073 977 1073 926 1084 c 128,-1,55
 875 1095 875 1095 822 1095 c 0,56,57
 753 1095 753 1095 682 1058 c 128,-1,58
 611 1021 611 1021 551.5 964 c 128,-1,59
 492 907 492 907 447.5 838.5 c 128,-1,60
 403 770 403 770 385 709 c 0,61,62
 373 671 373 671 364.5 629.5 c 128,-1,63
 356 588 356 588 356 549 c 0,64,65
 356 498 356 498 370.5 458 c 128,-1,66
 385 418 385 418 410.5 388 c 128,-1,67
 436 358 436 358 472.5 334.5 c 0,68,69
 510 310 510 310 554 292 c 1,70,71
 496 222 496 222 427 166 c 1,72,73
 368 200 368 200 320.5 235 c 128,-1,74
 273 270 273 270 239.5 313 c 128,-1,75
 206 356 206 356 187.5 411.5 c 128,-1,76
 169 467 169 467 169 539 c 0,77,78
 169 574 169 574 176 607 c 0,79,80
 183 641 183 641 192 673 c 0,81,82
 207 729 207 729 222 784 c 0,83,84
 238 839 238 839 266 888 c 0,85,86
 368 1059 368 1059 519.5 1163 c 128,-1,87
 671 1267 671 1267 877 1264 c 0,0,1
EndSplineSet
EndChar

StartChar: R
Encoding: 82 82 64
Width: 1237
VWidth: 1768
Flags: W
LayerCount: 2
Fore
SplineSet
337 1199 m 0,0,1
 337 1211 337 1211 344 1223 c 128,-1,2
 351 1235 351 1235 365 1235 c 0,3,4
 372 1235 372 1235 382 1228 c 1,5,6
 445 1228 445 1228 514.5 1226.5 c 128,-1,7
 584 1225 584 1225 644 1210 c 0,8,9
 688 1198 688 1198 704 1161 c 128,-1,10
 720 1124 720 1124 717 1084 c 0,11,12
 717 1043 717 1043 706 1004 c 128,-1,13
 695 965 695 965 680.5 925.5 c 128,-1,14
 666 886 666 886 650.5 848.5 c 128,-1,15
 635 811 635 811 626 772 c 1,16,17
 658 804 658 804 702 849.5 c 128,-1,18
 746 895 746 895 799.5 944.5 c 128,-1,19
 853 994 853 994 910.5 1041.5 c 128,-1,20
 968 1089 968 1089 1026 1128 c 128,-1,21
 1084 1167 1084 1167 1137.5 1191.5 c 128,-1,22
 1191 1216 1191 1216 1237 1216 c 0,23,24
 1293 1216 1293 1216 1331 1191 c 128,-1,25
 1369 1166 1369 1166 1392.5 1127 c 128,-1,26
 1416 1088 1416 1088 1427 1039.5 c 128,-1,27
 1438 991 1438 991 1438 945 c 0,28,29
 1438 825 1438 825 1393.5 718.5 c 128,-1,30
 1349 612 1349 612 1278 518 c 0,31,32
 1205 420 1205 420 1104 361 c 128,-1,33
 1003 302 1003 302 885 282 c 1,34,35
 923 240 923 240 953 192.5 c 0,36,37
 983 144 983 144 1009 94 c 0,38,39
 1018 91 1018 91 1037 93 c 0,40,41
 1059 93 1059 93 1080.5 94.5 c 128,-1,42
 1102 96 1102 96 1124 96 c 0,43,44
 1163 96 1163 96 1188 86 c 1,45,46
 1204 42 1204 42 1223 -0 c 0,47,48
 1241 -43 1241 -43 1246 -91 c 1,49,50
 1218 -91 1218 -91 1170 -91 c 128,-1,51
 1122 -91 1122 -91 1071.5 -91 c 128,-1,52
 1021 -91 1021 -91 974 -89.5 c 0,53,54
 926 -88 926 -88 904 -82 c 0,55,56
 884 -78 884 -78 873 -55 c 128,-1,57
 862 -32 862 -32 853 -15 c 0,58,59
 814 61 814 61 770 124 c 0,60,61
 724 187 724 187 661 245 c 1,62,63
 617 261 617 261 569.5 258.5 c 128,-1,64
 522 256 522 256 476 269 c 1,65,66
 514 320 514 320 561 361 c 0,67,68
 607 402 607 402 661 437 c 1,69,70
 690 441 690 441 721 439 c 128,-1,71
 752 437 752 437 780 437 c 0,72,73
 869 437 869 437 956.5 480 c 128,-1,74
 1044 523 1044 523 1113.5 592.5 c 128,-1,75
 1183 662 1183 662 1225.5 749.5 c 128,-1,76
 1268 837 1268 837 1268 924 c 0,77,78
 1268 950 1268 950 1261.5 973.5 c 128,-1,79
 1255 997 1255 997 1236 1015 c 0,80,81
 1227 1019 1227 1019 1219 1020.5 c 0,82,83
 1212 1022 1212 1022 1202 1022 c 0,84,85
 1152 1022 1152 1022 1084.5 977.5 c 128,-1,86
 1017 933 1017 933 947.5 873.5 c 128,-1,87
 878 814 878 814 817 751.5 c 0,88,89
 756 688 756 688 723 652 c 0,90,91
 649 574 649 574 569.5 495 c 128,-1,92
 490 416 490 416 432 328 c 0,93,94
 420 312 420 312 401 279.5 c 128,-1,95
 382 247 382 247 357.5 206 c 128,-1,96
 333 165 333 165 305.5 121 c 128,-1,97
 278 77 278 77 252.5 40.5 c 128,-1,98
 227 4 227 4 205 -21 c 0,99,100
 182 -47 182 -47 169 -50 c 0,101,102
 108 -70 108 -70 45 -79 c 128,-1,103
 -18 -88 -18 -88 -83 -86 c 1,104,105
 -71 -52 -71 -52 -34 7.5 c 128,-1,106
 3 67 3 67 48.5 130.5 c 128,-1,107
 94 194 94 194 138.5 252.5 c 128,-1,108
 183 311 183 311 208 343 c 0,109,110
 321 484 321 484 399 639 c 0,111,112
 476 793 476 793 530 965 c 0,113,114
 536 984 536 984 536 1003 c 0,115,116
 536 1023 536 1023 530 1039 c 1,117,118
 502 1048 502 1048 477 1048 c 256,119,120
 453 1048 453 1048 429 1044.5 c 128,-1,121
 405 1041 405 1041 382 1041 c 1,122,123
 378 1050 378 1050 370.5 1073.5 c 128,-1,124
 363 1097 363 1097 355 1122 c 128,-1,125
 347 1147 347 1147 342 1169.5 c 128,-1,126
 337 1192 337 1192 337 1199 c 0,0,1
EndSplineSet
EndChar

StartChar: S
Encoding: 83 83 65
Width: 836
VWidth: 1768
Flags: W
LayerCount: 2
Fore
SplineSet
1032 1225 m 0,0,1
 1098 1225 1098 1225 1130 1184 c 128,-1,2
 1162 1143 1162 1143 1159 1084 c 0,3,4
 1159 1028 1159 1028 1125 958.5 c 128,-1,5
 1091 889 1091 889 1043 818.5 c 128,-1,6
 995 748 995 748 944 684.5 c 0,7,8
 893 620 893 620 857 580 c 1,9,-1
 634 580 l 1,10,11
 662 623 662 623 709.5 680.5 c 128,-1,12
 757 738 757 738 803.5 799.5 c 128,-1,13
 850 861 850 861 887 920 c 128,-1,14
 924 979 924 979 932 1024 c 1,15,-1
 915 1024 l 2,16,17
 881 1024 881 1024 832 1011 c 128,-1,18
 783 998 783 998 729 975 c 128,-1,19
 675 952 675 952 621 921 c 128,-1,20
 567 890 567 890 524.5 854 c 128,-1,21
 482 818 482 818 455 779.5 c 128,-1,22
 428 741 428 741 428 701 c 0,23,24
 428 673 428 673 449.5 640.5 c 128,-1,25
 471 608 471 608 504 573 c 128,-1,26
 537 538 537 538 575.5 497.5 c 128,-1,27
 614 457 614 457 647.5 415.5 c 128,-1,28
 681 374 681 374 703 329.5 c 0,29,30
 725 284 725 284 725 238 c 0,31,32
 725 200 725 200 713 164 c 128,-1,33
 701 128 701 128 681.5 93 c 128,-1,34
 662 58 662 58 635.5 27.5 c 0,35,36
 608 -3 608 -3 580 -21 c 0,37,38
 554 -37 554 -37 522.5 -47.5 c 128,-1,39
 491 -58 491 -58 458 -63.5 c 128,-1,40
 425 -69 425 -69 391.5 -70 c 128,-1,41
 358 -71 358 -71 328 -71 c 0,42,43
 176 -71 176 -71 23.5 -74.5 c 128,-1,44
 -129 -78 -129 -78 -281 -77 c 1,45,46
 -259 -27 -259 -27 -229.5 17.5 c 128,-1,47
 -200 62 -200 62 -169 109 c 1,48,-1
 312 106 l 2,49,50
 340 106 340 106 376.5 111 c 128,-1,51
 413 116 413 116 444.5 129.5 c 128,-1,52
 476 143 476 143 499.5 165 c 128,-1,53
 523 187 523 187 523 223 c 0,54,55
 523 257 523 257 499.5 290.5 c 128,-1,56
 476 324 476 324 443 359 c 128,-1,57
 410 394 410 394 370 431.5 c 128,-1,58
 330 469 330 469 295.5 510 c 128,-1,59
 261 551 261 551 238.5 597 c 128,-1,60
 216 643 216 643 216 691 c 0,61,62
 216 723 216 723 225.5 754 c 128,-1,63
 235 785 235 785 249 814 c 0,64,65
 303 907 303 907 392.5 982.5 c 128,-1,66
 482 1058 482 1058 588.5 1112 c 128,-1,67
 695 1166 695 1166 811 1195.5 c 128,-1,68
 927 1225 927 1225 1032 1225 c 0,0,1
EndSplineSet
EndChar

StartChar: T
Encoding: 84 84 66
Width: 731
VWidth: 1768
Flags: W
LayerCount: 2
Fore
SplineSet
924 1259 m 1,0,1
 919 1227 919 1227 908 1196 c 0,2,3
 896 1165 896 1165 886 1132 c 1,4,5
 956 1137 956 1137 1024.5 1147.5 c 128,-1,6
 1093 1158 1093 1158 1162 1167 c 1,7,-1
 1163 1151 l 2,8,9
 1163 1135 1163 1135 1156.5 1109.5 c 128,-1,10
 1150 1084 1150 1084 1140.5 1058 c 128,-1,11
 1131 1032 1131 1032 1120 1009 c 128,-1,12
 1109 986 1109 986 1100 975 c 0,13,14
 1087 960 1087 960 1072.5 959.5 c 128,-1,15
 1058 959 1058 959 1041 954 c 0,16,17
 983 949 983 949 925.5 943 c 0,18,19
 868 938 868 938 811 932 c 0,20,21
 799 927 799 927 789 920 c 128,-1,22
 779 913 779 913 773 902 c 0,23,24
 758 874 758 874 746 839 c 128,-1,25
 734 804 734 804 723 772 c 0,26,27
 695 702 695 702 666 633 c 128,-1,28
 637 564 637 564 608 494 c 0,29,30
 586 446 586 446 566.5 396 c 0,31,32
 546 346 546 346 526 295 c 0,33,34
 494 217 494 217 455.5 141 c 128,-1,35
 417 65 417 65 391 -18 c 0,36,37
 384 -38 384 -38 378 -56.5 c 128,-1,38
 372 -75 372 -75 346 -85 c 0,39,40
 299 -100 299 -100 246.5 -104 c 128,-1,41
 194 -108 194 -108 146 -113 c 1,42,43
 229 97 229 97 323 298.5 c 128,-1,44
 417 500 417 500 499 710 c 0,45,46
 515 754 515 754 535.5 799.5 c 128,-1,47
 556 845 556 845 573 889 c 1,48,49
 504 882 504 882 425 872.5 c 128,-1,50
 346 863 346 863 264 852.5 c 128,-1,51
 182 842 182 842 103 828 c 128,-1,52
 24 814 24 814 -43 801 c 1,53,54
 -50 810 -50 810 -57.5 823.5 c 128,-1,55
 -65 837 -65 837 -65 848 c 0,56,57
 -65 861 -65 861 -55.5 882.5 c 128,-1,58
 -46 904 -46 904 -32 927 c 128,-1,59
 -18 950 -18 950 -3 968.5 c 0,60,61
 12 986 12 986 23 994 c 0,62,63
 125 1010 125 1010 226.5 1024.5 c 128,-1,64
 328 1039 328 1039 430 1054 c 0,65,66
 478 1061 478 1061 527.5 1066 c 128,-1,67
 577 1071 577 1071 625 1080 c 0,68,69
 653 1085 653 1085 663 1107 c 128,-1,70
 673 1129 673 1129 680.5 1153 c 128,-1,71
 688 1177 688 1177 699 1199 c 0,72,73
 710 1220 710 1220 738 1228 c 0,74,75
 782 1241 782 1241 829.5 1250 c 128,-1,76
 877 1259 877 1259 924 1259 c 1,0,1
EndSplineSet
EndChar

StartChar: U
Encoding: 85 85 67
Width: 979
VWidth: 1768
Flags: W
LayerCount: 2
Fore
SplineSet
202 1246 m 0,0,1
 222 1246 222 1246 242.5 1239 c 128,-1,2
 263 1232 263 1232 282 1226 c 0,3,4
 352 1204 352 1204 399 1147.5 c 128,-1,5
 446 1091 446 1091 446 1012 c 0,6,7
 446 954 446 954 422.5 880 c 128,-1,8
 399 806 399 806 363.5 725 c 128,-1,9
 328 644 328 644 288.5 560.5 c 128,-1,10
 249 477 249 477 213.5 402.5 c 128,-1,11
 178 328 178 328 155 266.5 c 0,12,13
 132 204 132 204 132 166 c 0,14,15
 129 142 129 142 147 120.5 c 128,-1,16
 165 99 165 99 191 99 c 0,17,18
 219 99 219 99 257 117.5 c 128,-1,19
 295 136 295 136 333 163 c 128,-1,20
 371 190 371 190 403.5 218 c 128,-1,21
 436 246 436 246 456 266 c 0,22,23
 478 288 478 288 507.5 321 c 128,-1,24
 537 354 537 354 565.5 390 c 128,-1,25
 594 426 594 426 619 462.5 c 0,26,27
 644 498 644 498 658 526 c 0,28,29
 687 587 687 587 712 649 c 128,-1,30
 737 711 737 711 762.5 772.5 c 128,-1,31
 788 834 788 834 816.5 894.5 c 128,-1,32
 845 955 845 955 882 1014 c 0,33,34
 891 1029 891 1029 901.5 1050 c 128,-1,35
 912 1071 912 1071 922.5 1091.5 c 128,-1,36
 933 1112 933 1112 948.5 1127 c 128,-1,37
 964 1142 964 1142 980 1148 c 0,38,39
 1000 1155 1000 1155 1030 1162 c 128,-1,40
 1060 1169 1060 1169 1091.5 1174 c 128,-1,41
 1123 1179 1123 1179 1153.5 1183.5 c 128,-1,42
 1184 1188 1184 1188 1208 1188 c 0,43,44
 1213 1188 1213 1188 1219 1186.5 c 128,-1,45
 1225 1185 1225 1185 1233 1185 c 1,46,47
 1218 1131 1218 1131 1192.5 1092 c 128,-1,48
 1167 1053 1167 1053 1142 1007 c 0,49,50
 1127 983 1127 983 1117 957.5 c 128,-1,51
 1107 932 1107 932 1094 904 c 0,52,53
 1056 834 1056 834 1016.5 763.5 c 128,-1,54
 977 693 977 693 932 628 c 0,55,56
 893 569 893 569 856 520 c 0,57,58
 819 470 819 470 798 400 c 0,59,60
 782 341 782 341 767 280.5 c 128,-1,61
 752 220 752 220 752 158 c 0,62,63
 752 136 752 136 778 124.5 c 128,-1,64
 804 113 804 113 839 109.5 c 128,-1,65
 874 106 874 106 908.5 107.5 c 128,-1,66
 943 109 943 109 959 109 c 1,67,68
 935 62 935 62 915 15.5 c 128,-1,69
 895 -31 895 -31 870 -76 c 1,70,71
 848 -76 848 -76 826 -76.5 c 128,-1,72
 804 -77 804 -77 781 -77 c 0,73,74
 737 -77 737 -77 698 -73.5 c 128,-1,75
 659 -70 659 -70 630 -55 c 128,-1,76
 601 -40 601 -40 585 -9.5 c 128,-1,77
 569 21 569 21 569 77 c 0,78,79
 569 103 569 103 572.5 127 c 128,-1,80
 576 151 576 151 576 176 c 1,81,82
 535 132 535 132 487.5 85 c 128,-1,83
 440 38 440 38 387.5 -1 c 128,-1,84
 335 -40 335 -40 275 -65 c 128,-1,85
 215 -90 215 -90 151 -90 c 0,86,87
 104 -90 104 -90 64 -72.5 c 128,-1,88
 24 -55 24 -55 -5.5 -25.5 c 128,-1,89
 -35 4 -35 4 -52 44.5 c 128,-1,90
 -69 85 -69 85 -69 131 c 0,91,92
 -66 204 -66 204 -42.5 280 c 128,-1,93
 -19 356 -19 356 11 424 c 0,94,95
 65 544 65 544 120.5 659.5 c 128,-1,96
 176 775 176 775 213 900 c 0,97,98
 222 932 222 932 222 955 c 0,99,100
 222 981 222 981 213.5 1005.5 c 128,-1,101
 205 1030 205 1030 184 1048 c 1,102,-1
 50 1071 l 1,103,104
 57 1086 57 1086 75.5 1115 c 128,-1,105
 94 1144 94 1144 117.5 1173 c 128,-1,106
 141 1202 141 1202 163.5 1224 c 128,-1,107
 186 1246 186 1246 202 1246 c 0,0,1
EndSplineSet
EndChar

StartChar: hyphen
Encoding: 45 45 68
Width: 713
VWidth: 1790
Flags: W
LayerCount: 2
Fore
SplineSet
160 518 m 1,0,-1
 705 518 l 1,1,-1
 644 363 l 1,2,-1
 101 363 l 1,3,-1
 160 518 l 1,0,-1
EndSplineSet
EndChar

StartChar: zero
Encoding: 48 48 69
Width: 844
VWidth: 1787
Flags: W
LayerCount: 2
Fore
SplineSet
516 962 m 0,0,1
 599 962 599 962 668.5 932 c 128,-1,2
 738 902 738 902 788.5 851 c 128,-1,3
 839 800 839 800 866 729.5 c 128,-1,4
 893 659 893 659 893 576 c 0,5,6
 893 459 893 459 850 344 c 128,-1,7
 807 229 807 229 731.5 136.5 c 128,-1,8
 656 44 656 44 551.5 -12.5 c 128,-1,9
 447 -69 447 -69 324 -69 c 0,10,11
 261 -69 261 -69 200.5 -48.5 c 128,-1,12
 140 -28 140 -28 89.5 9.5 c 128,-1,13
 39 47 39 47 3.5 99.5 c 128,-1,14
 -32 152 -32 152 -40 218 c 0,15,16
 -45 262 -45 262 -44 307 c 0,17,18
 -44 370 -44 370 -31 439.5 c 128,-1,19
 -18 509 -18 509 8.5 576.5 c 128,-1,20
 35 644 35 644 72 705.5 c 128,-1,21
 109 767 109 767 156 811 c 0,22,23
 190 840 190 840 232 868 c 128,-1,24
 274 896 274 896 322.5 916.5 c 128,-1,25
 371 937 371 937 420 949.5 c 128,-1,26
 469 962 469 962 516 962 c 0,0,1
112 285 m 0,27,28
 112 270 112 270 117 252 c 128,-1,29
 122 234 122 234 131 214.5 c 128,-1,30
 140 195 140 195 149.5 178 c 128,-1,31
 159 161 159 161 168 149 c 0,32,33
 194 121 194 121 238 108.5 c 128,-1,34
 282 96 282 96 315 96 c 0,35,36
 391 96 391 96 454.5 128.5 c 128,-1,37
 518 161 518 161 566 212 c 128,-1,38
 614 263 614 263 648.5 328 c 128,-1,39
 683 393 683 393 703 459 c 0,40,41
 712 488 712 488 718 515 c 128,-1,42
 724 542 724 542 724 573 c 0,43,44
 727 674 727 674 670.5 734.5 c 128,-1,45
 614 795 614 795 512 795 c 0,46,47
 414 795 414 795 344 750.5 c 128,-1,48
 274 706 274 706 228 635 c 128,-1,49
 182 564 182 564 155 478.5 c 128,-1,50
 128 393 128 393 117 313 c 0,51,52
 112 294 112 294 112 285 c 0,27,28
EndSplineSet
EndChar

StartChar: V
Encoding: 86 86 70
Width: 631
VWidth: 1771
Flags: W
LayerCount: 2
Fore
SplineSet
363 1191 m 0,0,1
 372 1191 372 1191 382 1190 c 0,2,3
 393 1190 393 1190 402 1188 c 1,4,5
 351 1037 351 1037 301.5 885.5 c 128,-1,6
 252 734 252 734 213 580 c 0,7,8
 194 502 194 502 171.5 424.5 c 128,-1,9
 149 347 149 347 138 268 c 1,10,11
 186 294 186 294 225.5 338 c 0,12,13
 266 382 266 382 302 422 c 0,14,15
 457 595 457 595 592 778 c 0,16,17
 727 960 727 960 847 1156 c 0,18,19
 856 1171 856 1171 865.5 1179.5 c 128,-1,20
 875 1188 875 1188 894 1188 c 0,21,22
 942 1188 942 1188 990.5 1186 c 128,-1,23
 1039 1184 1039 1184 1085 1178 c 1,24,25
 1069 1139 1069 1139 1043 1105.5 c 0,26,27
 1016 1072 1016 1072 994 1037 c 0,28,29
 838 798 838 798 668.5 571 c 128,-1,30
 499 344 499 344 286 148 c 0,31,32
 251 116 251 116 216.5 81.5 c 128,-1,33
 182 47 182 47 144 14.5 c 128,-1,34
 106 -18 106 -18 65 -45 c 128,-1,35
 24 -72 24 -72 -20 -88 c 1,36,37
 -29 -69 -29 -69 -43.5 -50.5 c 128,-1,38
 -58 -32 -58 -32 -58 -11 c 0,39,40
 -55 265 -55 265 7.5 529 c 128,-1,41
 70 793 70 793 156 1056 c 0,42,43
 165 1084 165 1084 173.5 1123 c 128,-1,44
 182 1162 182 1162 202 1182 c 0,45,46
 211 1191 211 1191 232.5 1188 c 128,-1,47
 254 1185 254 1185 263 1185 c 0,48,49
 289 1185 289 1185 313 1188 c 128,-1,50
 337 1191 337 1191 363 1191 c 0,0,1
EndSplineSet
EndChar

StartChar: one
Encoding: 49 49 71
Width: 418
VWidth: 1786
Flags: W
LayerCount: 2
Fore
SplineSet
574 951 m 1,0,1
 469 708 469 708 373.5 464.5 c 128,-1,2
 278 221 278 221 171 -21 c 1,3,4
 132 -28 132 -28 93 -36 c 128,-1,5
 54 -44 54 -44 13 -44 c 0,6,7
 4 -44 4 -44 -5 -44 c 128,-1,8
 -14 -44 -14 -44 -23 -42 c 1,9,10
 35 79 35 79 85 201.5 c 128,-1,11
 135 324 135 324 187 446 c 0,12,13
 219 519 219 519 252 592.5 c 128,-1,14
 285 666 285 666 308 743 c 1,15,16
 254 731 254 731 200 716.5 c 128,-1,17
 146 702 146 702 93 686 c 1,18,19
 81 720 81 720 71 752 c 128,-1,20
 61 784 61 784 55 819 c 1,21,22
 74 824 74 824 116.5 835.5 c 128,-1,23
 159 847 159 847 212.5 862.5 c 128,-1,24
 266 878 266 878 324.5 893.5 c 128,-1,25
 383 909 383 909 434.5 922 c 128,-1,26
 486 935 486 935 523.5 943 c 128,-1,27
 561 951 561 951 574 951 c 1,0,1
EndSplineSet
EndChar

StartChar: two
Encoding: 50 50 72
Width: 917
VWidth: 1791
Flags: W
LayerCount: 2
Fore
SplineSet
748 956 m 0,0,1
 802 956 802 956 849 939 c 128,-1,2
 896 922 896 922 932 890.5 c 128,-1,3
 968 859 968 859 988.5 815.5 c 128,-1,4
 1009 772 1009 772 1009 716 c 0,5,6
 1009 666 1009 666 993 620 c 128,-1,7
 977 574 977 574 952.5 532.5 c 128,-1,8
 928 491 928 491 896 452 c 0,9,10
 864 412 864 412 833 380 c 0,11,12
 759 301 759 301 668 244 c 128,-1,13
 577 187 577 187 483 130 c 1,14,15
 507 127 507 127 530.5 127.5 c 128,-1,16
 554 128 554 128 577 128 c 0,17,18
 671 125 671 125 764 130 c 128,-1,19
 857 135 857 135 951 135 c 1,20,21
 932 91 932 91 905 54 c 128,-1,22
 878 17 878 17 860 -28 c 1,23,-1
 303 -27 l 2,24,25
 264 -27 264 -27 227 -38.5 c 128,-1,26
 190 -50 190 -50 151.5 -65.5 c 128,-1,27
 113 -81 113 -81 75.5 -92.5 c 128,-1,28
 38 -104 38 -104 -4 -104 c 0,29,30
 -29 -104 -29 -104 -52 -99 c 1,31,32
 -48 -90 -48 -90 -22.5 -55.5 c 128,-1,33
 3 -21 3 -21 34 18.5 c 128,-1,34
 65 58 65 58 91.5 89.5 c 128,-1,35
 118 121 118 121 128 124 c 0,36,37
 154 137 154 137 183.5 133.5 c 0,38,39
 212 130 212 130 238 144 c 0,40,41
 320 188 320 188 400 236 c 0,42,43
 480 285 480 285 550 346 c 0,44,45
 584 374 584 374 632 414 c 128,-1,46
 680 454 680 454 725 500.5 c 128,-1,47
 770 547 770 547 801 597 c 0,48,49
 833 648 833 648 833 697 c 0,50,51
 833 741 833 741 796.5 765.5 c 128,-1,52
 760 790 760 790 717 790 c 0,53,54
 650 790 650 790 587 765.5 c 128,-1,55
 524 741 524 741 465 703.5 c 128,-1,56
 406 666 406 666 351 621.5 c 128,-1,57
 296 577 296 577 246 538 c 1,58,59
 249 585 249 585 253.5 639.5 c 128,-1,60
 258 694 258 694 270 738 c 0,61,62
 275 760 275 760 290 773 c 0,63,64
 306 785 306 785 322 798 c 0,65,66
 369 830 369 830 420 858 c 128,-1,67
 471 886 471 886 524.5 909 c 128,-1,68
 578 932 578 932 635 944 c 128,-1,69
 692 956 692 956 748 956 c 0,0,1
EndSplineSet
EndChar

StartChar: three
Encoding: 51 51 73
Width: 765
VWidth: 1790
Flags: W
LayerCount: 2
Fore
SplineSet
545 935 m 0,0,1
 592 935 592 935 645 925 c 128,-1,2
 698 915 698 915 741.5 891.5 c 128,-1,3
 785 868 785 868 813.5 828 c 128,-1,4
 842 788 842 788 842 730 c 0,5,6
 842 695 842 695 829 650.5 c 128,-1,7
 816 606 816 606 798 574 c 0,8,9
 786 554 786 554 765.5 536 c 128,-1,10
 745 518 745 518 721.5 504.5 c 128,-1,11
 698 491 698 491 672.5 479 c 128,-1,12
 647 467 647 467 627 456 c 1,13,14
 686 424 686 424 719.5 366 c 128,-1,15
 753 308 753 308 753 239 c 0,16,17
 753 156 753 156 711.5 99.5 c 128,-1,18
 670 43 670 43 607.5 8 c 128,-1,19
 545 -27 545 -27 469.5 -41 c 128,-1,20
 394 -55 394 -55 327 -55 c 0,21,22
 301 -55 301 -55 255.5 -51.5 c 128,-1,23
 210 -48 210 -48 161 -42 c 128,-1,24
 112 -36 112 -36 67.5 -28 c 128,-1,25
 23 -20 23 -20 1 -11 c 1,26,27
 -18 32 -18 32 -22.5 78.5 c 128,-1,28
 -27 125 -27 125 -41 168 c 1,29,30
 7 161 7 161 50 152.5 c 128,-1,31
 93 144 93 144 135.5 137.5 c 128,-1,32
 178 131 178 131 221.5 126.5 c 128,-1,33
 265 122 265 122 315 122 c 0,34,35
 343 122 343 122 387.5 125.5 c 128,-1,36
 432 129 432 129 475 141 c 128,-1,37
 518 153 518 153 549 175.5 c 128,-1,38
 580 198 580 198 580 237 c 0,39,40
 580 266 580 266 561 285 c 1,41,42
 541 332 541 332 495 352 c 128,-1,43
 449 372 449 372 394.5 377.5 c 128,-1,44
 340 383 340 383 285 381 c 128,-1,45
 230 379 230 379 188 383 c 1,46,47
 204 431 204 431 226 477 c 128,-1,48
 248 523 248 523 270 569 c 1,49,50
 304 565 304 565 337.5 562 c 128,-1,51
 371 559 371 559 403 559 c 0,52,53
 435 559 435 559 479 566.5 c 128,-1,54
 523 574 523 574 563 593 c 128,-1,55
 603 612 603 612 631 641 c 128,-1,56
 659 670 659 670 659 713 c 0,57,58
 659 733 659 733 639.5 743.5 c 128,-1,59
 620 754 620 754 592.5 760.5 c 128,-1,60
 565 767 565 767 537.5 767.5 c 128,-1,61
 510 768 510 768 495 768 c 0,62,63
 421 771 421 771 348.5 756.5 c 128,-1,64
 276 742 276 742 206 725 c 1,65,66
 218 772 218 772 236 813.5 c 128,-1,67
 254 855 254 855 280 896 c 0,68,69
 292 916 292 916 305.5 916 c 128,-1,70
 319 916 319 916 339 918 c 0,71,72
 390 922 390 922 440.5 928.5 c 128,-1,73
 491 935 491 935 545 935 c 0,0,1
EndSplineSet
EndChar

StartChar: four
Encoding: 52 52 74
Width: 835
VWidth: 1790
Flags: W
LayerCount: 2
Fore
SplineSet
785 935 m 1,0,1
 813 939 813 939 840 943 c 128,-1,2
 867 947 867 947 894 947 c 0,3,4
 907 947 907 947 918 945 c 0,5,6
 930 943 930 943 940 941 c 1,7,8
 940 928 940 928 948 928 c 1,9,10
 905 840 905 840 870 751 c 128,-1,11
 835 662 835 662 798 573 c 0,12,13
 783 535 783 535 768 501 c 128,-1,14
 753 467 753 467 738 429 c 0,15,16
 731 409 731 409 726.5 389 c 128,-1,17
 722 369 722 369 716 347 c 1,18,-1
 865 347 l 1,19,-1
 798 192 l 1,20,-1
 650 192 l 1,21,22
 624 133 624 133 603 74 c 128,-1,23
 582 15 582 15 551 -39 c 1,24,25
 503 -51 503 -51 454.5 -56 c 128,-1,26
 406 -61 406 -61 358 -66 c 1,27,28
 390 -3 390 -3 421.5 59.5 c 128,-1,29
 453 122 453 122 472 194 c 1,30,31
 384 194 384 194 297.5 192.5 c 128,-1,32
 211 191 211 191 124 191 c 256,33,34
 36 191 36 191 -50 195 c 1,35,36
 -34 246 -34 246 -11.5 296 c 128,-1,37
 11 346 11 346 55 379 c 0,38,39
 238 520 238 520 421.5 655 c 128,-1,40
 605 790 605 790 785 935 c 1,0,1
681 682 m 1,41,42
 630 654 630 654 591.5 616 c 128,-1,43
 553 578 553 578 508 542 c 0,44,45
 445 488 445 488 374.5 444 c 128,-1,46
 304 400 304 400 241 343 c 1,47,-1
 494 340 l 2,48,49
 510 345 510 345 526.5 345.5 c 128,-1,50
 543 346 543 346 553 363 c 0,51,52
 560 375 560 375 565 390.5 c 128,-1,53
 570 406 570 406 574 420 c 0,54,55
 600 486 600 486 631 549.5 c 128,-1,56
 662 613 662 613 681 682 c 1,57,-1
 681 682 l 1,41,42
EndSplineSet
EndChar

StartChar: five
Encoding: 53 53 75
Width: 754
VWidth: 1790
Flags: W
LayerCount: 2
Fore
SplineSet
374 932 m 2,0,-1
 871 929 l 1,1,2
 859 885 859 885 841.5 844.5 c 128,-1,3
 824 804 824 804 805 760 c 1,4,5
 739 760 739 760 675.5 762 c 128,-1,6
 612 764 612 764 546 764 c 0,7,8
 514 764 514 764 482 763.5 c 0,9,10
 450 762 450 762 418 760 c 1,11,12
 402 704 402 704 374 653.5 c 128,-1,13
 346 603 346 603 328 547 c 1,14,15
 376 551 376 551 423.5 561 c 128,-1,16
 471 571 471 571 519 571 c 0,17,18
 543 571 543 571 573 566.5 c 128,-1,19
 603 562 603 562 631.5 552 c 128,-1,20
 660 542 660 542 686.5 526.5 c 128,-1,21
 713 511 713 511 729 494 c 0,22,23
 745 474 745 474 752.5 437 c 128,-1,24
 760 400 760 400 760 374 c 0,25,26
 760 273 760 273 711.5 205 c 128,-1,27
 663 137 663 137 586 77 c 0,28,29
 481 -2 481 -2 359 -29 c 128,-1,30
 237 -56 237 -56 106 -56 c 0,31,32
 45 -56 45 -56 17 -51.5 c 128,-1,33
 -11 -47 -11 -47 -21 -29 c 128,-1,34
 -31 -11 -31 -11 -32.5 27 c 128,-1,35
 -34 65 -34 65 -43 131 c 1,36,37
 8 127 8 127 60 124 c 128,-1,38
 112 121 112 121 165 121 c 0,39,40
 277 121 277 121 370.5 156 c 128,-1,41
 464 191 464 191 543 270 c 0,42,43
 571 298 571 298 575.5 322 c 128,-1,44
 580 346 580 346 588 382 c 1,45,46
 530 408 530 408 460 409 c 0,47,48
 386 412 386 412 314 390.5 c 128,-1,49
 242 369 242 369 172 355 c 1,50,51
 160 384 160 384 147.5 412.5 c 0,52,53
 135 440 135 440 135 472 c 0,54,55
 135 479 135 479 147 507.5 c 128,-1,56
 159 536 159 536 175 569.5 c 128,-1,57
 191 603 191 603 205.5 632.5 c 128,-1,58
 220 662 220 662 226 673 c 0,59,60
 250 731 250 731 270 788.5 c 128,-1,61
 290 846 290 846 315 904 c 0,62,63
 324 926 324 926 338 930.5 c 128,-1,64
 352 935 352 935 374 932 c 2,0,-1
EndSplineSet
EndChar

StartChar: six
Encoding: 54 54 76
Width: 668
VWidth: 1783
Flags: W
LayerCount: 2
Fore
SplineSet
584 1013 m 1,0,1
 632 1013 632 1013 677.5 1003.5 c 0,2,3
 724 994 724 994 770 983 c 1,4,5
 738 929 738 929 686 886 c 0,6,7
 633 843 633 843 590 798 c 0,8,9
 536 739 536 739 475 687 c 128,-1,10
 414 635 414 635 366 567 c 1,11,12
 386 570 386 570 405 571 c 128,-1,13
 424 572 424 572 445 572 c 0,14,15
 539 572 539 572 591.5 521.5 c 128,-1,16
 644 471 644 471 644 375 c 0,17,18
 644 297 644 297 604.5 216 c 128,-1,19
 565 135 565 135 502 68 c 128,-1,20
 439 1 439 1 360 -41 c 128,-1,21
 281 -83 281 -83 202 -83 c 0,22,23
 148 -83 148 -83 103.5 -64.5 c 128,-1,24
 59 -46 59 -46 29 -13 c 128,-1,25
 -1 20 -1 20 -18 64.5 c 128,-1,26
 -35 109 -35 109 -35 163 c 0,27,28
 -35 257 -35 257 19 363 c 128,-1,29
 73 469 73 469 151.5 570 c 128,-1,30
 230 671 230 671 315.5 760.5 c 128,-1,31
 401 850 401 850 464 909 c 0,32,33
 493 937 493 937 519 967 c 128,-1,34
 545 997 545 997 584 1013 c 1,0,1
129 198 m 0,35,36
 129 148 129 148 142 117 c 128,-1,37
 155 86 155 86 214 86 c 0,38,39
 264 86 264 86 310 112 c 128,-1,40
 356 138 356 138 392 179 c 128,-1,41
 428 220 428 220 449.5 269.5 c 128,-1,42
 471 319 471 319 471 366 c 0,43,44
 471 407 471 407 436 430.5 c 128,-1,45
 401 454 401 454 365 454 c 0,46,47
 356 454 356 454 347 453 c 128,-1,48
 338 452 338 452 328 450 c 0,49,50
 281 438 281 438 252 406.5 c 128,-1,51
 223 375 223 375 195 339 c 0,52,53
 175 310 175 310 152 273 c 128,-1,54
 129 236 129 236 129 198 c 0,35,36
EndSplineSet
EndChar

StartChar: seven
Encoding: 55 55 77
Width: 540
VWidth: 1790
Flags: W
LayerCount: 2
Fore
SplineSet
58 927 m 1,0,1
 92 924 92 924 125 924 c 128,-1,2
 158 924 158 924 190 924 c 0,3,4
 333 924 333 924 473 930 c 128,-1,5
 613 936 613 936 756 940 c 1,6,7
 744 892 744 892 715.5 856 c 128,-1,8
 687 820 687 820 659 783 c 0,9,10
 542 625 542 625 433.5 461 c 128,-1,11
 325 297 325 297 241 117 c 0,12,13
 226 85 226 85 213 52 c 128,-1,14
 200 19 200 19 180 -9 c 1,15,16
 126 -28 126 -28 72.5 -43 c 128,-1,17
 19 -58 19 -58 -35 -69 c 1,18,19
 -13 1 -13 1 24 69 c 128,-1,20
 61 137 61 137 93 206 c 0,21,22
 127 280 127 280 168.5 349 c 128,-1,23
 210 418 210 418 256.5 487.5 c 128,-1,24
 303 557 303 557 348 625 c 0,25,26
 392 692 392 692 436 760 c 1,27,28
 323 763 323 763 209.5 759.5 c 128,-1,29
 96 756 96 756 -16 756 c 1,30,31
 -4 803 -4 803 15 844.5 c 128,-1,32
 34 886 34 886 58 927 c 1,0,1
EndSplineSet
EndChar

StartChar: eight
Encoding: 56 56 78
Width: 706
VWidth: 1787
Flags: W
LayerCount: 2
Fore
SplineSet
506 943 m 0,0,1
 560 943 560 943 611 927.5 c 128,-1,2
 662 912 662 912 702 883 c 128,-1,3
 742 854 742 854 766 809.5 c 128,-1,4
 790 765 790 765 790 706 c 0,5,6
 790 652 790 652 771 612 c 128,-1,7
 752 572 752 572 720.5 540.5 c 128,-1,8
 689 509 689 509 649 486 c 0,9,10
 608 463 608 463 567 444 c 1,11,12
 605 402 605 402 622.5 348.5 c 128,-1,13
 640 295 640 295 640 241 c 0,14,15
 640 163 640 163 610 107.5 c 128,-1,16
 580 52 580 52 531 16 c 128,-1,17
 482 -20 482 -20 418 -37 c 128,-1,18
 354 -54 354 -54 284 -54 c 0,19,20
 217 -54 217 -54 151 -39 c 128,-1,21
 85 -24 85 -24 32.5 8.5 c 128,-1,22
 -20 41 -20 41 -51.5 94.5 c 128,-1,23
 -83 148 -83 148 -83 227 c 0,24,25
 -83 285 -83 285 -57.5 337.5 c 128,-1,26
 -32 390 -32 390 9.5 429 c 128,-1,27
 51 468 51 468 105.5 490 c 128,-1,28
 160 512 160 512 218 512 c 1,29,30
 196 550 196 550 178 591 c 128,-1,31
 160 632 160 632 160 676 c 0,32,33
 160 745 160 745 191.5 795 c 128,-1,34
 223 845 223 845 273.5 878.5 c 128,-1,35
 324 912 324 912 385.5 927.5 c 128,-1,36
 447 943 447 943 506 943 c 0,0,1
450 795 m 0,37,38
 428 795 428 795 403.5 785 c 128,-1,39
 379 775 379 775 358 758 c 128,-1,40
 337 741 337 741 323 719 c 128,-1,41
 309 697 309 697 309 674 c 0,42,43
 309 645 309 645 322 624.5 c 128,-1,44
 335 604 335 604 356.5 592 c 128,-1,45
 378 580 378 580 403 575 c 128,-1,46
 428 570 428 570 452 570 c 0,47,48
 481 570 481 570 513.5 579 c 128,-1,49
 546 588 546 588 572.5 604 c 128,-1,50
 599 620 599 620 616.5 645 c 128,-1,51
 634 670 634 670 634 706 c 0,52,53
 634 721 634 721 628.5 730.5 c 128,-1,54
 623 740 623 740 613 749 c 0,55,56
 575 784 575 784 536.5 789.5 c 128,-1,57
 498 795 498 795 450 795 c 0,37,38
77 225 m 0,58,59
 77 191 77 191 93 169.5 c 128,-1,60
 109 148 109 148 134 134.5 c 128,-1,61
 159 121 159 121 188.5 115.5 c 128,-1,62
 218 110 218 110 245 110 c 0,63,64
 283 110 283 110 324 115.5 c 128,-1,65
 365 121 365 121 400.5 138 c 128,-1,66
 436 155 436 155 459 184.5 c 128,-1,67
 482 214 482 214 482 262 c 0,68,69
 482 300 482 300 464.5 323.5 c 128,-1,70
 447 347 447 347 420 362 c 128,-1,71
 393 377 393 377 361.5 383 c 128,-1,72
 330 389 330 389 300 389 c 0,73,74
 261 389 261 389 222 380.5 c 128,-1,75
 183 372 183 372 150.5 352 c 128,-1,76
 118 332 118 332 97.5 300.5 c 128,-1,77
 77 269 77 269 77 225 c 0,58,59
EndSplineSet
EndChar

StartChar: nine
Encoding: 57 57 79
Width: 690
VWidth: 1782
Flags: W
LayerCount: 2
Fore
SplineSet
492 1024 m 0,0,1
 621 1021 621 1021 682 953.5 c 128,-1,2
 743 886 743 886 743 761 c 0,3,4
 743 688 743 688 708 608.5 c 128,-1,5
 673 529 673 529 622 449 c 128,-1,6
 571 369 571 369 512.5 298 c 128,-1,7
 454 227 454 227 406 178 c 0,8,9
 345 115 345 115 284 48.5 c 128,-1,10
 223 -18 223 -18 151 -68 c 0,11,12
 142 -72 142 -72 131 -71.5 c 128,-1,13
 120 -71 120 -71 110 -71 c 0,14,15
 72 -71 72 -71 37.5 -61.5 c 128,-1,16
 3 -52 3 -52 -35 -43 c 1,17,18
 -23 -11 -23 -11 4.5 11.5 c 128,-1,19
 32 34 32 34 55 61 c 0,20,21
 128 139 128 139 206 210 c 128,-1,22
 284 281 284 281 346 371 c 1,23,24
 324 367 324 367 302 365 c 128,-1,25
 280 363 280 363 257 363 c 0,26,27
 153 366 153 366 109.5 420.5 c 128,-1,28
 66 475 66 475 66 573 c 0,29,30
 66 652 66 652 102 733 c 128,-1,31
 138 814 138 814 196.5 879 c 128,-1,32
 255 944 255 944 332 984 c 128,-1,33
 409 1024 409 1024 492 1024 c 0,0,1
243 574 m 0,34,35
 243 535 243 535 268 507.5 c 128,-1,36
 293 480 293 480 335 480 c 0,37,38
 378 480 378 480 421 508.5 c 128,-1,39
 464 537 464 537 497 581 c 128,-1,40
 530 625 530 625 551 674 c 128,-1,41
 572 723 572 723 572 761 c 0,42,43
 572 804 572 804 551.5 827.5 c 128,-1,44
 531 851 531 851 489 851 c 0,45,46
 438 851 438 851 392.5 826 c 128,-1,47
 347 801 347 801 315.5 761.5 c 128,-1,48
 284 722 284 722 263.5 672 c 128,-1,49
 243 622 243 622 243 574 c 0,34,35
EndSplineSet
EndChar

StartChar: W
Encoding: 87 87 80
Width: 1089
VWidth: 1771
Flags: W
LayerCount: 2
Fore
SplineSet
184 1174 m 1,0,1
 245 1196 245 1196 311 1197 c 0,2,3
 349 1197 349 1197 378 1190 c 1,4,5
 281 953 281 953 217 710.5 c 128,-1,6
 153 468 153 468 114 216 c 1,7,8
 157 240 157 240 211.5 294 c 128,-1,9
 266 348 266 348 322 411.5 c 128,-1,10
 378 475 378 475 427 536.5 c 128,-1,11
 476 598 476 598 510 640 c 0,12,13
 539 679 539 679 559.5 723 c 128,-1,14
 580 767 580 767 595.5 811 c 128,-1,15
 611 855 611 855 623.5 902 c 0,16,17
 636 948 636 948 651 994 c 2,18,-1
 720 1196 l 1,19,-1
 913 1196 l 1,20,21
 866 1051 866 1051 825.5 907 c 0,22,23
 785 762 785 762 748 616 c 0,24,25
 726 530 726 530 702 447 c 128,-1,26
 678 364 678 364 671 275 c 1,27,28
 715 313 715 313 777 380 c 128,-1,29
 839 447 839 447 908.5 531.5 c 128,-1,30
 978 616 978 616 1048.5 711 c 128,-1,31
 1119 806 1119 806 1181.5 896 c 128,-1,32
 1244 986 1244 986 1293 1064 c 128,-1,33
 1342 1142 1342 1142 1365 1193 c 1,34,35
 1421 1193 1421 1193 1477 1191.5 c 0,36,37
 1532 1190 1532 1190 1588 1184 c 1,38,39
 1559 1115 1559 1115 1515.5 1054.5 c 128,-1,40
 1472 994 1472 994 1431 933 c 0,41,42
 1353 812 1353 812 1270.5 697 c 128,-1,43
 1188 582 1188 582 1093 472 c 0,44,45
 1061 433 1061 433 1027.5 398.5 c 128,-1,46
 994 364 994 364 960 327 c 0,47,48
 925 288 925 288 866 223 c 128,-1,49
 807 158 807 158 740 93.5 c 128,-1,50
 673 29 673 29 607.5 -20 c 128,-1,51
 542 -69 542 -69 491 -79 c 1,52,53
 471 -51 471 -51 462.5 -19 c 128,-1,54
 454 13 454 13 454 46 c 0,55,56
 457 135 457 135 478 224 c 128,-1,57
 499 313 499 313 508 402 c 1,58,59
 464 363 464 363 431.5 314.5 c 128,-1,60
 399 266 399 266 359 225 c 0,61,62
 344 209 344 209 314.5 179 c 128,-1,63
 285 149 285 149 247.5 117.5 c 128,-1,64
 210 86 210 86 167 51 c 128,-1,65
 124 16 124 16 83.5 -11 c 128,-1,66
 43 -38 43 -38 10 -55.5 c 128,-1,67
 -23 -73 -23 -73 -43 -73 c 0,68,69
 -47 -73 -47 -73 -51 -72 c 0,70,71
 -54 -71 -54 -71 -58 -71 c 0,72,73
 -78 -55 -78 -55 -86 -29.5 c 128,-1,74
 -94 -4 -94 -4 -94 22 c 0,75,76
 -94 124 -94 124 -70.5 262.5 c 128,-1,77
 -47 401 -47 401 -13 547 c 128,-1,78
 21 693 21 693 62 829 c 128,-1,79
 103 965 103 965 138 1064 c 0,80,81
 150 1092 150 1092 156 1122 c 128,-1,82
 162 1152 162 1152 184 1174 c 1,0,1
EndSplineSet
EndChar

StartChar: X
Encoding: 88 88 81
Width: 1140
VWidth: 1769
Flags: W
LayerCount: 2
Fore
SplineSet
425 1206 m 1,0,1
 476 1206 476 1206 528 1202.5 c 128,-1,2
 580 1199 580 1199 632 1199 c 1,3,4
 674 1116 674 1116 714 1032 c 128,-1,5
 754 948 754 948 793 862 c 1,6,7
 836 878 836 878 873 906.5 c 128,-1,8
 910 935 910 935 950 959 c 0,9,10
 1011 998 1011 998 1075 1035.5 c 128,-1,11
 1139 1073 1139 1073 1206 1103.5 c 128,-1,12
 1273 1134 1273 1134 1342 1156 c 0,13,14
 1412 1179 1412 1179 1486 1188 c 1,15,16
 1483 1169 1483 1169 1480 1146.5 c 128,-1,17
 1477 1124 1477 1124 1472 1100 c 128,-1,18
 1467 1076 1467 1076 1460.5 1054.5 c 128,-1,19
 1454 1033 1454 1033 1447 1017 c 0,20,21
 1432 991 1432 991 1419.5 986.5 c 128,-1,22
 1407 982 1407 982 1381 972 c 0,23,24
 1241 925 1241 925 1121 847 c 0,25,26
 1002 768 1002 768 884 684 c 1,27,28
 906 595 906 595 937 502.5 c 128,-1,29
 968 410 968 410 997.5 315 c 128,-1,30
 1027 220 1027 220 1051.5 126 c 128,-1,31
 1076 32 1076 32 1087 -58 c 1,32,-1
 886 -58 l 1,33,34
 866 100 866 100 821 250 c 128,-1,35
 776 400 776 400 725 551 c 1,36,37
 675 512 675 512 604 445 c 128,-1,38
 533 378 533 378 459 303.5 c 128,-1,39
 385 229 385 229 320 153 c 128,-1,40
 255 77 255 77 218 26 c 0,41,42
 198 -2 198 -2 175.5 -30.5 c 128,-1,43
 153 -59 153 -59 114 -69 c 0,44,45
 66 -78 66 -78 13.5 -81.5 c 128,-1,46
 -39 -85 -39 -85 -86 -85 c 1,47,48
 -70 -37 -70 -37 -21.5 32.5 c 128,-1,49
 27 102 27 102 93.5 181 c 128,-1,50
 160 260 160 260 237.5 341 c 128,-1,51
 315 422 315 422 389.5 496.5 c 128,-1,52
 464 571 464 571 530 632 c 0,53,54
 596 693 596 693 637 731 c 1,55,56
 609 809 609 809 575.5 886 c 128,-1,57
 542 963 542 963 504 1035 c 0,58,59
 484 1077 484 1077 461 1117.5 c 128,-1,60
 438 1158 438 1158 425 1206 c 1,0,1
EndSplineSet
EndChar

StartChar: Y
Encoding: 89 89 82
Width: 808
VWidth: 1804
Flags: W
LayerCount: 2
Fore
SplineSet
153 1243 m 1,0,1
 203 1239 203 1239 261 1238.5 c 128,-1,2
 319 1238 319 1238 366.5 1224 c 128,-1,3
 414 1210 414 1210 445.5 1174 c 128,-1,4
 477 1138 477 1138 477 1067 c 0,5,6
 477 1045 477 1045 462.5 998 c 128,-1,7
 448 951 448 951 424.5 892 c 128,-1,8
 401 833 401 833 372.5 765.5 c 128,-1,9
 344 698 344 698 316 637.5 c 128,-1,10
 288 577 288 577 265 526.5 c 128,-1,11
 242 476 242 476 230 448 c 0,12,13
 221 428 221 428 204.5 392 c 128,-1,14
 188 356 188 356 171.5 318.5 c 128,-1,15
 155 281 155 281 143 247 c 128,-1,16
 131 213 131 213 131 194 c 0,17,18
 131 178 131 178 141 163 c 128,-1,19
 151 148 151 148 169 148 c 0,20,21
 176 148 176 148 184 151 c 0,22,23
 223 144 223 144 272.5 171 c 128,-1,24
 322 198 322 198 374.5 244 c 128,-1,25
 427 290 427 290 478.5 350 c 128,-1,26
 530 410 530 410 573 470 c 128,-1,27
 616 530 616 530 648 582.5 c 128,-1,28
 680 635 680 635 693 670 c 0,29,30
 734 778 734 778 783 878.5 c 0,31,32
 832 978 832 978 878 1084 c 0,33,34
 900 1131 900 1131 927 1143.5 c 128,-1,35
 954 1156 954 1156 999 1166 c 0,36,37
 1057 1181 1057 1181 1110 1200.5 c 128,-1,38
 1163 1220 1163 1220 1222 1224 c 1,39,40
 1193 1151 1193 1151 1146.5 1067 c 128,-1,41
 1100 983 1100 983 1047.5 897.5 c 128,-1,42
 995 812 995 812 942.5 730 c 128,-1,43
 890 648 890 648 847 580 c 0,44,45
 825 542 825 542 808.5 503 c 128,-1,46
 792 464 792 464 778 421 c 128,-1,47
 764 378 764 378 751 335 c 128,-1,48
 738 292 738 292 721 253 c 0,49,50
 689 180 689 180 657 111 c 0,51,52
 625 43 625 43 593 -29 c 0,53,54
 523 -185 523 -185 435 -315 c 128,-1,55
 347 -445 347 -445 249 -584 c 1,56,57
 195 -584 195 -584 141.5 -579 c 128,-1,58
 88 -574 88 -574 34 -567 c 1,59,60
 72 -511 72 -511 116 -460.5 c 128,-1,61
 160 -410 160 -410 198 -354 c 0,62,63
 287 -224 287 -224 366.5 -96 c 128,-1,64
 446 32 446 32 506 182 c 1,65,66
 462 144 462 144 420 106 c 128,-1,67
 378 68 378 68 332 36.5 c 128,-1,68
 286 5 286 5 234.5 -13.5 c 128,-1,69
 183 -32 183 -32 120 -32 c 0,70,71
 32 -29 32 -29 -18 28 c 128,-1,72
 -68 85 -68 85 -67 169 c 0,73,74
 -67 225 -67 225 -35.5 313 c 128,-1,75
 -4 401 -4 401 36.5 495.5 c 128,-1,76
 77 590 77 590 120 679 c 128,-1,77
 163 768 163 768 188 827 c 0,78,79
 208 878 208 878 233 930 c 0,80,81
 258 981 258 981 270 1035 c 1,82,83
 222 1051 222 1051 171 1054.5 c 128,-1,84
 120 1058 120 1058 69 1058 c 1,85,86
 82 1108 82 1108 106.5 1152 c 128,-1,87
 131 1196 131 1196 153 1243 c 1,0,1
EndSplineSet
EndChar

StartChar: Z
Encoding: 90 90 83
Width: 1092
VWidth: 1803
Flags: W
LayerCount: 2
Fore
SplineSet
1138 1271 m 0,0,1
 1185 1271 1185 1271 1230.5 1263.5 c 128,-1,2
 1276 1256 1276 1256 1310.5 1234.5 c 128,-1,3
 1345 1213 1345 1213 1365 1177.5 c 128,-1,4
 1385 1142 1385 1142 1385 1087 c 0,5,6
 1385 1029 1385 1029 1355.5 953.5 c 128,-1,7
 1326 878 1326 878 1277 797.5 c 128,-1,8
 1228 717 1228 717 1166.5 635.5 c 128,-1,9
 1105 554 1105 554 1041 480.5 c 128,-1,10
 977 407 977 407 918 348.5 c 128,-1,11
 859 290 859 290 814 255 c 0,12,13
 792 239 792 239 770.5 220.5 c 128,-1,14
 749 202 749 202 733 180 c 1,15,-1
 730 129 l 1,16,17
 803 141 803 141 875.5 153.5 c 128,-1,18
 948 166 948 166 1022 164 c 0,19,20
 1038 164 1038 164 1053.5 140.5 c 128,-1,21
 1069 117 1069 117 1083 87.5 c 128,-1,22
 1097 58 1097 58 1108 28.5 c 128,-1,23
 1119 -1 1119 -1 1124 -14 c 1,24,25
 1035 -14 1035 -14 946 -17 c 128,-1,26
 857 -20 857 -20 768 -42 c 1,27,28
 771 -62 771 -62 771 -82 c 128,-1,29
 771 -102 771 -102 771 -122 c 0,30,31
 771 -183 771 -183 758.5 -239.5 c 128,-1,32
 746 -296 746 -296 706 -346 c 0,33,34
 659 -405 659 -405 594.5 -450 c 128,-1,35
 530 -495 530 -495 456 -524.5 c 128,-1,36
 382 -554 382 -554 302.5 -569 c 128,-1,37
 223 -584 223 -584 151 -584 c 0,38,39
 113 -584 113 -584 72.5 -577 c 128,-1,40
 32 -570 32 -570 -1.5 -552.5 c 128,-1,41
 -35 -535 -35 -535 -57 -505 c 128,-1,42
 -79 -475 -79 -475 -79 -428 c 0,43,44
 -79 -350 -79 -350 -32 -284.5 c 128,-1,45
 15 -219 15 -219 83 -164 c 128,-1,46
 151 -109 151 -109 226 -65.5 c 128,-1,47
 301 -22 301 -22 359 12 c 0,48,49
 406 38 406 38 454.5 50.5 c 128,-1,50
 503 63 503 63 553 85 c 1,51,52
 549 117 549 117 540 146.5 c 128,-1,53
 531 176 531 176 531 208 c 0,54,55
 531 236 531 236 540 252 c 128,-1,56
 549 268 549 268 569 284 c 0,57,58
 715 408 715 408 853.5 542 c 128,-1,59
 992 676 992 676 1097 840 c 0,60,61
 1123 881 1123 881 1153 922.5 c 128,-1,62
 1183 964 1183 964 1183 1014 c 0,63,64
 1183 1062 1183 1062 1159 1077.5 c 128,-1,65
 1135 1093 1135 1093 1093 1093 c 0,66,67
 1045 1093 1045 1093 993 1082 c 128,-1,68
 941 1071 941 1071 889.5 1054 c 128,-1,69
 838 1037 838 1037 789 1015.5 c 128,-1,70
 740 994 740 994 698 976 c 0,71,72
 565 917 565 917 450 829.5 c 128,-1,73
 335 742 335 742 234 635 c 1,74,75
 237 679 237 679 225.5 723.5 c 128,-1,76
 214 768 214 768 214 814 c 0,77,78
 214 843 214 843 221 866 c 1,79,80
 312 940 312 940 421 1013.5 c 128,-1,81
 530 1087 530 1087 649 1144.5 c 128,-1,82
 768 1202 768 1202 892 1236.5 c 128,-1,83
 1016 1271 1016 1271 1138 1271 c 0,0,1
112 -390 m 0,84,85
 112 -397 112 -397 117 -403 c 128,-1,86
 122 -409 122 -409 126 -412 c 0,87,88
 148 -417 148 -417 173 -418 c 0,89,90
 212 -418 212 -418 274.5 -402.5 c 128,-1,91
 337 -387 337 -387 399 -361.5 c 128,-1,92
 461 -336 461 -336 511.5 -301 c 128,-1,93
 562 -266 562 -266 581 -229 c 0,94,95
 594 -203 594 -203 594 -171 c 0,96,97
 594 -151 594 -151 591.5 -132.5 c 128,-1,98
 589 -114 589 -114 589 -94 c 1,99,100
 503 -114 503 -114 421.5 -156 c 128,-1,101
 340 -198 340 -198 262 -241 c 0,102,103
 220 -265 220 -265 176 -304 c 128,-1,104
 132 -343 132 -343 112 -390 c 0,84,85
EndSplineSet
EndChar

StartChar: Adieresis
Encoding: 196 196 84
Width: 1174
VWidth: 1780
Flags: W
LayerCount: 2
Fore
SplineSet
522 1204 m 0,0,1
 565 1201 565 1201 590 1174 c 0,2,3
 615 1145 615 1145 616 1105 c 0,4,5
 613 1062 613 1062 580 1029.5 c 128,-1,6
 547 997 547 997 506 999 c 0,7,8
 463 999 463 999 438 1028.5 c 128,-1,9
 413 1058 413 1058 414 1101 c 0,10,11
 414 1157 414 1157 442.5 1180.5 c 128,-1,12
 471 1204 471 1204 522 1204 c 0,0,1
1033 1194 m 0,13,14
 1094 1194 1094 1194 1134 1166 c 128,-1,15
 1174 1138 1174 1138 1197 1093.5 c 128,-1,16
 1220 1049 1220 1049 1228.5 996 c 128,-1,17
 1237 943 1237 943 1237 894 c 0,18,19
 1237 808 1237 808 1203.5 685 c 128,-1,20
 1170 562 1170 562 1121 431.5 c 128,-1,21
 1072 301 1072 301 1016 180 c 128,-1,22
 960 59 960 59 916 -19 c 0,23,24
 901 -45 901 -45 873 -44.5 c 128,-1,25
 845 -44 845 -44 819 -48 c 0,26,27
 800 -51 800 -51 782 -53 c 128,-1,28
 764 -55 764 -55 745 -55 c 0,29,30
 716 -56 716 -56 701 -41 c 1,31,32
 701 -21 701 -21 709.5 -1.5 c 128,-1,33
 718 18 718 18 730 34 c 0,34,35
 769 93 769 93 798.5 154 c 128,-1,36
 828 215 828 215 858 278 c 1,37,38
 729 278 729 278 605 276 c 128,-1,39
 481 274 481 274 354 274 c 1,40,41
 342 208 342 208 342 145 c 0,42,43
 339 52 339 52 355.5 -37 c 128,-1,44
 372 -126 372 -126 389 -216 c 1,45,46
 345 -211 345 -211 295.5 -202.5 c 128,-1,47
 246 -194 246 -194 202 -180 c 0,48,49
 178 -171 178 -171 176.5 -152 c 128,-1,50
 175 -133 175 -133 173 -113 c 0,51,52
 169 -50 169 -50 158.5 11.5 c 128,-1,53
 148 73 148 73 148 138 c 0,54,55
 148 172 148 172 153 205.5 c 128,-1,56
 158 239 158 239 167 274 c 1,57,58
 104 279 104 279 41 278 c 128,-1,59
 -22 277 -22 277 -86 282 c 1,60,61
 -74 314 -74 314 -61 345.5 c 128,-1,62
 -48 377 -48 377 -32 409 c 0,63,64
 -27 421 -27 421 -19 431.5 c 128,-1,65
 -11 442 -11 442 4 446 c 0,66,67
 51 453 51 453 101 449 c 128,-1,68
 151 445 151 445 196 445 c 1,69,70
 234 538 234 538 287 629.5 c 128,-1,71
 340 721 340 721 406 804.5 c 128,-1,72
 472 888 472 888 549 958.5 c 128,-1,73
 626 1029 626 1029 711 1081 c 0,74,75
 781 1124 781 1124 865.5 1160.5 c 128,-1,76
 950 1197 950 1197 1033 1194 c 0,13,14
398 452 m 1,77,78
 528 449 528 449 658 452 c 128,-1,79
 788 455 788 455 917 449 c 1,80,81
 939 497 939 497 963.5 552.5 c 128,-1,82
 988 608 988 608 1007.5 666 c 128,-1,83
 1027 724 1027 724 1040 782 c 128,-1,84
 1053 840 1053 840 1053 894 c 0,85,86
 1053 935 1053 935 1040 969 c 128,-1,87
 1027 1003 1027 1003 979 1005 c 0,88,89
 936 1005 936 1005 899.5 983.5 c 128,-1,90
 863 962 863 962 831 940 c 0,91,92
 690 846 690 846 579 728 c 128,-1,93
 468 610 468 610 398 452 c 1,77,78
1372 1199 m 0,94,95
 1411 1199 1411 1199 1439 1170.5 c 128,-1,96
 1467 1142 1467 1142 1467 1103 c 0,97,98
 1467 1077 1467 1077 1447 1057 c 1,99,100
 1435 1031 1435 1031 1410 1018 c 128,-1,101
 1385 1005 1385 1005 1357 1005 c 0,102,103
 1316 1005 1316 1005 1290 1035.5 c 128,-1,104
 1264 1066 1264 1066 1267 1105 c 0,105,106
 1267 1159 1267 1159 1296 1179 c 128,-1,107
 1325 1199 1325 1199 1372 1199 c 0,94,95
EndSplineSet
EndChar

StartChar: Odieresis
Encoding: 214 214 85
Width: 1132
VWidth: 1769
Flags: W
LayerCount: 2
Fore
SplineSet
145 1194 m 256,0,1
 188 1194 188 1194 219 1170.5 c 128,-1,2
 250 1147 250 1147 250 1100 c 0,3,4
 247 1052 247 1052 224.5 1019 c 128,-1,5
 202 986 202 986 148 986 c 0,6,7
 105 986 105 986 79.5 1014 c 128,-1,8
 54 1042 54 1042 56 1084 c 0,9,10
 56 1123 56 1123 79 1158.5 c 128,-1,11
 102 1194 102 1194 145 1194 c 256,0,1
758 1185 m 0,12,13
 837 1185 837 1185 908.5 1152.5 c 128,-1,14
 980 1120 980 1120 1033.5 1066.5 c 128,-1,15
 1087 1013 1087 1013 1117.5 940.5 c 128,-1,16
 1148 868 1148 868 1148 788 c 0,17,18
 1148 691 1148 691 1115 589.5 c 128,-1,19
 1082 488 1082 488 1026 392 c 128,-1,20
 970 296 970 296 894 212 c 128,-1,21
 818 128 818 128 727.5 64.5 c 128,-1,22
 637 1 637 1 538 -35 c 128,-1,23
 439 -71 439 -71 338 -71 c 0,24,25
 282 -71 282 -71 226.5 -53.5 c 128,-1,26
 171 -36 171 -36 122 -4.5 c 128,-1,27
 73 27 73 27 32 69.5 c 128,-1,28
 -9 112 -9 112 -35 163 c 0,29,30
 -61 211 -61 211 -67 267 c 128,-1,31
 -73 323 -73 323 -73 377 c 0,32,33
 -73 393 -73 393 -73.5 410.5 c 128,-1,34
 -74 428 -74 428 -73 445 c 0,35,36
 -70 471 -70 471 -62.5 502 c 128,-1,37
 -55 533 -55 533 -43.5 563 c 128,-1,38
 -32 593 -32 593 -19.5 622 c 128,-1,39
 -7 651 -7 651 4 675 c 0,40,41
 51 777 51 777 131.5 870 c 128,-1,42
 212 963 212 963 312.5 1033.5 c 128,-1,43
 413 1104 413 1104 527 1144.5 c 128,-1,44
 641 1185 641 1185 758 1185 c 0,12,13
116 377 m 0,45,46
 116 264 116 264 184.5 196.5 c 128,-1,47
 253 129 253 129 366 129 c 0,48,49
 454 129 454 129 536.5 168 c 128,-1,50
 619 207 619 207 688.5 270 c 128,-1,51
 758 333 758 333 812.5 409.5 c 128,-1,52
 867 486 867 486 901 561 c 0,53,54
 923 609 923 609 943.5 657 c 128,-1,55
 964 705 964 705 964 758 c 0,56,57
 964 863 964 863 911 936.5 c 128,-1,58
 858 1010 858 1010 745 1010 c 0,59,60
 695 1010 695 1010 632 993 c 128,-1,61
 569 976 569 976 524 954 c 0,62,63
 426 906 426 906 361 842.5 c 128,-1,64
 296 779 296 779 234 688 c 0,65,66
 183 612 183 612 149.5 541.5 c 128,-1,67
 116 471 116 471 116 377 c 0,45,46
1186 1174 m 0,68,69
 1206 1174 1206 1174 1227.5 1166.5 c 128,-1,70
 1249 1159 1249 1159 1266.5 1147.5 c 128,-1,71
 1284 1136 1284 1136 1295.5 1118 c 128,-1,72
 1307 1100 1307 1100 1307 1077 c 0,73,74
 1304 1039 1304 1039 1280 1007 c 128,-1,75
 1256 975 1256 975 1214 975 c 0,76,77
 1171 975 1171 975 1137 1002 c 128,-1,78
 1103 1029 1103 1029 1105 1074 c 0,79,80
 1105 1087 1105 1087 1113.5 1103 c 128,-1,81
 1122 1119 1122 1119 1134 1133 c 128,-1,82
 1146 1147 1146 1147 1159.5 1158 c 128,-1,83
 1173 1169 1173 1169 1186 1174 c 0,68,69
EndSplineSet
EndChar

StartChar: Udieresis
Encoding: 220 220 86
Width: 984
VWidth: 1764
Flags: W
LayerCount: 2
Fore
SplineSet
534 1256 m 0,0,1
 581 1256 581 1256 609 1226.5 c 128,-1,2
 637 1197 637 1197 637 1152 c 0,3,4
 637 1109 637 1109 610.5 1077.5 c 128,-1,5
 584 1046 584 1046 539 1046 c 0,6,7
 496 1049 496 1049 470 1075.5 c 128,-1,8
 444 1102 444 1102 444 1146 c 0,9,10
 444 1165 444 1165 450 1183.5 c 128,-1,11
 456 1202 456 1202 469 1219 c 128,-1,12
 482 1236 482 1236 498 1246 c 128,-1,13
 514 1256 514 1256 534 1256 c 0,0,1
183 1248 m 1,14,15
 300 1235 300 1235 364 1167.5 c 128,-1,16
 428 1100 428 1100 426 982 c 0,17,18
 426 939 426 939 414 894.5 c 128,-1,19
 402 850 402 850 384.5 806.5 c 128,-1,20
 367 763 367 763 345.5 721 c 128,-1,21
 324 679 324 679 308 640 c 2,22,-1
 194 394 l 2,23,24
 172 344 172 344 150 289.5 c 128,-1,25
 128 235 128 235 128 179 c 0,26,27
 128 151 128 151 147 138 c 128,-1,28
 166 125 166 125 191 125 c 0,29,30
 226 125 226 125 264 142 c 128,-1,31
 302 159 302 159 328 179 c 0,32,33
 363 207 363 207 410 251.5 c 128,-1,34
 457 296 457 296 503 345 c 128,-1,35
 549 394 549 394 588 444 c 128,-1,36
 627 494 627 494 647 534 c 0,37,38
 660 560 660 560 683 614 c 128,-1,39
 706 668 706 668 736.5 733 c 128,-1,40
 767 798 767 798 799 868.5 c 128,-1,41
 831 939 831 939 863.5 998.5 c 128,-1,42
 896 1058 896 1058 926 1099.5 c 128,-1,43
 956 1141 956 1141 978 1150 c 0,44,45
 1032 1170 1032 1170 1095 1177 c 128,-1,46
 1158 1184 1158 1184 1216 1193 c 1,47,48
 1194 1123 1194 1123 1154 1041.5 c 128,-1,49
 1114 960 1114 960 1066.5 879.5 c 128,-1,50
 1019 799 1019 799 968.5 723 c 128,-1,51
 918 647 918 647 878 586 c 0,52,53
 850 543 850 543 825 504 c 0,54,55
 801 466 801 466 788 416 c 0,56,57
 773 353 773 353 761.5 295.5 c 128,-1,58
 750 238 750 238 750 175 c 0,59,60
 750 155 750 155 764.5 146 c 128,-1,61
 779 137 779 137 800.5 135 c 128,-1,62
 822 133 822 133 843.5 135 c 128,-1,63
 865 137 865 137 880 137 c 0,64,65
 899 137 899 137 917 135 c 128,-1,66
 935 133 935 133 952 125 c 1,67,68
 930 87 930 87 912 44 c 128,-1,69
 894 1 894 1 868 -31 c 0,70,71
 861 -40 861 -40 847 -45 c 128,-1,72
 833 -50 833 -50 817 -51 c 128,-1,73
 801 -52 801 -52 785.5 -52 c 128,-1,74
 770 -52 770 -52 758 -52 c 0,75,76
 720 -52 720 -52 686 -49 c 128,-1,77
 652 -46 652 -46 624.5 -32 c 128,-1,78
 597 -18 597 -18 580.5 9 c 128,-1,79
 564 36 564 36 564 81 c 0,80,81
 567 109 567 109 570 137 c 128,-1,82
 573 165 573 165 573 192 c 1,83,84
 526 153 526 153 478 110 c 128,-1,85
 430 67 430 67 377 28 c 128,-1,86
 324 -11 324 -11 267 -34.5 c 128,-1,87
 210 -58 210 -58 143 -58 c 0,88,89
 42 -55 42 -55 -13 10 c 128,-1,90
 -68 75 -68 75 -66 172 c 0,91,92
 -66 187 -66 187 -67 203 c 128,-1,93
 -68 219 -68 219 -66 233 c 0,94,95
 -61 280 -61 280 -37.5 341.5 c 128,-1,96
 -14 403 -14 403 18 472.5 c 128,-1,97
 50 542 50 542 85.5 613 c 128,-1,98
 121 684 121 684 150 752 c 128,-1,99
 179 820 179 820 199 880 c 128,-1,100
 219 940 219 940 219 986 c 0,101,102
 219 1020 219 1020 203 1037 c 128,-1,103
 187 1054 187 1054 162 1063.5 c 128,-1,104
 137 1073 137 1073 108 1076.5 c 128,-1,105
 79 1080 79 1080 58 1085 c 1,106,107
 84 1128 84 1128 111.5 1174 c 128,-1,108
 139 1220 139 1220 183 1248 c 1,14,15
790 1239 m 0,109,110
 829 1239 829 1239 858 1209 c 0,111,112
 886 1179 886 1179 886 1141 c 0,113,114
 886 1100 886 1100 856 1069.5 c 128,-1,115
 826 1039 826 1039 785 1039 c 0,116,117
 746 1039 746 1039 717 1067 c 128,-1,118
 688 1095 688 1095 688 1134 c 0,119,120
 688 1177 688 1177 717 1208 c 128,-1,121
 746 1239 746 1239 790 1239 c 0,109,110
EndSplineSet
EndChar

StartChar: T_h
Encoding: 57931 57931 87
Width: 1467
VWidth: 1775
Flags: W
LayerCount: 2
Fore
SplineSet
741 1171 m 1,0,1
 795 1183 795 1183 848.5 1191 c 128,-1,2
 902 1199 902 1199 956 1199 c 1,3,-1
 910 1066 l 1,4,5
 1034 1082 1034 1082 1157 1106 c 128,-1,6
 1280 1130 1280 1130 1401 1146 c 1,7,8
 1323 953 1323 953 1240 763 c 0,9,10
 1157 572 1157 572 1072 382 c 1,11,12
 1106 404 1106 404 1138.5 434 c 128,-1,13
 1171 464 1171 464 1205.5 490 c 128,-1,14
 1240 516 1240 516 1278 532.5 c 128,-1,15
 1316 549 1316 549 1361 549 c 256,16,17
 1405 549 1405 549 1430 530.5 c 128,-1,18
 1455 512 1455 512 1455 464 c 0,19,20
 1455 440 1455 440 1439.5 393 c 128,-1,21
 1424 346 1424 346 1403.5 292 c 128,-1,22
 1383 238 1383 238 1362 190.5 c 128,-1,23
 1341 143 1341 143 1329 114 c 1,24,-1
 1471 112 l 1,25,26
 1467 105 1467 105 1459.5 85 c 128,-1,27
 1452 65 1452 65 1442.5 43.5 c 128,-1,28
 1433 22 1433 22 1424 3.5 c 128,-1,29
 1415 -15 1415 -15 1411 -21 c 0,30,31
 1402 -30 1402 -30 1387 -31 c 128,-1,32
 1372 -32 1372 -32 1360 -36 c 0,33,34
 1334 -32 1334 -32 1297.5 -34 c 128,-1,35
 1261 -36 1261 -36 1227.5 -31.5 c 128,-1,36
 1194 -27 1194 -27 1170 -11.5 c 128,-1,37
 1146 4 1146 4 1146 44 c 0,38,39
 1146 76 1146 76 1160.5 118.5 c 128,-1,40
 1175 161 1175 161 1194.5 206.5 c 128,-1,41
 1214 252 1214 252 1233.5 297 c 0,42,43
 1252 342 1252 342 1264 374 c 1,44,45
 1225 358 1225 358 1174 316 c 128,-1,46
 1123 274 1123 274 1073.5 224.5 c 128,-1,47
 1024 175 1024 175 981.5 122.5 c 0,48,49
 940 70 940 70 914 32 c 0,50,51
 905 17 905 17 894.5 -3.5 c 128,-1,52
 884 -24 884 -24 869 -32 c 0,53,54
 864 -36 864 -36 843 -41.5 c 128,-1,55
 822 -47 822 -47 798.5 -52.5 c 128,-1,56
 775 -58 775 -58 752.5 -63 c 128,-1,57
 730 -68 730 -68 721 -69 c 1,58,59
 769 74 769 74 833 210 c 128,-1,60
 897 346 897 346 952 486 c 0,61,62
 980 556 980 556 1012 627 c 128,-1,63
 1044 698 1044 698 1073 769 c 0,64,65
 1089 808 1089 808 1109 846 c 128,-1,66
 1129 884 1129 884 1139 924 c 1,67,68
 1073 919 1073 919 1008 914 c 128,-1,69
 943 909 943 909 880 895 c 0,70,71
 854 891 854 891 834.5 879.5 c 128,-1,72
 815 868 815 868 806 845 c 2,73,-1
 542 226 l 2,74,75
 513 157 513 157 480.5 76 c 128,-1,76
 448 -5 448 -5 417 -69 c 0,77,78
 410 -82 410 -82 383 -92.5 c 128,-1,79
 356 -103 356 -103 325.5 -111.5 c 128,-1,80
 295 -120 295 -120 264.5 -124.5 c 128,-1,81
 234 -129 234 -129 219 -129 c 0,82,83
 202 -129 202 -129 193 -126 c 1,84,85
 252 35 252 35 322 190.5 c 128,-1,86
 392 346 392 346 455 503 c 0,87,88
 490 591 490 591 533 672 c 128,-1,89
 576 753 576 753 598 845 c 1,90,91
 547 845 547 845 494.5 837.5 c 128,-1,92
 442 830 442 830 390 824 c 0,93,94
 270 805 270 805 151 787.5 c 128,-1,95
 32 770 32 770 -86 744 c 1,96,97
 -71 785 -71 785 -43 831 c 128,-1,98
 -15 877 -15 877 12 913 c 0,99,100
 27 933 27 933 42.5 936.5 c 128,-1,101
 58 940 58 940 78 943 c 0,102,103
 136 950 136 950 192.5 959 c 128,-1,104
 249 968 249 968 304 978 c 0,105,106
 382 987 382 987 462 996.5 c 128,-1,107
 542 1006 542 1006 620 1022 c 0,108,109
 636 1026 636 1026 661 1032 c 128,-1,110
 686 1038 686 1038 695 1052 c 0,111,112
 710 1072 710 1072 721 1109.5 c 128,-1,113
 732 1147 732 1147 741 1171 c 1,0,1
EndSplineSet
EndChar

StartChar: uacute
Encoding: 250 250 88
Width: 656
VWidth: 1794
Flags: W
LayerCount: 2
Fore
SplineSet
639 537 m 1,0,1
 627 489 627 489 607.5 441.5 c 128,-1,2
 588 394 588 394 565 352 c 0,3,4
 550 324 550 324 532.5 300 c 128,-1,5
 515 276 515 276 499 251 c 128,-1,6
 483 226 483 226 473.5 197 c 128,-1,7
 464 168 464 168 464 132 c 0,8,9
 464 108 464 108 482 98 c 128,-1,10
 500 88 500 88 526.5 85.5 c 128,-1,11
 553 83 553 83 579.5 84 c 128,-1,12
 606 85 606 85 623 85 c 1,13,14
 614 47 614 47 601 12 c 128,-1,15
 588 -23 588 -23 571 -58 c 1,16,17
 527 -58 527 -58 477 -58 c 128,-1,18
 427 -58 427 -58 385 -50 c 0,19,20
 357 -45 357 -45 339.5 -20 c 128,-1,21
 322 5 322 5 303 24 c 1,22,23
 275 11 275 11 250 -4.5 c 128,-1,24
 225 -20 225 -20 200.5 -35 c 128,-1,25
 176 -50 176 -50 148 -60 c 0,26,27
 121 -70 121 -70 88 -70 c 0,28,29
 69 -70 69 -70 48 -61 c 128,-1,30
 27 -52 27 -52 9.5 -39 c 128,-1,31
 -8 -26 -8 -26 -20 -7 c 128,-1,32
 -32 12 -32 12 -32 32 c 0,33,34
 -32 48 -32 48 -21.5 85 c 128,-1,35
 -11 122 -11 122 5.5 169 c 128,-1,36
 22 216 22 216 42.5 268 c 128,-1,37
 63 320 63 320 83.5 368 c 128,-1,38
 104 416 104 416 122 452.5 c 128,-1,39
 140 489 140 489 148 508 c 1,40,41
 186 528 186 528 228 530.5 c 128,-1,42
 270 533 270 533 312 537 c 1,43,44
 296 478 296 478 272 420.5 c 128,-1,45
 248 363 248 363 225 305.5 c 128,-1,46
 202 248 202 248 180 189.5 c 128,-1,47
 158 131 158 131 148 69 c 1,48,49
 191 88 191 88 223.5 110 c 128,-1,50
 256 132 256 132 288 166 c 0,51,52
 304 182 304 182 312 200 c 128,-1,53
 320 218 320 218 325.5 236 c 128,-1,54
 331 254 331 254 335.5 271.5 c 128,-1,55
 340 289 340 289 350 308 c 0,56,57
 357 324 357 324 371 349.5 c 128,-1,58
 385 375 385 375 399 403.5 c 128,-1,59
 413 432 413 432 427.5 457 c 128,-1,60
 442 482 442 482 454 492 c 0,61,62
 469 508 469 508 492 516 c 128,-1,63
 515 524 515 524 540.5 528.5 c 128,-1,64
 566 533 566 533 592.5 533 c 128,-1,65
 619 533 619 533 639 537 c 1,0,1
512 847 m 1,66,-1
 720 851 l 1,67,-1
 422 586 l 1,68,-1
 344 588 l 1,69,-1
 512 847 l 1,66,-1
EndSplineSet
EndChar

StartChar: acute
Encoding: 180 180 89
Width: 610
VWidth: 1755
Flags: W
LayerCount: 2
Fore
SplineSet
629 805 m 1,0,-1
 835 808 l 1,1,-1
 538 543 l 1,2,-1
 460 545 l 1,3,-1
 629 805 l 1,0,-1
EndSplineSet
EndChar

StartChar: grave
Encoding: 96 96 90
Width: 668
VWidth: 1755
Flags: W
LayerCount: 2
Fore
SplineSet
447 545 m 1,0,-1
 370 543 l 1,1,-1
 73 808 l 1,2,-1
 278 805 l 1,3,-1
 447 545 l 1,0,-1
EndSplineSet
EndChar

StartChar: circumflex
Encoding: 710 710 91
Width: -72
VWidth: 1749
Flags: W
LayerCount: 2
Fore
SplineSet
448 806 m 1,0,-1
 455 811 l 1,1,-1
 643 811 l 1,2,-1
 647 806 l 1,3,-1
 745 580 l 1,4,-1
 686 577 l 1,5,-1
 526 709 l 1,6,-1
 320 577 l 1,7,-1
 265 580 l 1,8,-1
 448 806 l 1,0,-1
EndSplineSet
EndChar

StartChar: dieresis
Encoding: 168 168 98
Width: 626
VWidth: 1737
Flags: W
LayerCount: 2
Fore
SplineSet
266 875 m 256,0,1
 316 875 316 875 345 842.5 c 128,-1,2
 374 810 374 810 374 761 c 0,3,4
 374 710 374 710 342 682.5 c 128,-1,5
 310 655 310 655 260 655 c 0,6,7
 212 655 212 655 186.5 686 c 128,-1,8
 161 717 161 717 161 765 c 256,9,10
 161 813 161 813 188.5 844 c 128,-1,11
 216 875 216 875 266 875 c 256,0,1
554 875 m 0,12,13
 604 875 604 875 633 840.5 c 128,-1,14
 662 806 662 806 662 758 c 256,15,16
 662 710 662 710 631.5 682.5 c 0,17,18
 602 655 602 655 554 655 c 0,19,20
 510 655 510 655 479.5 689 c 128,-1,21
 449 723 449 723 449 768 c 0,22,23
 449 811 449 811 480 843 c 128,-1,24
 511 875 511 875 554 875 c 0,12,13
EndSplineSet
EndChar

StartChar: dotlessi
Encoding: 305 305 99
Width: 360
VWidth: 1815
Flags: W
LayerCount: 2
Fore
SplineSet
183 541 m 1,0,1
 224 546 224 546 264.5 547.5 c 0,2,3
 304 550 304 550 346 554 c 1,4,5
 303 444 303 444 250.5 333.5 c 128,-1,6
 198 223 198 223 163 110 c 1,7,8
 191 105 191 105 226 106.5 c 128,-1,9
 261 108 261 108 290 108 c 1,10,11
 278 76 278 76 260 33.5 c 128,-1,12
 242 -9 242 -9 226 -39 c 1,13,14
 206 -43 206 -43 191 -37.5 c 128,-1,15
 176 -32 176 -32 155 -32 c 0,16,17
 126 -32 126 -32 97 -32 c 128,-1,18
 68 -32 68 -32 44.5 -23 c 128,-1,19
 21 -14 21 -14 7 4 c 128,-1,20
 -7 22 -7 22 -7 59 c 0,21,22
 -7 115 -7 115 17 170 c 128,-1,23
 41 225 41 225 63 274 c 0,24,25
 95 341 95 341 123 408 c 128,-1,26
 151 475 151 475 183 541 c 1,0,1
EndSplineSet
EndChar

StartChar: bar
Encoding: 124 124 112
Width: 507
VWidth: 1769
Flags: W
LayerCount: 2
Fore
SplineSet
664 1205 m 0,0,1
 676 1206 676 1206 695 1202 c 1,2,3
 622 1059 622 1059 566.5 909.5 c 0,4,5
 512 760 512 760 446 616 c 0,6,7
 370 445 370 445 300 273 c 128,-1,8
 230 101 230 101 161 -74 c 1,9,-1
 -32 -74 l 1,10,11
 -20 -15 -20 -15 3.5 36.5 c 128,-1,12
 27 88 27 88 50 141 c 0,13,14
 126 316 126 316 197.5 489.5 c 128,-1,15
 269 663 269 663 344 838 c 0,16,17
 376 908 376 908 402 981 c 0,18,19
 430 1053 430 1053 463 1120 c 0,20,21
 472 1136 472 1136 479 1145 c 128,-1,22
 486 1154 486 1154 493 1158.5 c 128,-1,23
 500 1163 500 1163 511 1164.5 c 128,-1,24
 522 1166 522 1166 539 1173 c 0,25,26
 571 1182 571 1182 601.5 1193.5 c 128,-1,27
 632 1205 632 1205 664 1205 c 0,0,1
EndSplineSet
EndChar

StartChar: backslash
Encoding: 92 92 113
Width: 599
VWidth: 1769
Flags: W
LayerCount: 2
Fore
SplineSet
112 1205 m 0,0,1
 119 1205 119 1205 128 1204.5 c 128,-1,2
 137 1204 137 1204 146 1202 c 1,3,4
 187 1059 187 1059 250 909.5 c 128,-1,5
 313 760 313 760 364 616 c 0,6,7
 423 445 423 445 490 273 c 128,-1,8
 557 101 557 101 627 -74 c 1,9,-1
 434 -74 l 1,10,11
 399 -15 399 -15 382 36.5 c 128,-1,12
 365 88 365 88 346 141 c 0,13,14
 283 316 283 316 216 489.5 c 0,15,16
 150 663 150 663 86 838 c 0,17,18
 60 908 60 908 30 980.5 c 128,-1,19
 0 1053 0 1053 -21 1120 c 0,20,21
 -26 1136 -26 1136 -26.5 1145 c 128,-1,22
 -27 1154 -27 1154 -22.5 1158.5 c 128,-1,23
 -18 1163 -18 1163 -8.5 1164.5 c 128,-1,24
 1 1166 1 1166 14 1173 c 0,25,26
 36 1182 36 1182 58 1193.5 c 128,-1,27
 80 1205 80 1205 112 1205 c 0,0,1
EndSplineSet
EndChar

StartChar: slash
Encoding: 47 47 114
Width: 487
VWidth: 1769
Flags: W
LayerCount: 2
Fore
SplineSet
964 1205 m 0,0,1
 973 1206 973 1206 991 1202 c 1,2,3
 879 1059 879 1059 784.5 909.5 c 128,-1,4
 690 760 690 760 585 616 c 0,5,6
 463 445 463 445 346 273 c 128,-1,7
 229 101 229 101 114 -74 c 1,8,-1
 -76 -74 l 1,9,10
 -50 -15 -50 -15 -13 36.5 c 128,-1,11
 24 88 24 88 63 141 c 0,12,13
 184 316 184 316 302 489.5 c 128,-1,14
 420 663 420 663 542 838 c 0,15,16
 592 908 592 908 639 980.5 c 128,-1,17
 686 1053 686 1053 737 1120 c 0,18,19
 750 1136 750 1136 759.5 1145 c 128,-1,20
 769 1154 769 1154 778.5 1158.5 c 128,-1,21
 788 1163 788 1163 799 1164.5 c 128,-1,22
 810 1166 810 1166 828 1173 c 0,23,24
 862 1182 862 1182 897 1193.5 c 128,-1,25
 932 1205 932 1205 964 1205 c 0,0,1
EndSplineSet
EndChar

StartChar: less
Encoding: 60 60 115
Width: 556
VWidth: 1798
Flags: W
LayerCount: 2
Fore
SplineSet
627 816 m 1,0,1
 515 712 515 712 405 609.5 c 128,-1,2
 295 507 295 507 182 405 c 1,3,4
 268 292 268 292 356.5 183 c 128,-1,5
 445 74 445 74 529 -43 c 1,6,7
 491 -40 491 -40 453.5 -42 c 128,-1,8
 416 -44 416 -44 378 -44 c 0,9,10
 358 -44 358 -44 338.5 -43.5 c 128,-1,11
 319 -43 319 -43 299 -41 c 1,12,13
 230 45 230 45 161.5 127.5 c 128,-1,14
 93 210 93 210 24 295 c 0,15,16
 5 319 5 319 -8 346.5 c 128,-1,17
 -21 374 -21 374 -21 405 c 0,18,19
 -21 421 -21 421 -17.5 432.5 c 128,-1,20
 -14 444 -14 444 -4 459 c 0,21,22
 18 498 18 498 48.5 529.5 c 128,-1,23
 79 561 79 561 112.5 588.5 c 128,-1,24
 146 616 146 616 181 643 c 128,-1,25
 216 670 216 670 250 702 c 2,26,-1
 369 818 l 1,27,-1
 627 816 l 1,0,1
EndSplineSet
EndChar

StartChar: greater
Encoding: 62 62 116
Width: 556
VWidth: 1798
Flags: W
LayerCount: 2
Fore
SplineSet
-21 -43 m 1,0,1
 91 61 91 61 201 163.5 c 128,-1,2
 311 266 311 266 425 369 c 1,3,4
 339 482 339 482 249.5 590.5 c 128,-1,5
 160 699 160 699 77 816 c 1,6,7
 115 813 115 813 153 815.5 c 128,-1,8
 191 818 191 818 227 818 c 0,9,10
 247 818 247 818 266.5 817 c 128,-1,11
 286 816 286 816 308 814 c 1,12,13
 377 728 377 728 445.5 646 c 128,-1,14
 514 564 514 564 580 479 c 0,15,16
 599 456 599 456 613 428 c 0,17,18
 627 402 627 402 627 369 c 0,19,20
 627 353 627 353 623 341.5 c 128,-1,21
 619 330 619 330 609 315 c 0,22,23
 587 276 587 276 556.5 244.5 c 128,-1,24
 526 213 526 213 493 185.5 c 128,-1,25
 460 158 460 158 425 130 c 128,-1,26
 390 102 390 102 356 73 c 2,27,-1
 237 -44 l 1,28,-1
 -21 -43 l 1,0,1
EndSplineSet
EndChar

StartChar: equal
Encoding: 61 61 117
Width: 713
VWidth: 1787
Flags: W
LayerCount: 2
Fore
SplineSet
104 366 m 1,0,-1
 648 366 l 1,1,-1
 590 211 l 1,2,-1
 46 211 l 1,3,-1
 104 366 l 1,0,-1
218 673 m 1,4,-1
 761 673 l 1,5,-1
 703 518 l 1,6,-1
 159 518 l 1,7,-1
 218 673 l 1,4,-1
EndSplineSet
EndChar

StartChar: endash
Encoding: 8211 8211 118
Width: 778
VWidth: 1790
Flags: W
LayerCount: 2
Fore
SplineSet
152 518 m 1,0,-1
 830 518 l 1,1,-1
 770 363 l 1,2,-1
 93 363 l 1,3,-1
 152 518 l 1,0,-1
EndSplineSet
EndChar

StartChar: emdash
Encoding: 8212 8212 119
Width: 842
VWidth: 1790
Flags: W
LayerCount: 2
Fore
SplineSet
146 518 m 1,0,-1
 909 518 l 1,1,-1
 850 363 l 1,2,-1
 86 363 l 1,3,-1
 146 518 l 1,0,-1
EndSplineSet
EndChar

StartChar: guilsinglleft
Encoding: 8249 8249 120
Width: 422
VWidth: 1813
Flags: W
LayerCount: 2
Fore
SplineSet
323 551 m 1,0,-1
 405 469 l 1,1,2
 338 419 338 419 275 365 c 128,-1,3
 212 311 212 311 145 261 c 1,4,5
 169 229 169 229 201.5 205.5 c 128,-1,6
 234 182 234 182 264.5 156.5 c 128,-1,7
 295 131 295 131 323 103.5 c 128,-1,8
 351 76 351 76 367 39 c 1,9,10
 351 26 351 26 330 14 c 0,11,12
 308 1 308 1 286 1 c 0,13,14
 267 1 267 1 249 16 c 0,15,16
 183 74 183 74 121 133.5 c 128,-1,17
 59 193 59 193 -11 247 c 1,18,19
 -6 276 -6 276 25 300 c 128,-1,20
 56 324 56 324 78 343 c 0,21,22
 144 394 144 394 202 447 c 128,-1,23
 260 500 260 500 323 551 c 1,0,-1
EndSplineSet
EndChar

StartChar: guilsinglright
Encoding: 8250 8250 121
Width: 466
VWidth: 1814
Flags: W
LayerCount: 2
Fore
SplineSet
31 472 m 1,0,1
 73 515 73 515 128 546 c 1,2,3
 195 468 195 468 270.5 399.5 c 128,-1,4
 346 331 346 331 424 265 c 1,5,6
 386 241 386 241 339 205 c 128,-1,7
 292 169 292 169 243 131.5 c 128,-1,8
 194 94 194 94 149 56.5 c 128,-1,9
 104 19 104 19 75 -11 c 0,10,11
 70 -8 70 -8 55 0 c 128,-1,12
 40 8 40 8 25.5 17.5 c 128,-1,13
 11 27 11 27 -1 36 c 0,14,15
 -13 45 -13 45 -13 52 c 0,16,17
 -13 61 -13 61 -8.5 69.5 c 128,-1,18
 -4 78 -4 78 1 86 c 0,19,20
 59 136 59 136 121.5 178 c 128,-1,21
 184 220 184 220 246 265 c 1,22,23
 190 315 190 315 135.5 365.5 c 128,-1,24
 81 416 81 416 31 472 c 1,0,1
EndSplineSet
EndChar

StartChar: ae
Encoding: 230 230 122
Width: 873
VWidth: 1813
Flags: W
LayerCount: 2
Fore
SplineSet
639 566 m 1,0,1
 680 578 680 578 728 578 c 0,2,3
 757 578 757 578 785.5 571.5 c 128,-1,4
 814 565 814 565 838.5 551 c 128,-1,5
 863 537 863 537 878 513 c 128,-1,6
 893 489 893 489 893 455 c 0,7,8
 893 386 893 386 852 331.5 c 128,-1,9
 811 277 811 277 754.5 233.5 c 128,-1,10
 698 190 698 190 635 159 c 0,11,12
 574 128 574 128 533 108 c 1,13,-1
 800 112 l 1,14,15
 795 86 795 86 790 60.5 c 128,-1,16
 785 35 785 35 774 14 c 128,-1,17
 763 -7 763 -7 744 -19.5 c 128,-1,18
 725 -32 725 -32 694 -32 c 0,19,20
 672 -32 672 -32 636.5 -33.5 c 128,-1,21
 601 -35 601 -35 563.5 -35 c 128,-1,22
 526 -35 526 -35 493 -35 c 0,23,24
 460 -36 460 -36 441 -32 c 2,25,-1
 440 -32 l 2,26,27
 412 -29 412 -29 381.5 -24.5 c 128,-1,28
 351 -20 351 -20 327 -7 c 0,29,30
 318 -2 318 -2 311.5 1.5 c 0,31,32
 304 5 304 5 292 5 c 0,33,34
 273 5 273 5 255.5 -3 c 128,-1,35
 238 -11 238 -11 222 -15 c 0,36,37
 196 -22 196 -22 168 -25 c 0,38,39
 141 -28 141 -28 112 -28 c 0,40,41
 93 -28 93 -28 70 -27 c 128,-1,42
 47 -26 47 -26 29 -22 c 0,43,44
 7 -17 7 -17 -7.5 -0.5 c 128,-1,45
 -22 16 -22 16 -31 39 c 128,-1,46
 -40 62 -40 62 -42 85 c 128,-1,47
 -44 108 -44 108 -44 126 c 0,48,49
 -44 167 -44 167 -24 212.5 c 128,-1,50
 -4 258 -4 258 27 302 c 128,-1,51
 58 346 58 346 93 383 c 128,-1,52
 128 420 128 420 158 446 c 0,53,54
 205 485 205 485 264.5 510 c 128,-1,55
 324 535 324 535 389 548.5 c 128,-1,56
 454 562 454 562 518.5 566 c 128,-1,57
 583 570 583 570 639 566 c 1,0,1
254 327 m 0,58,59
 200 288 200 288 157 237.5 c 128,-1,60
 114 187 114 187 103 120 c 1,61,62
 118 120 118 120 133.5 118.5 c 0,63,64
 148 117 148 117 166 117 c 0,65,66
 224 117 224 117 251 140.5 c 128,-1,67
 278 164 278 164 291.5 197 c 128,-1,68
 305 230 305 230 316.5 270 c 128,-1,69
 328 310 328 310 355 344 c 0,70,71
 362 357 362 357 368 368.5 c 128,-1,72
 374 380 374 380 383 392 c 1,73,74
 348 380 348 380 317 364.5 c 128,-1,75
 286 349 286 349 254 327 c 0,58,59
427 176 m 1,76,77
 471 198 471 198 518.5 225.5 c 128,-1,78
 566 253 566 253 609 286 c 128,-1,79
 652 319 652 319 685 358.5 c 128,-1,80
 718 398 718 398 733 449 c 1,81,82
 682 449 682 449 634 422 c 128,-1,83
 586 395 586 395 546.5 355.5 c 128,-1,84
 507 316 507 316 476.5 267.5 c 128,-1,85
 446 219 446 219 427 176 c 1,76,77
EndSplineSet
EndChar

StartChar: AE
Encoding: 198 198 126
Width: 1624
VWidth: 1780
Flags: W
LayerCount: 2
Fore
SplineSet
1654 1214 m 0,0,1
 1693 1214 1693 1214 1732 1203.5 c 128,-1,2
 1771 1193 1771 1193 1801.5 1171 c 128,-1,3
 1832 1149 1832 1149 1850.5 1116.5 c 128,-1,4
 1869 1084 1869 1084 1869 1040 c 0,5,6
 1869 979 1869 979 1849 918.5 c 0,7,8
 1828 858 1828 858 1786 815 c 0,9,10
 1727 756 1727 756 1658.5 704 c 128,-1,11
 1590 652 1590 652 1517 608 c 1,12,13
 1475 632 1475 632 1432 650 c 128,-1,14
 1389 668 1389 668 1348 689 c 1,15,16
 1389 724 1389 724 1443.5 761 c 128,-1,17
 1498 798 1498 798 1550.5 838 c 128,-1,18
 1603 878 1603 878 1645.5 923 c 128,-1,19
 1688 968 1688 968 1705 1022 c 1,20,21
 1673 1034 1673 1034 1639 1034 c 0,22,23
 1596 1034 1596 1034 1547 1022 c 128,-1,24
 1498 1010 1498 1010 1451 990.5 c 128,-1,25
 1404 971 1404 971 1359 947 c 0,26,27
 1315 923 1315 923 1282 898 c 0,28,29
 1266 885 1266 885 1245 865 c 128,-1,30
 1224 845 1224 845 1205 820 c 128,-1,31
 1186 795 1186 795 1174.5 769 c 128,-1,32
 1163 743 1163 743 1163 721 c 0,33,34
 1163 682 1163 682 1181 650.5 c 128,-1,35
 1199 619 1199 619 1221.5 591.5 c 128,-1,36
 1244 564 1244 564 1263.5 540 c 128,-1,37
 1283 516 1283 516 1283 492 c 0,38,39
 1283 472 1283 472 1269.5 450.5 c 128,-1,40
 1256 429 1256 429 1243 417 c 0,41,42
 1211 391 1211 391 1173 366.5 c 128,-1,43
 1135 342 1135 342 1100 320 c 0,44,45
 1022 269 1022 269 945.5 218 c 128,-1,46
 869 167 869 167 795 113 c 1,47,48
 991 110 991 110 1188 111.5 c 128,-1,49
 1385 113 1385 113 1582 117 c 1,50,51
 1570 69 1570 69 1543 26.5 c 128,-1,52
 1516 -16 1516 -16 1486 -54 c 0,53,54
 1471 -73 1471 -73 1445 -74.5 c 128,-1,55
 1419 -76 1419 -76 1396 -76 c 2,56,-1
 803 -73 l 2,57,58
 764 -73 764 -73 725.5 -66 c 128,-1,59
 687 -59 687 -59 655.5 -42.5 c 128,-1,60
 624 -26 624 -26 604.5 4 c 128,-1,61
 585 34 585 34 585 79 c 0,62,63
 585 103 585 103 591.5 131.5 c 128,-1,64
 598 160 598 160 609 180 c 0,65,66
 618 195 618 195 639.5 217 c 0,67,68
 661 240 661 240 693 266 c 1,69,70
 602 266 602 266 511.5 264.5 c 128,-1,71
 421 263 421 263 332 258 c 1,72,73
 329 210 329 210 326 165 c 128,-1,74
 323 120 323 120 323 70 c 0,75,76
 323 -8 323 -8 344.5 -78 c 128,-1,77
 366 -148 366 -148 375 -225 c 1,78,79
 267 -213 267 -213 167 -180 c 1,80,81
 138 -37 138 -37 138 117 c 0,82,83
 138 155 138 155 140 192 c 0,84,85
 142 230 142 230 146 266 c 1,86,87
 80 266 80 266 16 264.5 c 128,-1,88
 -48 263 -48 263 -113 260 c 1,89,90
 -97 308 -97 308 -69.5 349 c 128,-1,91
 -42 390 -42 390 -24 436 c 1,92,-1
 184 436 l 1,93,94
 206 475 206 475 221.5 518 c 128,-1,95
 237 561 237 561 258 600 c 0,96,97
 293 659 293 659 343.5 726 c 128,-1,98
 394 793 394 793 455 860 c 128,-1,99
 516 927 516 927 585.5 987.5 c 128,-1,100
 655 1048 655 1048 729.5 1093.5 c 128,-1,101
 804 1139 804 1139 880 1166 c 128,-1,102
 956 1193 956 1193 1030 1193 c 0,103,104
 1065 1193 1065 1193 1088 1185 c 128,-1,105
 1111 1177 1111 1177 1136 1154 c 0,106,107
 1175 1119 1175 1119 1196 1069 c 1,108,109
 1250 1104 1250 1104 1309.5 1131 c 128,-1,110
 1369 1158 1369 1158 1429.5 1177 c 128,-1,111
 1490 1196 1490 1196 1547 1205 c 128,-1,112
 1604 1214 1604 1214 1654 1214 c 0,0,1
980 1005 m 0,113,114
 932 1008 932 1008 893 983 c 128,-1,115
 854 958 854 958 816 932 c 0,116,117
 679 838 679 838 570 717 c 128,-1,118
 461 596 461 596 392 444 c 1,119,120
 448 437 448 437 514.5 435 c 128,-1,121
 581 433 581 433 651 433.5 c 128,-1,122
 721 434 721 434 790.5 437 c 128,-1,123
 860 440 860 440 923 440 c 1,124,-1
 1041 519 l 1,125,126
 1028 553 1028 553 1015.5 575.5 c 128,-1,127
 1003 598 1003 598 993.5 618.5 c 128,-1,128
 984 639 984 639 979 664.5 c 128,-1,129
 974 690 974 690 974 734 c 0,130,131
 974 788 974 788 991.5 836 c 128,-1,132
 1009 884 1009 884 1040 927 c 1,133,134
 1036 956 1036 956 1024 980.5 c 128,-1,135
 1012 1005 1012 1005 980 1005 c 0,113,114
EndSplineSet
EndChar

StartChar: Edieresis
Encoding: 203 203 130
Width: 994
VWidth: 1761
Flags: W
LayerCount: 2
Fore
SplineSet
519 1338 m 256,0,1
 569 1338 569 1338 598 1305.5 c 128,-1,2
 627 1273 627 1273 627 1225 c 0,3,4
 627 1174 627 1174 594.5 1147 c 128,-1,5
 562 1120 562 1120 512 1120 c 0,6,7
 464 1120 464 1120 439 1150.5 c 0,8,9
 414 1180 414 1180 414 1228 c 256,10,11
 414 1276 414 1276 441.5 1307 c 128,-1,12
 469 1338 469 1338 519 1338 c 256,0,1
1314 1275 m 0,13,14
 1364 1275 1364 1275 1393 1240.5 c 128,-1,15
 1422 1206 1422 1206 1422 1158 c 256,16,17
 1422 1110 1422 1110 1391.5 1083.5 c 128,-1,18
 1361 1057 1361 1057 1313 1057 c 0,19,20
 1269 1057 1269 1057 1239 1090 c 128,-1,21
 1209 1123 1209 1123 1209 1167 c 0,22,23
 1209 1210 1209 1210 1240 1242.5 c 128,-1,24
 1271 1275 1271 1275 1314 1275 c 0,13,14
987 1196 m 0,25,26
 1026 1196 1026 1196 1065 1185 c 128,-1,27
 1104 1174 1104 1174 1135 1152 c 128,-1,28
 1166 1130 1166 1130 1184 1098 c 128,-1,29
 1202 1066 1202 1066 1202 1022 c 0,30,31
 1202 961 1202 961 1182 900 c 128,-1,32
 1162 839 1162 839 1120 796 c 0,33,34
 1061 737 1061 737 992 685 c 0,35,36
 922 633 922 633 850 589 c 1,37,38
 807 613 807 613 764.5 631.5 c 128,-1,39
 722 650 722 650 681 670 c 1,40,41
 722 705 722 705 777 742 c 128,-1,42
 832 779 832 779 884 819 c 128,-1,43
 936 859 936 859 979 904.5 c 128,-1,44
 1022 950 1022 950 1038 1004 c 1,45,46
 1006 1016 1006 1016 972 1015 c 0,47,48
 930 1015 930 1015 881 1003 c 128,-1,49
 832 991 832 991 784.5 971.5 c 128,-1,50
 737 952 737 952 692.5 928 c 128,-1,51
 648 904 648 904 614 880 c 0,52,53
 598 867 598 867 577.5 846.5 c 128,-1,54
 557 826 557 826 538 801 c 128,-1,55
 519 776 519 776 507.5 750 c 128,-1,56
 496 724 496 724 496 702 c 0,57,58
 496 663 496 663 514.5 631 c 128,-1,59
 533 599 533 599 555 572 c 128,-1,60
 577 545 577 545 596.5 521 c 0,61,62
 616 496 616 496 616 472 c 0,63,64
 616 452 616 452 603 431 c 128,-1,65
 590 410 590 410 576 397 c 0,66,67
 544 371 544 371 506 347 c 128,-1,68
 468 323 468 323 433 301 c 0,69,70
 355 250 355 250 278.5 199 c 128,-1,71
 202 148 202 148 128 94 c 1,72,73
 324 91 324 91 521 92.5 c 128,-1,74
 718 94 718 94 915 98 c 1,75,76
 903 50 903 50 875.5 7.5 c 128,-1,77
 848 -35 848 -35 819 -73 c 0,78,79
 804 -92 804 -92 778 -93 c 128,-1,80
 752 -94 752 -94 729 -94 c 2,81,-1
 136 -91 l 2,82,83
 97 -91 97 -91 58.5 -84.5 c 128,-1,84
 20 -78 20 -78 -11.5 -61 c 128,-1,85
 -43 -44 -43 -44 -62.5 -15 c 128,-1,86
 -82 14 -82 14 -82 61 c 0,87,88
 -82 85 -82 85 -75.5 112.5 c 128,-1,89
 -69 140 -69 140 -58 161 c 0,90,91
 -42 190 -42 190 16 239 c 128,-1,92
 74 288 74 288 142 339 c 128,-1,93
 210 390 210 390 276 434.5 c 128,-1,94
 342 479 342 479 374 500 c 1,95,96
 361 534 361 534 348.5 557 c 128,-1,97
 336 580 336 580 326.5 600 c 128,-1,98
 317 620 317 620 312 645.5 c 128,-1,99
 307 671 307 671 307 715 c 0,100,101
 307 788 307 788 340.5 852.5 c 128,-1,102
 374 917 374 917 428 969.5 c 128,-1,103
 482 1022 482 1022 553 1064.5 c 128,-1,104
 624 1107 624 1107 700 1136.5 c 128,-1,105
 776 1166 776 1166 850 1181 c 128,-1,106
 924 1196 924 1196 987 1196 c 0,25,26
EndSplineSet
EndChar

StartChar: ellipsis
Encoding: 8230 8230 143
Width: 1155
VWidth: 1835
Flags: W
LayerCount: 2
Fore
SplineSet
248 261 m 0,0,1
 302 261 302 261 340 218.5 c 128,-1,2
 378 176 378 176 378 125 c 0,3,4
 378 99 378 99 365 73 c 128,-1,5
 352 47 352 47 330.5 26 c 128,-1,6
 309 5 309 5 283 -8 c 128,-1,7
 257 -21 257 -21 233 -21 c 0,8,9
 204 -21 204 -21 181.5 -6.5 c 128,-1,10
 159 8 159 8 143.5 31.5 c 128,-1,11
 128 55 128 55 120 83.5 c 128,-1,12
 112 112 112 112 112 138 c 0,13,14
 112 194 112 194 154.5 227.5 c 128,-1,15
 197 261 197 261 248 261 c 0,0,1
553 261 m 0,16,17
 607 261 607 261 644.5 218.5 c 128,-1,18
 682 176 682 176 682 125 c 0,19,20
 682 99 682 99 669 73 c 128,-1,21
 656 47 656 47 635 26 c 128,-1,22
 614 5 614 5 588 -8 c 128,-1,23
 562 -21 562 -21 538 -21 c 0,24,25
 509 -21 509 -21 486.5 -6.5 c 128,-1,26
 464 8 464 8 448 31.5 c 128,-1,27
 432 55 432 55 424 83.5 c 128,-1,28
 416 112 416 112 416 138 c 0,29,30
 416 194 416 194 459 227.5 c 128,-1,31
 502 261 502 261 553 261 c 0,16,17
858 261 m 0,32,33
 912 261 912 261 949.5 218.5 c 128,-1,34
 987 176 987 176 987 125 c 0,35,36
 987 99 987 99 974.5 73 c 128,-1,37
 962 47 962 47 940 26 c 128,-1,38
 918 5 918 5 892.5 -8 c 128,-1,39
 867 -21 867 -21 842 -21 c 0,40,41
 813 -21 813 -21 790.5 -6.5 c 128,-1,42
 768 8 768 8 752 31.5 c 128,-1,43
 736 55 736 55 728 83.5 c 128,-1,44
 720 112 720 112 720 138 c 0,45,46
 720 194 720 194 763.5 227.5 c 128,-1,47
 807 261 807 261 858 261 c 0,32,33
EndSplineSet
EndChar

StartChar: quotesinglbase
Encoding: 8218 8218 144
Width: 442
VWidth: 1845
Flags: W
LayerCount: 2
Fore
SplineSet
159 225 m 1,0,-1
 412 223 l 1,1,2
 374 164 374 164 327 109 c 128,-1,3
 280 54 280 54 234 0 c 0,4,5
 225 -12 225 -12 212 -28 c 128,-1,6
 199 -44 199 -44 183.5 -61 c 128,-1,7
 168 -78 168 -78 152.5 -90 c 0,8,9
 138 -102 138 -102 122 -102 c 0,10,11
 87 -102 87 -102 53.5 -98 c 128,-1,12
 20 -94 20 -94 -12 -79 c 1,13,-1
 77 32 l 2,14,15
 89 47 89 47 87.5 75.5 c 128,-1,16
 86 104 86 104 93 121 c 0,17,18
 102 147 102 147 123 173 c 128,-1,19
 144 199 144 199 159 225 c 1,0,-1
EndSplineSet
EndChar

StartChar: cedilla
Encoding: 184 184 145
Width: 488
VWidth: 1874
Flags: W
LayerCount: 2
Fore
SplineSet
313 36 m 1,0,1
 297 16 297 16 275.5 1 c 128,-1,2
 254 -14 254 -14 241 -36 c 1,3,4
 245 -52 245 -52 252.5 -63 c 128,-1,5
 260 -74 260 -74 266.5 -82.5 c 128,-1,6
 273 -91 273 -91 278.5 -102.5 c 128,-1,7
 284 -114 284 -114 284 -131 c 0,8,9
 284 -136 284 -136 283 -145.5 c 128,-1,10
 282 -155 282 -155 280 -165.5 c 128,-1,11
 278 -176 278 -176 275.5 -187 c 128,-1,12
 273 -198 273 -198 270 -202 c 0,13,14
 248 -249 248 -249 216 -269 c 128,-1,15
 184 -289 184 -289 148 -295.5 c 128,-1,16
 112 -302 112 -302 72 -300.5 c 128,-1,17
 32 -299 32 -299 -9 -300 c 1,18,19
 -5 -293 -5 -293 1 -277.5 c 128,-1,20
 7 -262 7 -262 14.5 -246 c 128,-1,21
 22 -230 22 -230 30.5 -216.5 c 128,-1,22
 39 -203 39 -203 48 -202 c 0,23,24
 68 -197 68 -197 90 -199.5 c 128,-1,25
 112 -202 112 -202 130 -200 c 128,-1,26
 148 -198 148 -198 160 -185 c 0,27,28
 172 -173 172 -173 172 -135 c 0,29,30
 172 -116 172 -116 162 -101 c 128,-1,31
 152 -86 152 -86 140 -75.5 c 128,-1,32
 128 -65 128 -65 118 -57.5 c 128,-1,33
 108 -50 108 -50 108 -42 c 256,34,35
 108 -35 108 -35 118 -23.5 c 128,-1,36
 128 -12 128 -12 140.5 -2 c 128,-1,37
 153 8 153 8 167.5 15.5 c 128,-1,38
 182 23 182 23 188 24 c 0,39,40
 201 28 201 28 208 33 c 0,41,42
 216 38 216 38 229 39 c 0,43,44
 244 39 244 39 272 39.5 c 128,-1,45
 300 40 300 40 313 36 c 1,0,1
EndSplineSet
EndChar

StartChar: tilde
Encoding: 732 732 148
Width: -32
VWidth: 1745
Flags: W
LayerCount: 2
Fore
SplineSet
437 804 m 1,0,1
 444 800 444 800 454.5 790.5 c 128,-1,2
 465 781 465 781 473 769.5 c 128,-1,3
 481 758 481 758 486 746 c 128,-1,4
 491 734 491 734 491 726 c 0,5,6
 491 688 491 688 453.5 658 c 128,-1,7
 416 628 416 628 348 626 c 0,8,9
 309 626 309 626 286 640.5 c 128,-1,10
 263 655 263 655 245 674 c 128,-1,11
 227 693 227 693 207 708.5 c 128,-1,12
 187 724 187 724 158 724 c 0,13,14
 138 724 138 724 126 710.5 c 128,-1,15
 114 697 114 697 107.5 680.5 c 128,-1,16
 101 664 101 664 95 650.5 c 128,-1,17
 89 637 89 637 79 637 c 0,18,19
 47 637 47 637 15.5 653.5 c 128,-1,20
 -16 670 -16 670 -21 679 c 0,21,22
 -2 720 -2 720 12 749 c 128,-1,23
 26 778 26 778 45.5 796.5 c 128,-1,24
 65 815 65 815 95.5 823 c 128,-1,25
 126 831 126 831 176 831 c 0,26,27
 215 831 215 831 236.5 815.5 c 128,-1,28
 258 800 258 800 275 782 c 128,-1,29
 292 764 292 764 306 749 c 128,-1,30
 320 734 320 734 347 734 c 0,31,32
 385 731 385 731 403.5 757.5 c 128,-1,33
 422 784 422 784 437 804 c 1,0,1
EndSplineSet
EndChar

StartChar: Eth
Encoding: 208 208 156
Width: 996
VWidth: 1772
Flags: W
LayerCount: 2
Fore
SplineSet
-19 547 m 1,0,-1
 117 547 l 1,1,2
 132 591 132 591 149.5 635.5 c 128,-1,3
 167 680 167 680 193 718 c 0,4,5
 205 737 205 737 235.5 752 c 128,-1,6
 266 767 266 767 304 776 c 128,-1,7
 342 785 342 785 379 790.5 c 128,-1,8
 416 796 416 796 437 798 c 1,9,10
 411 751 411 751 379.5 687 c 128,-1,11
 348 623 348 623 317 547 c 1,12,-1
 526 547 l 1,13,-1
 465 392 l 1,14,-1
 256 392 l 1,15,16
 224 310 224 310 201 237 c 128,-1,17
 178 164 178 164 167 109 c 1,18,19
 277 135 277 135 380 192.5 c 128,-1,20
 483 250 483 250 577 308 c 0,21,22
 646 351 646 351 732.5 421 c 128,-1,23
 819 491 819 491 895.5 577.5 c 128,-1,24
 972 664 972 664 1024 757 c 128,-1,25
 1076 850 1076 850 1076 937 c 0,26,27
 1076 961 1076 961 1062.5 975.5 c 128,-1,28
 1049 990 1049 990 1029.5 997 c 128,-1,29
 1010 1004 1010 1004 987.5 1006.5 c 128,-1,30
 965 1009 965 1009 949 1009 c 0,31,32
 893 1012 893 1012 840.5 997 c 128,-1,33
 788 982 788 982 734 968 c 0,34,35
 591 934 591 934 454 896 c 128,-1,36
 317 858 317 858 178 807 c 0,37,38
 130 788 130 788 82.5 765.5 c 128,-1,39
 35 743 35 743 -15 725 c 1,40,41
 -16 838 -16 838 29 940 c 1,42,43
 49 960 49 960 78.5 972 c 128,-1,44
 108 984 108 984 133 994 c 0,45,46
 237 1028 237 1028 344.5 1061 c 128,-1,47
 452 1094 452 1094 560 1121.5 c 128,-1,48
 668 1149 668 1149 777 1167.5 c 128,-1,49
 886 1186 886 1186 997 1190 c 2,50,-1
 1018 1190 l 2,51,52
 1130 1190 1130 1190 1199 1121.5 c 0,53,54
 1268 1052 1268 1052 1268 940 c 0,55,56
 1268 886 1268 886 1248 825.5 c 128,-1,57
 1228 765 1228 765 1199 705.5 c 128,-1,58
 1170 646 1170 646 1132.5 592 c 128,-1,59
 1095 538 1095 538 1060 500 c 0,60,61
 1006 439 1006 439 954 375 c 128,-1,62
 902 311 902 311 838 263 c 0,63,64
 784 222 784 222 707.5 171.5 c 128,-1,65
 631 121 631 121 548 72 c 128,-1,66
 465 23 465 23 384.5 -14.5 c 128,-1,67
 304 -52 304 -52 241 -69 c 0,68,69
 185 -84 185 -84 120.5 -91 c 128,-1,70
 56 -98 56 -98 -4 -98 c 0,71,72
 -8 -98 -8 -98 -18 -94.5 c 128,-1,73
 -28 -91 -28 -91 -38 -85 c 128,-1,74
 -48 -79 -48 -79 -57.5 -74.5 c 128,-1,75
 -67 -70 -67 -70 -70 -69 c 0,76,77
 -56 51 -56 51 -14 163 c 0,78,79
 27 277 27 277 67 392 c 1,80,-1
 -78 392 l 1,81,-1
 -19 547 l 1,0,-1
EndSplineSet
EndChar

StartChar: parenright
Encoding: 41 41 157
Width: 411
VWidth: 1800
Flags: W
LayerCount: 2
Fore
SplineSet
-176 -613 m 0,0,1
 -181 -616 -181 -616 -194 -616 c 0,2,3
 -223 -616 -223 -616 -252.5 -603 c 128,-1,4
 -282 -590 -282 -590 -309 -581 c 1,5,6
 -258 -508 -258 -508 -202 -438.5 c 128,-1,7
 -146 -369 -146 -369 -94 -293 c 0,8,9
 -65 -250 -65 -250 -28.5 -197.5 c 128,-1,10
 8 -145 8 -145 43 -88.5 c 128,-1,11
 78 -32 78 -32 111 22.5 c 0,12,13
 144 78 144 78 166 122 c 0,14,15
 240 274 240 274 299.5 412.5 c 128,-1,16
 359 551 359 551 400 690.5 c 128,-1,17
 441 830 441 830 463.5 978.5 c 128,-1,18
 486 1127 486 1127 486 1299 c 0,19,20
 486 1311 486 1311 489 1322 c 0,21,22
 492 1332 492 1332 502 1339 c 1,23,24
 540 1334 540 1334 574.5 1326.5 c 0,25,26
 610 1319 610 1319 644 1303 c 1,27,28
 647 1288 647 1288 645.5 1275.5 c 128,-1,29
 644 1263 644 1263 644 1249 c 0,30,31
 644 1044 644 1044 597 840 c 128,-1,32
 550 636 550 636 470.5 439 c 128,-1,33
 391 242 391 242 287 56.5 c 128,-1,34
 183 -129 183 -129 69 -293 c 0,35,36
 11 -376 11 -376 -46 -458 c 128,-1,37
 -103 -540 -103 -540 -176 -613 c 0,0,1
EndSplineSet
EndChar

StartChar: plus
Encoding: 43 43 158
Width: 713
VWidth: 1787
Flags: W
LayerCount: 2
Fore
SplineSet
226 184 m 1,0,-1
 290 363 l 1,1,-1
 101 363 l 1,2,-1
 160 518 l 1,3,-1
 347 518 l 1,4,-1
 413 698 l 1,5,-1
 578 698 l 1,6,-1
 514 518 l 1,7,-1
 705 518 l 1,8,-1
 644 363 l 1,9,-1
 456 363 l 1,10,-1
 393 186 l 1,11,-1
 226 184 l 1,0,-1
EndSplineSet
EndChar

StartChar: ring
Encoding: 730 730 159
Width: 660
VWidth: 1749
Flags: W
LayerCount: 2
Fore
SplineSet
241 697 m 0,0,1
 236 668 236 668 254 647.5 c 128,-1,2
 272 627 272 627 299 627 c 256,3,4
 327 627 327 627 350.5 646.5 c 128,-1,5
 374 666 374 666 379 697 c 0,6,7
 383 725 383 725 367 745 c 128,-1,8
 351 765 351 765 323 765 c 256,9,10
 295 765 295 765 270 745 c 128,-1,11
 245 725 245 725 241 697 c 0,0,1
140 697 m 0,12,13
 145 731 145 731 165.5 761.5 c 128,-1,14
 186 792 186 792 213.5 815.5 c 128,-1,15
 241 839 241 839 274.5 853 c 128,-1,16
 308 867 308 867 343 867 c 256,17,18
 378 867 378 867 406 853 c 128,-1,19
 434 839 434 839 453.5 815.5 c 128,-1,20
 473 792 473 792 480.5 760.5 c 128,-1,21
 488 729 488 729 483 697 c 0,22,23
 468 624 468 624 409.5 573.5 c 128,-1,24
 351 523 351 523 281 523 c 0,25,26
 246 523 246 523 216.5 536.5 c 128,-1,27
 187 550 187 550 167.5 574 c 128,-1,28
 148 598 148 598 140.5 628.5 c 128,-1,29
 133 659 133 659 140 697 c 0,12,13
EndSplineSet
EndChar

StartChar: quotesingle
Encoding: 39 39 162
Width: 414
VWidth: 1721
Flags: W
LayerCount: 2
Fore
SplineSet
495 742 m 1,0,-1
 317 720 l 1,1,2
 341 776 341 776 348.5 792 c 128,-1,3
 356 808 356 808 354 805.5 c 128,-1,4
 352 803 352 803 345.5 790 c 128,-1,5
 339 777 339 777 337 774 c 128,-1,6
 335 771 335 771 341.5 788 c 128,-1,7
 348 805 348 805 374 860 c 0,8,9
 379 875 379 875 388 899 c 128,-1,10
 397 923 397 923 406.5 948.5 c 128,-1,11
 416 974 416 974 426 995.5 c 128,-1,12
 436 1017 436 1017 448 1024 c 0,13,14
 460 1031 460 1031 482 1035.5 c 128,-1,15
 504 1040 504 1040 527.5 1043 c 128,-1,16
 551 1046 551 1046 574 1049 c 128,-1,17
 597 1052 597 1052 612 1053 c 1,18,-1
 495 742 l 1,0,-1
EndSplineSet
EndChar

StartChar: quotedbl
Encoding: 34 34 163
Width: 652
VWidth: 1721
Flags: W
LayerCount: 2
Fore
SplineSet
752 742 m 1,0,-1
 573 720 l 1,1,2
 597 776 597 776 604.5 792 c 128,-1,3
 612 808 612 808 610 805.5 c 128,-1,4
 608 803 608 803 602 790 c 128,-1,5
 596 777 596 777 594 774 c 128,-1,6
 592 771 592 771 600 788 c 128,-1,7
 608 805 608 805 631 860 c 0,8,9
 636 875 636 875 644 899 c 128,-1,10
 652 923 652 923 661.5 948.5 c 128,-1,11
 671 974 671 974 682 995.5 c 128,-1,12
 693 1017 693 1017 706 1024 c 0,13,14
 718 1031 718 1031 739 1035.5 c 128,-1,15
 760 1040 760 1040 783.5 1043 c 128,-1,16
 807 1046 807 1046 830.5 1049 c 128,-1,17
 854 1052 854 1052 868 1053 c 1,18,-1
 752 742 l 1,0,-1
477 742 m 1,19,-1
 299 720 l 1,20,21
 323 776 323 776 330.5 792 c 128,-1,22
 338 808 338 808 335.5 805.5 c 128,-1,23
 333 803 333 803 326.5 790 c 128,-1,24
 320 777 320 777 318.5 774 c 128,-1,25
 317 771 317 771 323.5 788 c 128,-1,26
 330 805 330 805 356 860 c 0,27,28
 361 875 361 875 370 899 c 128,-1,29
 379 923 379 923 388 948.5 c 128,-1,30
 397 974 397 974 407.5 995.5 c 128,-1,31
 418 1017 418 1017 430 1024 c 0,32,33
 442 1031 442 1031 464.5 1035.5 c 128,-1,34
 487 1040 487 1040 510 1043 c 128,-1,35
 533 1046 533 1046 556.5 1049 c 128,-1,36
 580 1052 580 1052 594 1053 c 1,37,-1
 477 742 l 1,19,-1
EndSplineSet
EndChar

